<?xml version="1.0" encoding="UTF-8"?>
<svg width="20px" height="20px" viewBox="0 0 20 20" version="1.1" xmlns="http://www.w3.org/2000/svg" xmlns:xlink="http://www.w3.org/1999/xlink">
    <!-- Generator: Sketch 52.5 (67469) - http://www.bohemiancoding.com/sketch -->
    <title>Sidepanel Icon / Open / Hover</title>
    <desc>Created with Sketch.</desc>
    <g id="Symbols" stroke="none" stroke-width="1" fill="none" fill-rule="evenodd">
        <g id="Sidepanel-/-PullTab-1-Copy-11" transform="translate(-5.000000, -13.000000)" fill="#FFD708" fill-rule="nonzero">
            <g id="Sidepanel-Icon-/-Open-/-Hover" transform="translate(15.000000, 23.000000) scale(-1, 1) translate(-15.000000, -23.000000) translate(5.000000, 13.000000)">
                <g id="Group">
                    <path d="M0.580645161,9.29032258 L13.8387097,9.29032258 L11,6.4516129 C10.7741935,6.22580645 10.7741935,5.87096774 11,5.64516129 C11.2258065,5.41935484 11.5806452,5.41935484 11.8064516,5.64516129 L15.6129032,9.4516129 C15.8387097,9.67741935 15.8387097,10.0322581 15.6129032,10.2580645 L11.8064516,14.0645161 C11.7096774,14.1612903 11.5483871,14.2258065 11.4193548,14.2258065 C11.2903226,14.2258065 11.1290323,14.1612903 11.0322581,14.0645161 C10.8064516,13.8387097 10.8064516,13.483871 11.0322581,13.2580645 L13.8709677,10.4193548 L0.612903226,10.4193548 C0.290322581,10.4193548 0.064516129,10.1612903 0.064516129,9.87096774 C-9.47159018e-15,9.51612903 0.258064516,9.29032258 0.580645161,9.29032258 Z M15.6129032,0 L4.06451613,0 C1.83870968,0 0,1.80645161 0,4.06451613 L0,6.4516129 C0,6.77419355 0.258064516,7 0.548387097,7 C0.838709677,7 1.09677419,6.74193548 1.09677419,6.4516129 L1.09677419,4.06451613 C1.09677419,2.4516129 2.41935484,1.12903226 4.03225806,1.12903226 L15.5806452,1.12903226 C17.1935484,1.12903226 18.516129,2.4516129 18.516129,4.06451613 L18.516129,15.6129032 C18.516129,17.2258065 17.1935484,18.5483871 15.5806452,18.5483871 L4.03225806,18.5483871 C2.41935484,18.5483871 1.09677419,17.2258065 1.09677419,15.6129032 L1.09677419,13.2580645 C1.09677419,12.9354839 0.838709677,12.7096774 0.548387097,12.7096774 C0.258064516,12.7096774 0,12.9677419 0,13.2580645 L0,15.6129032 C0,17.8387097 1.80645161,19.6774194 4.06451613,19.6774194 L15.6129032,19.6774194 C17.8387097,19.6774194 19.6774194,17.8709677 19.6774194,15.6129032 L19.6774194,4.06451613 C19.6774194,1.80645161 17.8709677,0 15.6129032,0 Z" id="Shape"></path>
                </g>
            </g>
        </g>
    </g>
</svg>