<?xml version="1.0" encoding="UTF-8"?>
<svg width="821px" height="300px" viewBox="0 0 821 300" version="1.1" xmlns="http://www.w3.org/2000/svg" xmlns:xlink="http://www.w3.org/1999/xlink">
    <!-- Generator: Sketch 43.2 (39069) - http://www.bohemiancoding.com/sketch -->
    <title>404</title>
    <desc>Created with Sketch.</desc>
    <defs>
        <path d="M532.8,621.2 L446.4,621.2 L446.4,571.2 L310,571.2 L310,493.6 L417.2,338 L532.4,338 L532.4,496.8 L570.8,496.8 L570.8,571.2 L532.8,571.2 L532.8,621.2 Z M446,425.2 L398.8,496.8 L447.6,496.8 L447.6,425.2 L446,425.2 Z M717.6,629.2 C700.26658,629.2 685.066732,626.933356 672,622.4 C658.933268,617.866644 647.73338,611.733372 638.4,604 C629.06662,596.266628 621.266698,587.333384 615,577.2 C608.733302,567.066616 603.800018,556.400056 600.2,545.2 C596.599982,533.999944 594.066674,522.666724 592.6,511.2 C591.133326,499.733276 590.4,488.66672 590.4,478 C590.4,467.599948 591.133326,456.666724 592.6,445.2 C594.066674,433.733276 596.599982,422.533388 600.2,411.6 C603.800018,400.666612 608.733302,390.266716 615,380.4 C621.266698,370.533284 629.06662,361.866704 638.4,354.4 C647.73338,346.933296 658.933268,341.000022 672,336.6 C685.066732,332.199978 700.26658,330 717.6,330 C743.733464,330 765.066584,334.733286 781.6,344.2 C798.133416,353.666714 811.06662,365.666594 820.4,380.2 C829.73338,394.733406 836.133316,410.733246 839.6,428.2 C843.066684,445.666754 844.8,462.266588 844.8,478 C844.8,488.400052 844.066674,499.399942 842.6,511 C841.133326,522.600058 838.600018,533.999944 835,545.2 C831.399982,556.400056 826.533364,567.066616 820.4,577.2 C814.266636,587.333384 806.466714,596.266628 797,604 C787.533286,611.733372 776.266732,617.866644 763.2,622.4 C750.133268,626.933356 734.93342,629.2 717.6,629.2 Z M1092.8,621.2 L1006.4,621.2 L1006.4,571.2 L870,571.2 L870,493.6 L977.2,338 L1092.4,338 L1092.4,496.8 L1130.8,496.8 L1130.8,571.2 L1092.8,571.2 L1092.8,621.2 Z M1006,425.2 L958.8,496.8 L1007.6,496.8 L1007.6,425.2 L1006,425.2 Z" id="path-1"></path>
        <filter x="-0.2%" y="-0.7%" width="100.5%" height="101.3%" filterUnits="objectBoundingBox" id="filter-2">
            <feGaussianBlur stdDeviation="1.5" in="SourceAlpha" result="shadowBlurInner1"></feGaussianBlur>
            <feOffset dx="0" dy="1" in="shadowBlurInner1" result="shadowOffsetInner1"></feOffset>
            <feComposite in="shadowOffsetInner1" in2="SourceAlpha" operator="arithmetic" k2="-1" k3="1" result="shadowInnerInner1"></feComposite>
            <feColorMatrix values="0 0 0 0 0   0 0 0 0 0   0 0 0 0 0  0 0 0 0.5 0" type="matrix" in="shadowInnerInner1"></feColorMatrix>
        </filter>
    </defs>
    <g id="404" stroke="none" stroke-width="1" fill="none" fill-rule="evenodd" opacity="0.241225091">
        <g transform="translate(-310.000000, -330.000000)">
            <g>
                <use fill="#FFFFFF" fill-rule="evenodd" xlink:href="#path-1"></use>
                <use fill="black" fill-opacity="1" filter="url(#filter-2)" xlink:href="#path-1"></use>
            </g>
        </g>
    </g>
</svg>