<?xml version="1.0" encoding="UTF-8"?>
<svg width="180px" height="202px" viewBox="0 0 180 202" version="1.1" xmlns="http://www.w3.org/2000/svg" xmlns:xlink="http://www.w3.org/1999/xlink">
    <!-- Generator: Sketch 43.2 (39069) - http://www.bohemiancoding.com/sketch -->
    <title>Bear</title>
    <desc>Created with Sketch.</desc>
    <defs></defs>
    <g id="404" stroke="none" stroke-width="1" fill="none" fill-rule="evenodd">
        <g transform="translate(-630.000000, -375.000000)" id="Bear">
            <g transform="translate(630.000000, 366.000000)">
                <g id="Group">
                    <g id="BellaBee" transform="translate(83.000000, 26.109091) rotate(-90.000000) translate(-83.000000, -26.109091) translate(57.000000, 0.109091)" fill="#1F1418">
                        <path d="M42.454027,18.4324281 C40.8909071,16.8110809 37.6878284,16.2052696 35.0278869,17.6091654 C34.8945502,17.4390194 34.7582014,17.2818436 34.6188389,17.1414543 C34.4704363,16.9911463 34.3122408,16.8568601 34.1480194,16.7302048 C35.5137724,14.0048161 34.765734,10.6049476 33.019559,8.87678284 C31.4790378,7.35309853 29.3931197,7.26382909 27.5753796,8.64407196 C27.0766876,9.02327629 26.9749913,9.74124672 27.3493868,10.2471069 C27.7245357,10.752967 28.4326477,10.8544442 28.9320931,10.4760029 C29.8714718,9.76032136 30.6925814,9.77481815 31.4398656,10.5149151 C32.5788723,11.6418464 33.0120264,14.0376245 32.0575809,15.8069904 C31.6861983,15.7367969 31.29523,15.698647 30.8824157,15.698647 C29.0737158,15.698647 27.2710424,16.3830458 26.1945607,16.7927698 L25.9685671,16.8782243 C24.9975495,17.2429314 24.0694705,17.6259511 23.1790567,18.0272819 C20.8392719,17.4077366 18.3262262,16.9575749 16.0745793,16.9575749 C13.2059709,16.9575749 11.0884134,17.6801228 9.77991203,19.1053821 C8.67480462,20.3093753 8.18891899,21.9558999 8.33581468,24.0014676 C8.48421696,26.0584794 9.3316919,27.5394366 10.7863357,28.3649878 C10.5249367,28.8433807 10.2793573,29.3286398 10.0669235,29.8253446 C7.4544407,35.9391566 9.56823161,41.1587484 9.65938224,41.3792515 L9.83415042,41.8004196 L10.2477183,41.9835366 C10.3418821,42.0247373 12.5867492,43.0013611 15.844066,43.0013611 C18.1424185,43.0013611 20.7872939,42.5328868 23.4833939,41.1053391 C23.4969509,41.1328087 23.5059963,41.1625631 23.5203051,41.1900305 C24.0785084,42.2894942 25.295106,43.6422699 27.9188882,43.8360686 C28.1561815,43.8528535 28.3859414,43.8620076 28.608168,43.8620076 C30.9102867,43.8620076 32.682074,42.919719 33.73219,41.137382 C35.4806253,38.1686013 34.9502937,33.2847237 33.8700457,29.0219169 C34.4018833,27.8934597 34.9163954,26.6818371 35.4083075,25.3733153 C36.3318668,22.9164981 36.3838447,21.0624406 36.0305425,19.6722789 C37.7721978,18.7223601 39.8792084,19.0405257 40.8381736,20.0339344 C41.4513692,20.6695023 41.4099368,21.4691123 40.7131237,22.4083493 C40.3387282,22.9142089 40.4404253,23.6321797 40.9391173,24.011384 C41.1432649,24.1655074 41.3805574,24.2402803 41.6163439,24.2402803 C41.959854,24.2402803 42.2988437,24.0823414 42.5210702,23.7824877 C44.1512355,21.5789827 43.5553669,19.5746164 42.4540226,18.4324259 L42.454027,18.4324281 Z M31.7916625,39.9631478 C31.0737569,41.1831635 29.8895515,41.6867353 28.0838652,41.551686 C26.3730953,41.4257938 25.8073587,40.6864595 25.5301406,40.141687 C25.4917255,40.0661511 25.470627,39.9761187 25.4374829,39.8960051 C25.1399249,39.1704048 25.0593211,38.2548213 25.145198,37.213344 C25.2039596,36.4938477 25.3335263,35.7224682 25.5293871,34.9106503 C25.8435179,33.611284 26.3105704,32.2264631 26.849188,30.8523247 C27.2507025,29.8291593 27.6898832,28.8151502 28.1411163,27.8453942 C28.7505456,26.5353461 29.3750401,25.3092264 29.9385165,24.2700384 L29.9995339,24.3318395 C30.8485152,26.451417 31.7366687,29.3370323 32.2263212,32.143297 C32.7649388,35.2303412 32.8206838,38.2159075 31.791661,39.963147 L31.7916625,39.9631478 Z M10.5904747,23.8343732 C10.4895311,22.429715 10.7652429,21.3928163 11.4349365,20.6634006 C12.2989843,19.7226382 13.8605982,19.2457715 16.0753327,19.2457715 C17.3054895,19.2457715 18.6358373,19.3983687 19.9744712,19.6440507 C22.7737751,20.1590665 25.6017049,21.0868587 27.6040055,21.906306 L27.6461951,21.9490374 C26.7083224,22.4693941 25.4841922,23.1179323 24.1184392,23.771812 C23.18132,24.2212114 22.1779094,24.6706107 21.1519003,25.0833863 C19.8140191,25.6228179 18.4422396,26.0912914 17.1359988,26.41022 C16.2531177,26.6253822 15.4033829,26.7680608 14.6131595,26.8138401 C14.4346249,26.8245248 14.2523239,26.8374943 14.0805685,26.8374943 C13.2172743,26.8374943 12.5317612,26.7100752 12.0036901,26.4399782 C11.1275856,25.9913367 10.685392,25.1482359 10.5904747,23.8343732 L10.5904747,23.8343732 Z M25.8156455,25.4900542 L26.4371271,26.1195181 C25.9911664,27.0412064 25.5369198,28.0430076 25.1052732,29.0867733 L22.8852651,26.8382513 C23.9150413,26.4002976 24.9063987,25.9394535 25.8156455,25.4900542 L25.8156455,25.4900542 Z M18.9755804,28.2726669 L23.696581,33.0550666 C23.3447849,34.2697415 23.078113,35.4752608 22.9515563,36.615926 L15.4689178,29.0379425 C16.5860778,28.9067087 17.7732961,28.6343224 18.9755804,28.2726669 L18.9755804,28.2726669 Z M17.3288423,40.6330501 L11.1531982,34.3780857 C11.2895475,33.3114303 11.5682725,32.1600835 12.0496384,30.9698244 L20.7782537,39.8105505 C19.5857623,40.2622391 18.4249097,40.5178397 17.3288423,40.6330501 L17.3288423,40.6330501 Z M33.2967779,24.5569218 C33.156662,24.928496 33.0150393,25.2901515 32.8719105,25.6449407 C32.2790541,23.8870195 31.6718857,22.4266627 31.231199,21.5339688 C31.1754525,21.320332 31.0624572,21.1288225 30.9012488,20.9792776 C30.7543529,20.8159979 30.5630118,20.7015497 30.3513315,20.6458519 C29.4563981,20.187297 28.1486496,19.6287912 26.6043621,19.0824925 C26.6555896,19.0634153 26.7045523,19.0420533 26.7557776,19.0229761 L26.9893038,18.93447 C27.922656,18.5796815 29.4842706,17.9868405 30.8831691,17.9868405 C31.8082353,17.9868405 32.5073079,18.2393895 33.0210659,18.7597462 C34.1999974,19.954583 34.2934085,21.9047768 33.2967779,24.5569188 L33.2967779,24.5569218 Z" id="Shape" transform="translate(25.918400, 25.765058) rotate(-45.000000) translate(-25.918400, -25.765058) "></path>
                    </g>
                    <path d="M179.2,78.2 C179.2,62.7090909 166.618182,50.1090909 151.145455,50.1090909 C139.145455,50.1090909 128.509091,57.7818182 124.636364,68.9636364 C113.254545,62.5454545 100.381818,59.1272727 87.2363636,59.1272727 C75.7454545,59.1272727 64.7272727,61.6545455 54.4181818,66.5818182 C49.9272727,56.6727273 39.8363636,50.1090909 28.8545455,50.1090909 C13.3818182,50.1090909 0.8,62.7090909 0.8,78.2 C0.8,89.4909091 7.61818182,99.6909091 17.9454545,104.054545 C13.5636364,113.818182 11.3090909,124.254545 11.3090909,135.054545 C11.3090909,176.927273 45.3818182,210.981818 87.2363636,210.981818 C129.109091,210.981818 163.163636,176.927273 163.163636,135.054545 C163.163636,124.854545 161.163636,114.963636 157.2,105.581818 C169.890909,102.781818 179.2,91.3454545 179.2,78.2 Z M154.854545,102.945455 L152.890909,103.272727 L153.709091,105.090909 C157.981818,114.563636 160.163636,124.654545 160.163636,135.054545 C160.163636,175.254545 127.454545,207.963636 87.2363636,207.963636 C47.0363636,207.963636 14.3272727,175.254545 14.3272727,135.054545 C14.3272727,124.145455 16.6909091,113.636364 21.3272727,103.836364 L22.0363636,102.345455 L20.4727273,101.781818 C10.5090909,98.2727273 3.8,88.7454545 3.8,78.2 C3.8,64.3818182 15.0545455,53.1272727 28.8545455,53.1272727 C39.1454545,53.1272727 48.5454545,59.5818182 52.2545455,69.1818182 L52.8545455,70.7454545 L54.3454545,70 C64.6363636,64.7818182 75.7090909,62.1454545 87.2545455,62.1454545 C100.490909,62.1454545 113.454545,65.7272727 124.745455,72.5090909 L126.436364,73.5454545 L126.963636,71.6363636 C129.909091,60.7272727 139.854545,53.1272727 151.145455,53.1272727 C164.963636,53.1272727 176.2,64.3818182 176.2,78.2 C176.2,90.4909091 167.018182,101.145455 154.854545,102.945455 Z" id="Shape" fill="#000000" fill-rule="nonzero"></path>
                    <path d="M136.581818,76.2545455 L154.581818,94.0181818 C159.490909,89.0545455 159.418182,81.0545455 154.454545,76.1272727 C149.490909,71.2363636 141.490909,71.2727273 136.581818,76.2545455 Z" id="Shape" fill="#000000" fill-rule="nonzero"></path>
                    <path d="M21.4363636,76.1090909 C16.4727273,81.0363636 16.4,89.0363636 21.2909091,94 L39.2909091,76.2363636 C34.4,71.2727273 26.4,71.2363636 21.4363636,76.1090909 Z" id="Shape" fill="#000000" fill-rule="nonzero"></path>
                    <path d="M89.1090909,129.8 C68.6,129.8 51.9090909,146.490909 51.9090909,167.018182 C51.9090909,187.509091 68.6,204.2 89.1090909,204.2 C109.618182,204.2 126.309091,187.509091 126.309091,167.018182 C126.327273,146.490909 109.636364,129.8 89.1090909,129.8 Z M89.1090909,201.218182 C70.2545455,201.218182 54.9090909,185.872727 54.9090909,167.018182 C54.9090909,148.163636 70.2727273,132.818182 89.1090909,132.818182 C107.981818,132.818182 123.309091,148.163636 123.309091,167.018182 C123.309091,185.872727 107.981818,201.218182 89.1090909,201.218182 Z" id="Shape" fill="#000000" fill-rule="nonzero"></path>
                    <path d="M88.4909091,164.145455 C99.2727273,164.145455 101.781818,147.6 101.781818,147.6 C101.781818,147.6 99.2727273,142.090909 89.1090909,142.090909 C78.9636364,142.090909 75.2181818,147.6 75.2181818,147.6 C75.2181818,147.6 77.7272727,164.145455 88.4909091,164.145455 Z" id="Shape" fill="#000000" fill-rule="nonzero"></path>
                    <path d="M58.4363636,131.290909 C58.4363636,126.6 54.6181818,122.8 49.9090909,122.8 C45.2,122.8 41.4,126.6 41.4,131.290909 C41.4,136.018182 45.2,139.818182 49.9090909,139.818182 C54.6181818,139.818182 58.4363636,136.018182 58.4363636,131.290909 Z M48.5272727,133.309091 C46.8,133.309091 45.4,131.890909 45.4,130.181818 C45.4,128.436364 46.8,127.054545 48.5272727,127.054545 C50.2727273,127.054545 51.6727273,128.436364 51.6727273,130.181818 C51.6727273,131.890909 50.2727273,133.309091 48.5272727,133.309091 Z" id="Shape" fill="#000000" fill-rule="nonzero"></path>
                    <path d="M124.818182,122.8 C120.109091,122.8 116.309091,126.6 116.309091,131.290909 C116.309091,136.018182 120.109091,139.818182 124.818182,139.818182 C129.527273,139.818182 133.345455,136.018182 133.345455,131.290909 C133.345455,126.6 129.527273,122.8 124.818182,122.8 Z M123.436364,133.309091 C121.709091,133.309091 120.309091,131.890909 120.309091,130.181818 C120.309091,128.436364 121.709091,127.054545 123.436364,127.054545 C125.181818,127.054545 126.581818,128.436364 126.581818,130.181818 C126.581818,131.890909 125.181818,133.309091 123.436364,133.309091 Z" id="Shape" fill="#000000" fill-rule="nonzero"></path>
                    <path d="M97.3454545,178.163636 C93.4363636,178.163636 90.4545455,180.181818 88.5090909,182.672727 C86.8,180.472727 83.9818182,178.163636 79.6545455,178.163636 C71.8545455,178.163636 67.6,185.872727 67.4363636,186.181818 C66.8363636,187.290909 67.2545455,188.636364 68.3454545,189.236364 C69.4,189.872727 70.8181818,189.454545 71.4181818,188.345455 C71.4363636,188.272727 74.5818182,182.690909 79.6545455,182.690909 C84.1636364,182.690909 86.0363636,187.127273 86.3636364,188.018182 C86.7090909,188.909091 87.5454545,189.509091 88.5090909,189.509091 C89.4909091,189.509091 90.3454545,188.909091 90.6545455,187.981818 C90.6727273,187.909091 92.5090909,182.690909 97.3454545,182.690909 C102.418182,182.690909 105.545455,188.272727 105.581818,188.345455 C106.2,189.454545 107.6,189.872727 108.672727,189.236364 C109.763636,188.636364 110.181818,187.290909 109.581818,186.181818 C109.4,185.872727 105.145455,178.163636 97.3454545,178.163636 Z" id="Shape" fill="#000000" fill-rule="nonzero"></path>
                    <path d="M59.1636364,103.454545 C58.3454545,102.527273 56.8909091,102.454545 55.9636364,103.309091 L33.5272727,123.945455 C32.6,124.8 32.5272727,126.254545 33.3818182,127.163636 C33.8181818,127.618182 34.4363636,127.872727 35.0545455,127.872727 C35.6,127.872727 36.1636364,127.690909 36.5818182,127.272727 L59.0181818,106.636364 C59.9636364,105.8 60.0181818,104.381818 59.1636364,103.454545 Z" id="Shape" fill="#000000" fill-rule="nonzero"></path>
                    <path d="M122.309091,103.309091 C121.4,102.454545 119.963636,102.527273 119.109091,103.454545 C118.254545,104.381818 118.309091,105.8 119.236364,106.654545 L141.672727,127.290909 C142.109091,127.709091 142.654545,127.890909 143.2,127.890909 C143.818182,127.890909 144.418182,127.636364 144.872727,127.181818 C145.727273,126.254545 145.654545,124.8 144.745455,123.945455 L122.309091,103.309091 Z" id="Shape" fill="#000000" fill-rule="nonzero"></path>
                    <path d="M57.5090909,92.2727273 C59.8181818,92.2727273 61.7090909,90.3818182 61.7090909,88.0545455 C61.7090909,86.7454545 57.5090909,80.3454545 57.5090909,80.3454545 C57.5090909,80.3454545 53.2909091,86.7272727 53.2909091,88.0363636 C53.2909091,90.3818182 55.1818182,92.2727273 57.5090909,92.2727273 Z" id="Shape" fill="#000000" fill-rule="nonzero"></path>
                    <path d="M69.4181818,108.981818 C71.7272727,108.981818 73.6181818,107.090909 73.6181818,104.763636 C73.6181818,103.454545 69.4181818,97.0545455 69.4181818,97.0545455 C69.4181818,97.0545455 65.2181818,103.454545 65.2181818,104.763636 C65.2181818,107.109091 67.0909091,108.981818 69.4181818,108.981818 Z" id="Shape" fill="#000000" fill-rule="nonzero"></path>
                    <path d="M36.8909091,110.727273 C36.8909091,109.418182 32.6909091,103.018182 32.6909091,103.018182 C32.6909091,103.018182 28.4727273,109.418182 28.4727273,110.727273 C28.4727273,113.072727 30.3636364,114.945455 32.6727273,114.945455 C35,114.963636 36.8909091,113.072727 36.8909091,110.727273 Z" id="Shape" fill="#000000" fill-rule="nonzero"></path>
                    <path d="M113.854545,86.2909091 C116.163636,86.2909091 118.054545,84.4 118.054545,82.0727273 C118.054545,80.7636364 113.854545,74.3636364 113.854545,74.3636364 C113.854545,74.3636364 109.654545,80.7636364 109.654545,82.0727273 C109.654545,84.4181818 111.527273,86.2909091 113.854545,86.2909091 Z" id="Shape" fill="#000000" fill-rule="nonzero"></path>
                    <path d="M133.345455,103.018182 C135.654545,103.018182 137.545455,101.127273 137.545455,98.8 C137.545455,97.4909091 133.345455,91.0909091 133.345455,91.0909091 C133.345455,91.0909091 129.127273,97.4909091 129.127273,98.8 C129.127273,101.145455 131.018182,103.018182 133.345455,103.018182 Z" id="Shape" fill="#000000" fill-rule="nonzero"></path>
                    <path d="M109.654545,118.327273 C111.963636,118.327273 113.854545,116.436364 113.854545,114.145455 C113.854545,112.8 109.654545,106.4 109.654545,106.4 C109.654545,106.4 105.436364,112.781818 105.436364,114.145455 C105.436364,116.454545 107.327273,118.327273 109.654545,118.327273 Z" id="Shape" fill="#000000" fill-rule="nonzero"></path>
                </g>
            </g>
        </g>
    </g>
</svg>