<?xml version="1.0" encoding="UTF-8"?>
<svg width="180px" height="161px" viewBox="0 0 180 161" version="1.1" xmlns="http://www.w3.org/2000/svg" xmlns:xlink="http://www.w3.org/1999/xlink">
    <!-- Generator: Sketch 49 (51002) - http://www.bohemiancoding.com/sketch -->
    <title>Bear</title>
    <desc>Created with Sketch.</desc>
    <defs></defs>
    <g id="Page-1" stroke="none" stroke-width="1" fill="none" fill-rule="evenodd">
        <g id="Bear" fill="#000000" fill-rule="nonzero">
            <path d="M179.2,28.2 C179.2,12.7090909 166.618182,0.1090909 151.145455,0.1090909 C139.145455,0.1090909 128.509091,7.7818182 124.636364,18.9636364 C113.254545,12.5454545 100.381818,9.1272727 87.2363636,9.1272727 C75.7454545,9.1272727 64.7272727,11.6545455 54.4181818,16.5818182 C49.9272727,6.6727273 39.8363636,0.1090909 28.8545455,0.1090909 C13.3818182,0.1090909 0.8,12.7090909 0.8,28.2 C0.8,39.4909091 7.61818182,49.6909091 17.9454545,54.054545 C13.5636364,63.818182 11.3090909,74.254545 11.3090909,85.054545 C11.3090909,126.927273 45.3818182,160.981818 87.2363636,160.981818 C129.109091,160.981818 163.163636,126.927273 163.163636,85.054545 C163.163636,74.854545 161.163636,64.963636 157.2,55.581818 C169.890909,52.781818 179.2,41.3454545 179.2,28.2 Z M154.854545,52.945455 L152.890909,53.272727 L153.709091,55.090909 C157.981818,64.563636 160.163636,74.654545 160.163636,85.054545 C160.163636,125.254545 127.454545,157.963636 87.2363636,157.963636 C47.0363636,157.963636 14.3272727,125.254545 14.3272727,85.054545 C14.3272727,74.145455 16.6909091,63.636364 21.3272727,53.836364 L22.0363636,52.345455 L20.4727273,51.781818 C10.5090909,48.2727273 3.8,38.7454545 3.8,28.2 C3.8,14.3818182 15.0545455,3.1272727 28.8545455,3.1272727 C39.1454545,3.1272727 48.5454545,9.5818182 52.2545455,19.1818182 L52.8545455,20.7454545 L54.3454545,20 C64.6363636,14.7818182 75.7090909,12.1454545 87.2545455,12.1454545 C100.490909,12.1454545 113.454545,15.7272727 124.745455,22.5090909 L126.436364,23.5454545 L126.963636,21.6363636 C129.909091,10.7272727 139.854545,3.1272727 151.145455,3.1272727 C164.963636,3.1272727 176.2,14.3818182 176.2,28.2 C176.2,40.4909091 167.018182,51.145455 154.854545,52.945455 Z" id="Shape"></path>
            <path d="M136.581818,26.2545455 L154.581818,44.0181818 C159.490909,39.0545455 159.418182,31.0545455 154.454545,26.1272727 C149.490909,21.2363636 141.490909,21.2727273 136.581818,26.2545455 Z" id="Shape"></path>
            <path d="M21.4363636,26.1090909 C16.4727273,31.0363636 16.4,39.0363636 21.2909091,44 L39.2909091,26.2363636 C34.4,21.2727273 26.4,21.2363636 21.4363636,26.1090909 Z" id="Shape"></path>
            <path d="M89.1090909,79.8 C68.6,79.8 51.9090909,96.490909 51.9090909,117.018182 C51.9090909,137.509091 68.6,154.2 89.1090909,154.2 C109.618182,154.2 126.309091,137.509091 126.309091,117.018182 C126.327273,96.490909 109.636364,79.8 89.1090909,79.8 Z M89.1090909,151.218182 C70.2545455,151.218182 54.9090909,135.872727 54.9090909,117.018182 C54.9090909,98.163636 70.2727273,82.818182 89.1090909,82.818182 C107.981818,82.818182 123.309091,98.163636 123.309091,117.018182 C123.309091,135.872727 107.981818,151.218182 89.1090909,151.218182 Z" id="Shape"></path>
            <path d="M88.4909091,114.145455 C99.2727273,114.145455 101.781818,97.6 101.781818,97.6 C101.781818,97.6 99.2727273,92.090909 89.1090909,92.090909 C78.9636364,92.090909 75.2181818,97.6 75.2181818,97.6 C75.2181818,97.6 77.7272727,114.145455 88.4909091,114.145455 Z" id="Shape"></path>
            <path d="M58.4363636,81.290909 C58.4363636,76.6 54.6181818,72.8 49.9090909,72.8 C45.2,72.8 41.4,76.6 41.4,81.290909 C41.4,86.018182 45.2,89.818182 49.9090909,89.818182 C54.6181818,89.818182 58.4363636,86.018182 58.4363636,81.290909 Z M48.5272727,83.309091 C46.8,83.309091 45.4,81.890909 45.4,80.181818 C45.4,78.436364 46.8,77.054545 48.5272727,77.054545 C50.2727273,77.054545 51.6727273,78.436364 51.6727273,80.181818 C51.6727273,81.890909 50.2727273,83.309091 48.5272727,83.309091 Z" id="Shape"></path>
            <path d="M124.818182,72.8 C120.109091,72.8 116.309091,76.6 116.309091,81.290909 C116.309091,86.018182 120.109091,89.818182 124.818182,89.818182 C129.527273,89.818182 133.345455,86.018182 133.345455,81.290909 C133.345455,76.6 129.527273,72.8 124.818182,72.8 Z M123.436364,83.309091 C121.709091,83.309091 120.309091,81.890909 120.309091,80.181818 C120.309091,78.436364 121.709091,77.054545 123.436364,77.054545 C125.181818,77.054545 126.581818,78.436364 126.581818,80.181818 C126.581818,81.890909 125.181818,83.309091 123.436364,83.309091 Z" id="Shape"></path>
            <path d="M97.3454545,128.163636 C93.4363636,128.163636 90.4545455,130.181818 88.5090909,132.672727 C86.8,130.472727 83.9818182,128.163636 79.6545455,128.163636 C71.8545455,128.163636 67.6,135.872727 67.4363636,136.181818 C66.8363636,137.290909 67.2545455,138.636364 68.3454545,139.236364 C69.4,139.872727 70.8181818,139.454545 71.4181818,138.345455 C71.4363636,138.272727 74.5818182,132.690909 79.6545455,132.690909 C84.1636364,132.690909 86.0363636,137.127273 86.3636364,138.018182 C86.7090909,138.909091 87.5454545,139.509091 88.5090909,139.509091 C89.4909091,139.509091 90.3454545,138.909091 90.6545455,137.981818 C90.6727273,137.909091 92.5090909,132.690909 97.3454545,132.690909 C102.418182,132.690909 105.545455,138.272727 105.581818,138.345455 C106.2,139.454545 107.6,139.872727 108.672727,139.236364 C109.763636,138.636364 110.181818,137.290909 109.581818,136.181818 C109.4,135.872727 105.145455,128.163636 97.3454545,128.163636 Z" id="Shape"></path>
            <path d="M59.1636364,53.454545 C58.3454545,52.527273 56.8909091,52.454545 55.9636364,53.309091 L33.5272727,73.945455 C32.6,74.8 32.5272727,76.254545 33.3818182,77.163636 C33.8181818,77.618182 34.4363636,77.872727 35.0545455,77.872727 C35.6,77.872727 36.1636364,77.690909 36.5818182,77.272727 L59.0181818,56.636364 C59.9636364,55.8 60.0181818,54.381818 59.1636364,53.454545 Z" id="Shape"></path>
            <path d="M122.309091,53.309091 C121.4,52.454545 119.963636,52.527273 119.109091,53.454545 C118.254545,54.381818 118.309091,55.8 119.236364,56.654545 L141.672727,77.290909 C142.109091,77.709091 142.654545,77.890909 143.2,77.890909 C143.818182,77.890909 144.418182,77.636364 144.872727,77.181818 C145.727273,76.254545 145.654545,74.8 144.745455,73.945455 L122.309091,53.309091 Z" id="Shape"></path>
            <path d="M57.5090909,42.2727273 C59.8181818,42.2727273 61.7090909,40.3818182 61.7090909,38.0545455 C61.7090909,36.7454545 57.5090909,30.3454545 57.5090909,30.3454545 C57.5090909,30.3454545 53.2909091,36.7272727 53.2909091,38.0363636 C53.2909091,40.3818182 55.1818182,42.2727273 57.5090909,42.2727273 Z" id="Shape"></path>
            <path d="M69.4181818,58.981818 C71.7272727,58.981818 73.6181818,57.090909 73.6181818,54.763636 C73.6181818,53.454545 69.4181818,47.0545455 69.4181818,47.0545455 C69.4181818,47.0545455 65.2181818,53.454545 65.2181818,54.763636 C65.2181818,57.109091 67.0909091,58.981818 69.4181818,58.981818 Z" id="Shape"></path>
            <path d="M36.8909091,60.727273 C36.8909091,59.418182 32.6909091,53.018182 32.6909091,53.018182 C32.6909091,53.018182 28.4727273,59.418182 28.4727273,60.727273 C28.4727273,63.072727 30.3636364,64.945455 32.6727273,64.945455 C35,64.963636 36.8909091,63.072727 36.8909091,60.727273 Z" id="Shape"></path>
            <path d="M113.854545,36.2909091 C116.163636,36.2909091 118.054545,34.4 118.054545,32.0727273 C118.054545,30.7636364 113.854545,24.3636364 113.854545,24.3636364 C113.854545,24.3636364 109.654545,30.7636364 109.654545,32.0727273 C109.654545,34.4181818 111.527273,36.2909091 113.854545,36.2909091 Z" id="Shape"></path>
            <path d="M133.345455,53.018182 C135.654545,53.018182 137.545455,51.127273 137.545455,48.8 C137.545455,47.4909091 133.345455,41.0909091 133.345455,41.0909091 C133.345455,41.0909091 129.127273,47.4909091 129.127273,48.8 C129.127273,51.145455 131.018182,53.018182 133.345455,53.018182 Z" id="Shape"></path>
            <path d="M109.654545,68.327273 C111.963636,68.327273 113.854545,66.436364 113.854545,64.145455 C113.854545,62.8 109.654545,56.4 109.654545,56.4 C109.654545,56.4 105.436364,62.781818 105.436364,64.145455 C105.436364,66.454545 107.327273,68.327273 109.654545,68.327273 Z" id="Shape"></path>
        </g>
    </g>
</svg>