<?xml version="1.0" encoding="UTF-8"?>
<svg width="41px" height="34px" viewBox="0 0 41 34" version="1.1" xmlns="http://www.w3.org/2000/svg" xmlns:xlink="http://www.w3.org/1999/xlink">
    <!-- Generator: Sketch 45 (43475) - http://www.bohemiancoding.com/sketch -->
    <title>Shape</title>
    <desc>Created with Sketch.</desc>
    <defs></defs>
    <g id="404" stroke="none" stroke-width="1" fill="none" fill-rule="evenodd">
        <g transform="translate(-695.000000, -375.000000)" id="error-bear-bee-404" fill="#1F1418">
            <g transform="translate(310.000000, 330.000000)">
                <g id="Bear" transform="translate(320.000000, 36.000000)">
                    <g id="Group">
                        <g id="BellaBee" transform="translate(83.000000, 26.109091) rotate(-90.000000) translate(-83.000000, -26.109091) translate(57.000000, 0.109091)">
                            <path d="M42.454027,18.4324281 C40.8909071,16.8110809 37.6878284,16.2052696 35.0278869,17.6091654 C34.8945502,17.4390194 34.7582014,17.2818436 34.6188389,17.1414543 C34.4704363,16.9911463 34.3122408,16.8568601 34.1480194,16.7302048 C35.5137724,14.0048161 34.765734,10.6049476 33.019559,8.87678284 C31.4790378,7.35309853 29.3931197,7.26382909 27.5753796,8.64407196 C27.0766876,9.02327629 26.9749913,9.74124672 27.3493868,10.2471069 C27.7245357,10.752967 28.4326477,10.8544442 28.9320931,10.4760029 C29.8714718,9.76032136 30.6925814,9.77481815 31.4398656,10.5149151 C32.5788723,11.6418464 33.0120264,14.0376245 32.0575809,15.8069904 C31.6861983,15.7367969 31.29523,15.698647 30.8824157,15.698647 C29.0737158,15.698647 27.2710424,16.3830458 26.1945607,16.7927698 L25.9685671,16.8782243 C24.9975495,17.2429314 24.0694705,17.6259511 23.1790567,18.0272819 C20.8392719,17.4077366 18.3262262,16.9575749 16.0745793,16.9575749 C13.2059709,16.9575749 11.0884134,17.6801228 9.77991203,19.1053821 C8.67480462,20.3093753 8.18891899,21.9558999 8.33581468,24.0014676 C8.48421696,26.0584794 9.3316919,27.5394366 10.7863357,28.3649878 C10.5249367,28.8433807 10.2793573,29.3286398 10.0669235,29.8253446 C7.4544407,35.9391566 9.56823161,41.1587484 9.65938224,41.3792515 L9.83415042,41.8004196 L10.2477183,41.9835366 C10.3418821,42.0247373 12.5867492,43.0013611 15.844066,43.0013611 C18.1424185,43.0013611 20.7872939,42.5328868 23.4833939,41.1053391 C23.4969509,41.1328087 23.5059963,41.1625631 23.5203051,41.1900305 C24.0785084,42.2894942 25.295106,43.6422699 27.9188882,43.8360686 C28.1561815,43.8528535 28.3859414,43.8620076 28.608168,43.8620076 C30.9102867,43.8620076 32.682074,42.919719 33.73219,41.137382 C35.4806253,38.1686013 34.9502937,33.2847237 33.8700457,29.0219169 C34.4018833,27.8934597 34.9163954,26.6818371 35.4083075,25.3733153 C36.3318668,22.9164981 36.3838447,21.0624406 36.0305425,19.6722789 C37.7721978,18.7223601 39.8792084,19.0405257 40.8381736,20.0339344 C41.4513692,20.6695023 41.4099368,21.4691123 40.7131237,22.4083493 C40.3387282,22.9142089 40.4404253,23.6321797 40.9391173,24.011384 C41.1432649,24.1655074 41.3805574,24.2402803 41.6163439,24.2402803 C41.959854,24.2402803 42.2988437,24.0823414 42.5210702,23.7824877 C44.1512355,21.5789827 43.5553669,19.5746164 42.4540226,18.4324259 L42.454027,18.4324281 Z M31.7916625,39.9631478 C31.0737569,41.1831635 29.8895515,41.6867353 28.0838652,41.551686 C26.3730953,41.4257938 25.8073587,40.6864595 25.5301406,40.141687 C25.4917255,40.0661511 25.470627,39.9761187 25.4374829,39.8960051 C25.1399249,39.1704048 25.0593211,38.2548213 25.145198,37.213344 C25.2039596,36.4938477 25.3335263,35.7224682 25.5293871,34.9106503 C25.8435179,33.611284 26.3105704,32.2264631 26.849188,30.8523247 C27.2507025,29.8291593 27.6898832,28.8151502 28.1411163,27.8453942 C28.7505456,26.5353461 29.3750401,25.3092264 29.9385165,24.2700384 L29.9995339,24.3318395 C30.8485152,26.451417 31.7366687,29.3370323 32.2263212,32.143297 C32.7649388,35.2303412 32.8206838,38.2159075 31.791661,39.963147 L31.7916625,39.9631478 Z M10.5904747,23.8343732 C10.4895311,22.429715 10.7652429,21.3928163 11.4349365,20.6634006 C12.2989843,19.7226382 13.8605982,19.2457715 16.0753327,19.2457715 C17.3054895,19.2457715 18.6358373,19.3983687 19.9744712,19.6440507 C22.7737751,20.1590665 25.6017049,21.0868587 27.6040055,21.906306 L27.6461951,21.9490374 C26.7083224,22.4693941 25.4841922,23.1179323 24.1184392,23.771812 C23.18132,24.2212114 22.1779094,24.6706107 21.1519003,25.0833863 C19.8140191,25.6228179 18.4422396,26.0912914 17.1359988,26.41022 C16.2531177,26.6253822 15.4033829,26.7680608 14.6131595,26.8138401 C14.4346249,26.8245248 14.2523239,26.8374943 14.0805685,26.8374943 C13.2172743,26.8374943 12.5317612,26.7100752 12.0036901,26.4399782 C11.1275856,25.9913367 10.685392,25.1482359 10.5904747,23.8343732 L10.5904747,23.8343732 Z M25.8156455,25.4900542 L26.4371271,26.1195181 C25.9911664,27.0412064 25.5369198,28.0430076 25.1052732,29.0867733 L22.8852651,26.8382513 C23.9150413,26.4002976 24.9063987,25.9394535 25.8156455,25.4900542 L25.8156455,25.4900542 Z M18.9755804,28.2726669 L23.696581,33.0550666 C23.3447849,34.2697415 23.078113,35.4752608 22.9515563,36.615926 L15.4689178,29.0379425 C16.5860778,28.9067087 17.7732961,28.6343224 18.9755804,28.2726669 L18.9755804,28.2726669 Z M17.3288423,40.6330501 L11.1531982,34.3780857 C11.2895475,33.3114303 11.5682725,32.1600835 12.0496384,30.9698244 L20.7782537,39.8105505 C19.5857623,40.2622391 18.4249097,40.5178397 17.3288423,40.6330501 L17.3288423,40.6330501 Z M33.2967779,24.5569218 C33.156662,24.928496 33.0150393,25.2901515 32.8719105,25.6449407 C32.2790541,23.8870195 31.6718857,22.4266627 31.231199,21.5339688 C31.1754525,21.320332 31.0624572,21.1288225 30.9012488,20.9792776 C30.7543529,20.8159979 30.5630118,20.7015497 30.3513315,20.6458519 C29.4563981,20.187297 28.1486496,19.6287912 26.6043621,19.0824925 C26.6555896,19.0634153 26.7045523,19.0420533 26.7557776,19.0229761 L26.9893038,18.93447 C27.922656,18.5796815 29.4842706,17.9868405 30.8831691,17.9868405 C31.8082353,17.9868405 32.5073079,18.2393895 33.0210659,18.7597462 C34.1999974,19.954583 34.2934085,21.9047768 33.2967779,24.5569188 L33.2967779,24.5569218 Z" id="Shape" transform="translate(25.918400, 25.765058) rotate(-45.000000) translate(-25.918400, -25.765058) "></path>
                        </g>
                    </g>
                </g>
            </g>
        </g>
    </g>
</svg>