<svg id="Layer_1" data-name="Layer 1" xmlns="http://www.w3.org/2000/svg" viewBox="0 0 64 64"><defs><style>.cls-1{fill:#282c19;}.cls-2{fill:#ffd939;}.cls-3,.cls-4{fill:none;stroke:#ffd939;stroke-miterlimit:10;stroke-width:2px;}.cls-4{stroke-linecap:round;}</style></defs><title>Artboard 4</title><path class="cls-1" d="M18.57,52.66a.78.78,0,0,1-.61-.3A12.93,12.93,0,0,1,17,51a.77.77,0,0,1,1.33-.8,11.42,11.42,0,0,0,.83,1.2.78.78,0,0,1-.61,1.25Zm-2.08-4.12a.78.78,0,0,1-.75-.59,8.78,8.78,0,0,1-.25-1.68.77.77,0,0,1,.73-.81.74.74,0,0,1,.81.73,7.29,7.29,0,0,0,.21,1.38.78.78,0,0,1-.56.94ZM16.77,44a.77.77,0,0,1-.72-1.07,8.19,8.19,0,0,1,.81-1.5.78.78,0,1,1,1.28.87,6.63,6.63,0,0,0-.66,1.22A.77.77,0,0,1,16.77,44Zm2.88-3.59A.78.78,0,0,1,19.17,39a15.84,15.84,0,0,1,1.34-.93.78.78,0,1,1,.82,1.32,14,14,0,0,0-1.21.84A.77.77,0,0,1,19.65,40.38Zm4-2.34a.78.78,0,0,1-.32-1.48c.52-.23,1-.43,1.51-.6a.77.77,0,1,1,.5,1.47c-.44.15-.9.33-1.37.55A.77.77,0,0,1,23.66,38Zm10.17-1.28-1.09,0a.77.77,0,0,1,0-1.55h0l1.08,0h.43a.76.76,0,0,1,.79.76.78.78,0,0,1-.76.79h-.5Zm3.55-.41a.77.77,0,0,1-.2-1.52,10.27,10.27,0,0,0,1.36-.47.77.77,0,1,1,.61,1.43,11.7,11.7,0,0,1-1.57.54Zm4.16-2a.77.77,0,0,1-.45-1.41c.35-.25.75-.55,1.16-.91a.78.78,0,0,1,1,1.17c-.45.39-.89.73-1.28,1A.77.77,0,0,1,41.54,34.34Zm3.31-3.24a.77.77,0,0,1-.63-1.22A10.07,10.07,0,0,0,45,28.64a.77.77,0,1,1,1.38.7,11.55,11.55,0,0,1-.86,1.42A.77.77,0,0,1,44.85,31.09Zm1.74-5-.77-.1,0-.14a8.42,8.42,0,0,0,.07-1.08v-.21a.78.78,0,0,1,1.55,0v.24A9.91,9.91,0,0,1,47.37,26Zm-.47-3.81a.77.77,0,0,1-.73-.52,10.32,10.32,0,0,0-.57-1.33.78.78,0,0,1,1.38-.71,12.12,12.12,0,0,1,.65,1.52.78.78,0,0,1-.48,1A.79.79,0,0,1,46.12,22.25Zm.11,4.49a.77.77,0,0,1-.41-.8,10.32,10.32,0,0,0,.12-1.44.78.78,0,0,1,1.55,0,12.12,12.12,0,0,1-.13,1.65.78.78,0,0,1-.88.65A.79.79,0,0,1,46.23,26.74Zm-2.47-8.47a.78.78,0,0,1-.58-.26,11.39,11.39,0,0,0-1-1,.78.78,0,0,1,1-1.17A13.42,13.42,0,0,1,44.34,17a.78.78,0,0,1-.58,1.29Zm-3.69-2.78a.76.76,0,0,1-.33-.07,10.47,10.47,0,0,0-1.34-.52.78.78,0,1,1,.46-1.48,12,12,0,0,1,1.54.6.77.77,0,0,1-.33,1.48ZM31.13,15l-.54-1.45.17-.06A.77.77,0,1,1,31.24,15L31,14.24ZM34,14.43A.78.78,0,0,1,34,12.89a9.3,9.3,0,0,1,1.11,0h.53a.77.77,0,1,1-.06,1.55H35c-.33,0-.65,0-.95,0Z"/><polygon class="cls-2" points="31.8 13.85 30.69 16.12 27.83 17.01 25.94 15.69 26.73 13.52 29.59 12.62 31.8 13.85"/><path class="cls-1" d="M32.34,13.68,31,16.45l-3.22,1-2.31-1.62,1-2.66,3.22-1Zm-1.94,2.1L31.26,14l-1.72-1-2.5.78-.62,1.68,1.47,1Z"/><path class="cls-1" d="M27.87,11.37a.41.41,0,0,1,0,.26l-1.43,3.9,3.4,2.38a.41.41,0,0,1-.47.67l-3.77-2.64-.08-.27,0-.14,1.54-4.19a.41.41,0,0,1,.78,0Z"/><line class="cls-2" x1="29.08" y1="16.59" x2="27.99" y2="13.12"/><rect class="cls-1" x="28.12" y="13.04" width="0.82" height="3.64" transform="matrix(0.95, -0.3, 0.3, 0.95, -3.14, 9.23)"/><line class="cls-2" x1="30.65" y1="16.1" x2="29.56" y2="12.63"/><rect class="cls-1" x="29.69" y="12.55" width="0.82" height="3.64" transform="translate(-2.92 9.67) rotate(-17.42)"/><circle class="cls-3" cx="41.17" cy="34.32" r="12.8"/><path class="cls-4" d="M30.72,23.27a12.79,12.79,0,1,0,.2,22"/><path class="cls-4" d="M34.29,26.35a12.8,12.8,0,0,1,0,16"/><path class="cls-1" d="M28.12,37.79A.77.77,0,0,1,28,36.25c.55-.06,1.09-.1,1.62-.11a.79.79,0,0,1,.79.76.78.78,0,0,1-.76.79c-.48,0-1,0-1.48.1Z"/></svg>