<?xml version="1.0" encoding="UTF-8"?>
<svg width="91px" height="91px" viewBox="0 0 91 91" version="1.1" xmlns="http://www.w3.org/2000/svg" xmlns:xlink="http://www.w3.org/1999/xlink">
    <!-- Generator: Sketch 43.2 (39069) - http://www.bohemiancoding.com/sketch -->
    <title>placeholder-bee</title>
    <desc>Created with Sketch.</desc>
    <defs></defs>
    <g id="Who" stroke="none" stroke-width="1" fill="none" fill-rule="evenodd">
        <g transform="translate(-588.000000, -1214.000000)" id="placeholder-bee" fill="#FFFFFF">
            <g transform="translate(588.000000, 1214.000000)">
                <g id="Layer_1">
                    <g id="Group">
                        <path d="M45.457926,90.9162361 C20.3923837,90.9162361 0,70.5238524 0,45.4563891 C0,20.3927679 20.3923837,0 45.457926,0 C70.5215471,0 90.9143151,20.3923837 90.9143151,45.4563891 C90.9143151,70.5238524 70.5219314,90.9162361 45.457926,90.9162361 Z M74.0356464,75.682479 C72.9968022,76.6653609 71.9074875,77.5954129 70.7720474,78.4682878 C54.3968543,71.3782316 53.4912947,68.4822689 53.0933514,67.2069587 C53.0372566,67.0194638 53.0069039,66.8281267 53.0069039,66.6329475 L53.0069039,62.8169637 C53.0069039,62.3140315 53.2020831,61.8337677 53.5547888,61.473762 C55.8811865,59.0912695 57.6858256,55.7820601 58.7700691,51.9022973 C58.889943,51.4746704 59.1527433,51.1031384 59.5131332,50.8480222 C60.4586765,50.1837214 61.0926247,49.1332885 61.2539933,47.9664397 C61.419204,46.7807645 61.0853247,45.6100735 60.3195921,44.6645302 C60.0383497,44.3210456 59.8881232,43.8934187 59.8881232,43.4527287 L59.8881232,34.9109494 C59.8881232,26.4502387 54.9729117,21.9776383 45.6715473,21.9776383 C36.501583,21.9776383 31.4511293,26.5701126 31.4511293,34.9109494 L31.4511293,43.4561866 C31.4511293,43.8968766 31.2989817,44.3248877 31.0215814,44.6679881 C30.256233,45.6096893 29.9242747,46.7803803 30.0871802,47.9622133 C30.2485488,49.1290622 30.882497,50.1794951 31.8280403,50.8437959 C32.1899671,51.098912 32.4527674,51.4742862 32.5711044,51.8980709 C33.6553479,55.7812916 35.4603712,59.0908853 37.7902268,61.4733778 C38.1410114,61.8337677 38.3381117,62.3140315 38.3381117,62.8165795 L38.3381117,66.6325633 C38.3381117,66.8277425 38.3081432,67.0190796 38.2516642,67.2027324 C37.5888942,69.3267507 34.8851682,72.3331175 20.2736913,78.5682842 C19.1301519,77.6963438 18.0329366,76.7666028 16.9864437,75.7834602 C31.4257215,69.7625038 34.0287321,67.0464217 34.4956173,66.246047 L34.4956173,63.5784699 C32.1054406,60.9331771 30.2370225,57.4925675 29.0494262,53.5490257 C27.5525401,52.276903 26.556281,50.4684218 26.2823385,48.4874298 C26.0026329,46.4764693 26.4736756,44.4916353 27.6086349,42.8218542 L27.6086349,34.9109494 C27.6086349,24.4070046 34.3603751,18.1355282 45.6711631,18.1355282 C57.1486986,18.1355282 63.7298491,24.2494781 63.7298491,34.9109494 L63.7298491,42.8183963 C64.8705716,44.4916353 65.339309,46.4803115 65.0619087,48.495114 C64.7879662,50.4722639 63.789786,52.2811293 62.2890578,53.5528678 C61.1033826,57.4925675 59.2349644,60.9331771 56.8486298,63.5784699 L56.8486298,66.2199206 C57.2946421,66.8891263 59.8759412,69.6972689 74.0356494,75.6824762 Z" id="Combined-Shape"></path>
                    </g>
                </g>
            </g>
        </g>
    </g>
</svg>