<svg id="Layer_1" data-name="Layer 1" xmlns="http://www.w3.org/2000/svg" viewBox="0 0 64 64"><defs><style>.cls-1,.cls-2{fill:none;stroke-linecap:round;stroke-linejoin:round;stroke-width:2px;}.cls-1{stroke:#282c19;}.cls-2{stroke:#ffd939;}</style></defs><title>CustomSolutionsArtboard 20</title><path class="cls-1" d="M34.79,48.57l10.65-6.15a5.58,5.58,0,0,0,2.79-4.83V25.29a5.58,5.58,0,0,0-2.79-4.83l-7.5-4.33"/><path class="cls-1" d="M26.06,16.12l-7.5,4.33a5.58,5.58,0,0,0-2.79,4.83v12.3a5.58,5.58,0,0,0,2.79,4.83l10.65,6.15"/><line class="cls-1" x1="29.21" y1="14.31" x2="26.06" y2="16.12"/><line class="cls-1" x1="37.94" y1="16.12" x2="34.79" y2="14.31"/><path class="cls-2" d="M34.79,43.37l7.13-4.12a3.61,3.61,0,0,0,1.8-3.12V26.75a3.61,3.61,0,0,0-1.8-3.12l-7.13-4.12"/><path class="cls-2" d="M29.21,19.51l-7.13,4.12a3.61,3.61,0,0,0-1.8,3.12v9.37a3.61,3.61,0,0,0,1.8,3.12l7.13,4.12"/><path class="cls-1" d="M34.79,38.21l3.35-1.93a2.24,2.24,0,0,0,1.12-1.94v-5.8a2.24,2.24,0,0,0-1.12-1.94l-3.35-1.93"/><path class="cls-1" d="M29.21,24.67,25.86,26.6a2.24,2.24,0,0,0-1.12,1.94v5.8a2.24,2.24,0,0,0,1.12,1.94L29.2,38.2"/></svg>