<svg id="Layer_1" data-name="Layer 1" xmlns="http://www.w3.org/2000/svg" viewBox="0 0 64 64"><defs><style>.cls-1,.cls-2{fill:none;stroke-miterlimit:10;stroke-width:2px;}.cls-1{stroke:#282c19;stroke-linecap:round;}.cls-2{stroke:#ffd939;}</style></defs><title>Artboard 13 copy 20</title><path class="cls-1" d="M25.7,37.62A51.25,51.25,0,0,0,32,38c9.94,0,18-2.69,18-6s-8.06-6-18-6-18,2.69-18,6c0,1.83,2.45,3.47,6.32,4.57"/><path class="cls-1" d="M29.93,24.2A51.78,51.78,0,0,0,26.8,29c-5,8.61-6.67,16.93-3.8,18.59s9.23-4,14.2-12.59S43.87,18.07,41,16.41c-1.56-.9-4.16.36-7,3.08"/><path class="cls-1" d="M41.7,39.47c1.08,4.08.93,7.17-.7,8.11-2.87,1.66-9.23-4-14.2-12.59S20.13,18.07,23,16.41s9.23,4,14.2,12.59a51.43,51.43,0,0,1,2.75,5.47"/><circle class="cls-2" cx="32" cy="32" r="2"/></svg>