<?xml version="1.0" standalone="no"?>
<!DOCTYPE svg PUBLIC "-//W3C//DTD SVG 20010904//EN"
 "http://www.w3.org/TR/2001/REC-SVG-20010904/DTD/svg10.dtd">
<svg version="1.0" xmlns="http://www.w3.org/2000/svg"
 width="260.000000pt" height="260.000000pt" viewBox="0 0 260.000000 260.000000"
 preserveAspectRatio="xMidYMid meet">
<metadata>
Created by potrace 1.11, written by Peter Selinger 2001-2013
</metadata>
<g transform="translate(0.000000,260.000000) scale(0.100000,-0.100000)"
fill="#000000" stroke="none">
<path d="M1245 2575 c-172 -93 -523 -301 -517 -306 4 -3 113 -42 242 -84 386
-128 541 -197 735 -328 108 -73 277 -240 324 -320 43 -74 85 -190 102 -287 20
-109 18 -598 -2 -702 -8 -43 -14 -78 -13 -78 1 0 64 35 140 79 95 54 146 89
162 111 l22 34 -2 627 -3 627 -24 26 c-13 14 -103 69 -200 122 -97 54 -329
185 -516 292 -361 207 -390 219 -450 187z"/>
<path d="M355 2069 c-88 -49 -168 -98 -178 -108 -18 -18 -16 -19 63 -40 649
-175 1013 -671 856 -1166 -46 -143 -155 -301 -282 -406 -35 -29 -64 -56 -64
-60 0 -10 470 -277 502 -284 40 -10 111 30 171 95 119 130 192 254 226 385 44
166 52 526 16 727 -56 321 -246 547 -610 723 -117 57 -519 226 -537 225 -1 0
-75 -41 -163 -91z"/>
<path d="M162 1248 c3 -568 3 -573 24 -603 19 -26 112 -83 359 -221 l44 -25
58 73 c73 92 135 211 165 314 31 112 32 278 0 387 -43 152 -120 274 -248 398
-44 41 -108 95 -143 119 -66 44 -231 130 -250 130 -8 0 -11 -160 -9 -572z"/>
</g>
</svg>
