<?xml version="1.0" encoding="UTF-8"?>
<svg width="167px" height="49px" viewBox="0 0 167 49" version="1.1" xmlns="http://www.w3.org/2000/svg" xmlns:xlink="http://www.w3.org/1999/xlink">
    <!-- Generator: Sketch 47 (45396) - http://www.bohemiancoding.com/sketch -->
    <title>OldCastle-logo-main</title>
    <desc>Created with Sketch.</desc>
    <defs></defs>
    <g id="Promo-Posters" stroke="none" stroke-width="1" fill="none" fill-rule="evenodd">
        <g id="oldcastle-building-solutions-logo-new-3" fill-rule="nonzero" fill="#006633">
            <g id="OldCastle-logo-main">
                <path d="M41.1273779,7.154 L41.1273779,9.7696281 L38.1531103,8.35591736 L38.1531103,5.6653719 L34.1458091,3.68228926 L34.1458091,6.37404959 L31.2074902,4.8578843 L31.2074902,2.21998347 L27.6173529,0.381876033 L14.0216038,6.83894215 L17.9491066,8.87871901 L17.9491066,11.5174298 L20.9411511,13.0493884 L20.9411511,10.3665372 L22.9688993,11.3931074 L24.8544324,12.3488099 L24.8544324,15.0324711 L27.8448968,16.5194793 L27.8448968,13.8548512 L32.1263568,15.9727851 L32.1263568,41.924157 L45.3163982,35.2480083 L45.3163982,9.24844628 L41.1273779,7.154 L41.1273779,7.154 Z M13.832774,33.3171653 L13.832774,6.93653719 L0,13.5005124 L0,40.0402893 L17.9491066,49 L31.9150096,41.9715372 L13.832774,33.3171653 L13.832774,33.3171653 Z M156.056018,25.0811157 L156.110929,25.0811157 C156.681764,25.0811157 157.188602,25.2925041 157.635394,25.7330992 C158.077445,26.1724793 158.300644,26.6827273 158.300644,27.2699174 L153.810602,27.2699174 C153.810602,25.823 154.559996,25.0993388 156.056018,25.0811157 L156.056018,25.0811157 Z M158.108259,31.2210992 C157.721118,31.9702727 157.103273,32.3436446 156.254329,32.3436446 C156.187172,32.3436446 156.120805,32.3420248 156.056018,32.3347355 C155.458715,32.2938347 154.945951,32.0605785 154.514566,31.6268678 C154.046837,31.1571157 153.810602,30.5622314 153.810602,29.8624628 L163.201529,29.8624628 C163.201529,28.0296198 162.829795,26.4834876 162.085142,25.2236612 C161.861943,24.8494793 161.604376,24.4959504 161.315996,24.1715785 C160.02658,22.7311405 158.274176,21.990876 156.056018,21.9600992 L155.904717,21.9576694 C153.859982,21.9576694 152.181056,22.5841405 150.855691,23.8370826 C149.531512,25.0900248 148.864287,26.7649339 148.864287,28.8395372 C148.864287,30.919 149.546919,32.5546281 150.911392,33.7468264 C152.181056,34.8641074 153.842995,35.4164711 155.904717,35.4164711 L156.056018,35.4156612 C158.984066,35.3860992 160.994037,34.5425702 162.085142,32.8814298 C162.40236,32.398719 162.644521,31.8451405 162.806488,31.2210992 L158.108259,31.2210992 L158.108259,31.2210992 Z" id="Shape"></path>
                <polygon id="Shape" points="142.963 17.574 147.915 17.574 147.915 35.084 142.963 35.084"></polygon>
                <path d="M141.917087,25.2678017 L139.542097,25.2678017 L139.542097,29.8624628 C139.542097,30.674 139.757395,31.1720992 140.169423,31.3421818 C140.358648,31.4243884 140.923162,31.4656942 141.867707,31.4656942 L141.867707,35.0848099 C140.469655,35.1500083 139.549998,35.181595 139.105576,35.181595 C137.259152,35.181595 136.044005,34.8794959 135.466059,34.2696281 C134.885743,33.6674545 134.591042,32.4497438 134.591042,30.6035372 L134.591042,25.2678017 L132.832712,25.2678017 L132.832712,22.3391405 L134.687432,22.3391405 L134.687432,18.4025372 L139.542097,18.4025372 L139.542097,22.3391405 L141.917087,22.3391405 L141.917087,25.2678017 L141.917087,25.2678017 Z M132.688522,30.9870331 C132.688522,33.937157 130.453377,35.4156612 125.970446,35.4156612 C122.050054,35.4156612 119.972925,33.9849421 119.742221,31.1311983 L124.464942,31.1311983 C124.464942,32.1800413 125.026692,32.6996033 126.160856,32.6996033 C127.216407,32.6996033 127.742602,32.3023388 127.742602,31.5146942 C127.742602,30.9870331 127.082093,30.5845041 125.764234,30.3172314 C123.843937,29.9033636 122.613383,29.5688678 122.090348,29.3190083 C120.776045,28.6666198 120.11593,27.6270909 120.11593,26.1971818 C120.11593,24.6903306 120.764589,23.5681901 122.067831,22.8348099 C123.107975,22.2512645 124.423463,21.9576694 126.018246,21.9576694 C129.890048,21.9576694 131.936758,23.3094215 132.158376,26.0080661 L127.692432,26.0080661 C127.631595,25.1604876 127.137793,24.7482397 126.206681,24.7482397 C125.287419,24.7482397 124.835491,25.0551983 124.835491,25.6751901 C124.835491,26.1125455 125.518123,26.4883471 126.884572,26.7872066 C128.77287,27.2205124 130.025942,27.5861901 130.643787,27.8858595 C132.007865,28.5856281 132.688522,29.6170579 132.688522,30.9870331 L132.688522,30.9870331 Z M112.121475,32.5833802 C112.016789,32.5959339 111.906177,32.6036281 111.793591,32.6036281 C110.768853,32.6036281 110.263595,32.2383554 110.263595,31.5146942 C110.263595,30.8724298 110.761347,30.3670413 111.769098,29.9859752 L112.121475,29.8940496 C112.735765,29.7349008 113.35756,29.5729174 113.983306,29.4145785 C113.983306,31.3705289 113.363881,32.4323306 112.121475,32.5833802 L112.121475,32.5833802 Z M118.933571,33.2199752 L118.933571,27.2699174 C118.933571,25.0900248 118.416857,23.6337934 117.393699,22.8846198 C116.54515,22.2694876 114.982366,21.9576694 112.697841,21.9576694 C112.50348,21.9576694 112.30833,21.9633388 112.121475,21.9657686 C108.03161,22.0860413 105.985295,23.5143306 105.985295,26.2437521 L110.659426,26.2437521 C110.767668,25.5010579 111.26147,25.1041983 112.121475,25.0418347 C112.199693,25.0353554 112.285812,25.0313058 112.372326,25.0313058 C113.443284,25.0313058 113.983306,25.3739008 113.983306,26.0570661 C113.983306,26.528438 113.36151,26.8783223 112.121475,27.1010496 C111.991901,27.1289917 111.852452,27.1504545 111.705891,27.1715124 C109.563976,27.489405 108.159604,27.7971736 107.493564,28.106562 C105.977789,28.7747438 105.216149,29.9033636 105.216149,31.5146942 C105.216149,32.7660165 105.65346,33.7419669 106.519391,34.4441653 C107.325671,35.0929091 108.357914,35.4156612 109.611776,35.4156612 C110.537754,35.4156612 111.375637,35.2905289 112.121475,35.0313554 C112.940396,34.751124 113.651471,34.3170083 114.25944,33.7245537 L114.515822,35.0848099 L119.606722,35.0848099 L119.606722,34.848314 C119.15677,34.4340413 118.933571,33.8962562 118.933571,33.2199752 L118.933571,33.2199752 Z M104.759086,27.2205124 L99.7124307,27.2205124 C99.7124307,26.7159339 99.5390075,26.2777686 99.1961115,25.911686 C98.8567708,25.5447934 98.4423722,25.3658017 97.9410646,25.3658017 C96.4904721,25.3658017 95.7588552,26.5207438 95.7588552,28.8395372 C95.7588552,30.9870331 96.4904721,32.0581488 97.9410646,32.0581488 C99.0783891,32.0581488 99.7124307,31.4268182 99.8443746,30.1556529 L104.615686,30.1556529 C104.228545,33.6621901 102.004067,35.4164711 97.9410646,35.4164711 C95.880923,35.4164711 94.2083172,34.848314 92.9228521,33.7014711 C91.5417869,32.4829504 90.8587601,30.8299091 90.8587601,28.7488264 C90.8587601,26.6029504 91.5240101,24.9183223 92.8572752,23.6985868 C94.1439254,22.5035537 95.8406288,21.9086694 97.9410646,21.9086694 C99.8080308,21.9086694 101.32499,22.3176777 102.496288,23.1235455 C103.84259,24.0480661 104.599489,25.4152066 104.759086,27.2205124 L104.759086,27.2205124 Z M83.464768,31.8200331 C83.4185481,31.8216529 83.369958,31.8216529 83.3213679,31.8216529 C82.0212862,31.8216529 81.3694677,30.8465124 81.3694677,28.8865124 C81.3694677,26.9034298 82.0690863,25.911686 83.464768,25.911686 C84.8588695,25.911686 85.5573029,26.8860165 85.5573029,28.8395372 C85.5573029,30.7655207 84.8588695,31.7576694 83.464768,31.8200331 L83.464768,31.8200331 Z M85.3668929,17.5743967 L85.3668929,23.6256942 C84.8628199,22.9672314 84.2279882,22.4995041 83.464768,22.2322314 C82.9425231,22.050405 82.3598368,21.9576694 81.7171043,21.9576694 C80.0298819,21.9576694 78.7112333,22.7145372 77.766689,24.2436612 C76.96752,25.5447934 76.5618124,27.1140083 76.5618124,28.9355124 C76.5618124,30.8465124 77.005444,32.3744215 77.9128544,33.5386777 C78.8870268,34.7908099 80.2831035,35.4164711 82.0916036,35.4164711 C82.5735543,35.4164711 83.0314074,35.3476281 83.464768,35.2075124 C84.388375,34.9094628 85.2025556,34.2963554 85.9077047,33.368595 L85.9077047,35.0848099 L90.2693582,35.0848099 L90.2693582,17.5743967 L85.3668929,17.5743967 L85.3668929,17.5743967 Z" id="Shape"></path>
                <polygon id="Shape" points="70.473 17.574 75.421 17.574 75.421 35.084 70.473 35.084"></polygon>
                <path d="M60.4674257,31.1311983 L60.4342422,31.1311983 C58.215294,31.1311983 57.1135232,29.5688678 57.1135232,26.4551405 C57.1135232,23.2365289 58.1975171,21.6256033 60.3872323,21.6256033 L60.4674257,21.6256033 C62.7065211,21.6628595 63.8233034,23.274595 63.8233034,26.4551405 C63.8233034,29.5555041 62.7065211,31.1174298 60.4674257,31.1311983 L60.4674257,31.1311983 Z M66.948872,19.6332066 C65.3043141,17.9967686 63.1426469,17.1759174 60.4674257,17.169438 L60.4342422,17.169438 C57.7076656,17.169438 55.5333571,17.9744959 53.9140819,19.6 C52.2967819,21.2182149 51.4873418,23.4171405 51.4873418,26.1971818 C51.4873418,29.0922314 52.2726844,31.3660744 53.8429744,33.0539421 C55.4136595,34.7260165 57.6104854,35.564281 60.4342422,35.564281 L60.4674257,35.564281 C63.1726701,35.5561818 65.3438183,34.7037438 66.9733646,33.0102066 C68.6060712,31.311405 69.4238071,29.0602397 69.4238071,26.2437521 C69.4238071,23.4795041 68.5981703,21.2745041 66.948872,19.6332066 L66.948872,19.6332066 Z M164.979216,21.0007521 C164.871765,20.9400083 164.699922,20.9088264 164.463687,20.9088264 L164.101829,20.9088264 L164.101829,21.8058099 L164.485414,21.8058099 C164.665158,21.8058099 164.800262,21.7863719 164.889541,21.7499256 C165.057039,21.6827025 165.139603,21.5535207 165.139603,21.3631901 C165.139603,21.1841983 165.085877,21.0631157 164.979216,21.0007521 L164.979216,21.0007521 Z M164.519388,20.6099669 C164.818829,20.6099669 165.038472,20.6415537 165.179897,20.7010826 C165.427588,20.8071818 165.553211,21.0157355 165.553211,21.3267438 C165.553211,21.5474463 165.475388,21.7118595 165.317767,21.8163388 C165.234018,21.8701983 165.118271,21.9110992 164.96776,21.9349917 C165.15817,21.9657686 165.294064,22.0463554 165.382553,22.1767521 C165.469067,22.3091736 165.513312,22.4355207 165.513312,22.5606529 L165.513312,22.7408595 C165.513312,22.7987686 165.515287,22.8595124 165.520028,22.9251157 C165.524768,22.9899091 165.530299,23.0336446 165.540175,23.0530826 L165.555581,23.0842645 L165.15817,23.0842645 C165.15659,23.0761653 165.153429,23.0684711 165.150664,23.0603719 C165.149874,23.0510579 165.147504,23.0437686 165.145133,23.0312149 L165.137233,22.9534628 L165.137233,22.7566529 C165.137233,22.4727769 165.06099,22.2820413 164.909689,22.1913306 C164.818829,22.138281 164.661207,22.1111488 164.435244,22.1111488 L164.101829,22.1111488 L164.101829,23.0842645 L163.675974,23.0842645 L163.675974,20.6099669 L164.519388,20.6099669 L164.519388,20.6099669 Z M163.226812,20.4852397 C162.859818,20.863876 162.676914,21.3202645 162.676914,21.8564298 C162.676914,22.3974545 162.858238,22.8578926 163.224046,23.2373388 C163.59025,23.618 164.037042,23.8087355 164.561657,23.8087355 C165.085877,23.8087355 165.532274,23.618 165.900453,23.2373388 C166.267051,22.8578926 166.449956,22.3974545 166.449956,21.8564298 C166.449956,21.3202645 166.267051,20.863876 165.900453,20.4852397 C165.530299,20.1061983 165.084297,19.9146529 164.561657,19.9146529 C164.040992,19.9146529 163.596571,20.1061983 163.226812,20.4852397 L163.226812,20.4852397 Z M166.118911,23.4519669 C165.689106,23.8949917 165.169626,24.1148843 164.561657,24.1148843 C163.952898,24.1148843 163.436184,23.8949917 163.008749,23.4519669 C162.583289,23.0129917 162.371152,22.4804711 162.371152,21.8548099 C162.371152,21.2340083 162.584869,20.7051322 163.013884,20.2653471 C163.441319,19.8271818 163.958429,19.6072893 164.561657,19.6072893 C165.169626,19.6072893 165.689106,19.8271818 166.118911,20.2653471 C166.547136,20.7027025 166.760853,21.2323884 166.760853,21.8548099 C166.760853,22.4788512 166.547136,23.0097521 166.118911,23.4519669 L166.118911,23.4519669 Z" id="Shape"></path>
            </g>
        </g>
    </g>
</svg>