<svg height="47" viewBox="0 0 237 47" width="237" xmlns="http://www.w3.org/2000/svg"><g fill="none" fill-rule="nonzero"><path d="m112.1 19.64 3.65-3.14 4.36 1.6-1.76-3.43 1.96-3.41-4.33 1.31-2.31-3.18-.64 3.74-2.45 1.62 2.68 1.1z" fill="#eb6f24"/><path d="m124.88 10.47-2.27-2.55-3.32 1.22 1.34-2.61-1.49-2.59 3.29.99 1.76-2.42.49 2.85 1.86 1.23-2.04.84z" fill="#eb6f24"/><path d="m129.82 6.94 1.68-1.75 2.62.51-1.22-2.1 1.08-1.97-2.46.8-1.36-1.79-.32 2.14-2.33.71 2.07 1z" fill="#eb6f24"/><path d="m1.89 10.88c.05366839.779708.4166214 1.5056602 1.00816083 2.0164498s1.36263363.7640782 2.14183917.7035502c1.02793815-.0310824 1.97919575-.5513014 2.56-1.4l1.34 1c-.97740575 1.2865424-2.52620301 2.0085663-4.14 1.93-1.30544358.0502476-2.57136136-.453348-3.48556091-1.3865934-.91419955-.9332454-1.39158952-2.2092764-1.31443909-3.5134066-.04957296-1.29760652.43650902-2.55852548 1.34426445-3.48708364.90775542-.92855815 2.15733901-1.44308043 3.45573555-1.42291636 3.29 0 4.55 2.52 4.55 4.93v.63zm5.59-1.42c.06057648-.73474077-.20363076-1.45916022-.72300653-1.98238322-.51937577-.52322301-1.24182566-.79276925-1.97699347-.73761678-1.53399349-.00769449-2.80479636 1.18835527-2.89 2.72z" fill="#662d91"/><path d="m20.86 14.9h-1.77v-1.34c-.7805987 1.0216859-2.0047408 1.605851-3.29 1.57-2.6229016-.1184604-4.6884712-2.2794247-4.6884712-4.905 0-2.62557532 2.0655696-4.78653961 4.6884712-4.905 1.2766983-.03729217 2.4907488.55292311 3.25 1.58v-6.9h1.77zm-1.77-4.67c-.092637-1.67577016-1.5098857-2.96888967-3.1871083-2.90796652s-2.9969181 1.45345896-2.9677306 3.13153382c.0291876 1.6780749 1.3965122 3.0238742 3.0748389 3.0264327.8547268.0258101 1.6798476-.3143539 2.2680553-.9350276s.883594-1.462863.8119447-2.3149724z" fill="#662d91"/><path d="m31.8 14.9h-1.76v-1.44c-.6168723 1.1008886-1.8106167 1.7502544-3.07 1.67-.9454455.0554691-1.8673678-.3080903-2.5204723-.9939463-.6531045-.6858561-.9711548-1.6244508-.8695277-2.5660537v-6h1.78v5.52c0 1.75 1 2.4 2.12 2.4 1.48 0 2.6-1 2.6-3.11v-4.81h1.72z" fill="#662d91"/><path d="m41.18 8.04c-.590716-.66129152-1.4437146-1.02738535-2.33-1-1.93 0-2.91 1.55-2.91 3.31-.0468077.8246728.2484757 1.6321583.8162378 2.2320936s1.3577632.9392337 2.1837622.9379064c.8806021.0309691 1.7234065-.3588744 2.27-1.05l1.26 1.27c-1.4242598 1.345912-3.5034605 1.7357661-5.3185565.9972395-1.8150961-.7385266-3.0314628-2.4692818-3.1114435-4.4272395-.0687258-1.31860311.4215644-2.60509212 1.3504524-3.54349741s2.2103124-1.44178377 3.5295476-1.38650259c1.3510538-.04749272 2.6590378.47933419 3.6 1.45z" fill="#662d91"/><path d="m44.04 6.7c1.0209673-.90051501 2.3386926-1.39199092 3.7-1.38 2.76 0 3.9 1.5 3.9 3.11v4.77c-.0072021.567754.0195121 1.1354314.08 1.7h-1.58c0-.48 0-.95 0-1.42-.7153588 1.1333361-2.0052119 1.770539-3.34 1.65-1.73 0-3.23-1-3.23-2.79 0-2.41 2.31-3.23 5.15-3.23h1.3v-.4c.0038018-.57279809-.2381789-1.11973407-.6646107-1.50218411s-.9963804-.56370174-1.5653893-.49781589c-1.0079076.01072142-1.9723033.41225421-2.69 1.12zm5 3.71c-1.67 0-3.72.29-3.72 1.79 0 1.06.78 1.52 2 1.52.7284583.0429438 1.4397644-.2319914 1.9499702-.7537056s.769209-1.238975.7100298-1.9662944v-.59z" fill="#662d91"/><path d="m59.23 7.1h-2.54v4.23c0 1.05 0 2.15 1.34 2.15.4372686.0185666.8717496-.0779847 1.26-.28v1.63c-.5076774.2078159-1.051444.3131707-1.6.31-2.74 0-2.78-1.67-2.78-3.17v-4.86h-2v-1.54h2v-2.62h1.78v2.62h2.54z" fill="#662d91"/><path d="m62.54.91c.7179702 0 1.3.58202983 1.3 1.3s-.5820298 1.3-1.3 1.3-1.3-.58202983-1.3-1.3c.0054428-.71570355.5842965-1.29455715 1.3-1.3zm-.89 4.65h1.78v9.34h-1.78z" fill="#662d91"/><path d="m70.8 5.32c2.6994483.04948907 4.8524792 2.26919992 4.8196366 4.968902-.0328425 2.6997022-2.2392349 4.8663795-4.9390883 4.8501848-2.6998533-.0161948-4.8800947-2.209185-4.8805483-4.9090868-.0002214-1.31795752.5294168-2.58067054 1.4697783-3.50410557.9403616-.92343503 2.2124856-1.43005253 3.5302217-1.40589443zm0 8.16c1.327769.0695465 2.5639941-.6766826 3.1210263-1.8839615s.3225179-2.63209947-.5920646-3.59716219c-.9145825-.96506271-2.324762-1.27571441-3.5601986-.78428441-1.2354367.49142999-2.046943 1.68582023-2.0487631 3.0154081-.0716493.8521094.223737 1.6942987.8119447 2.3149724s1.4133285.9608377 2.2680553.9350276z" fill="#662d91"/><path d="m77.95 5.56h1.77v1.44c.6159237-1.10296139 1.8089953-1.75584745 3.07-1.68.9473858-.05590892 1.871188.30895648 2.5246827.99715002s.9701214 1.62962054.8653173 2.57284998v6h-1.77v-5.52c0-1.75-1-2.4-2.13-2.4-1.48 0-2.6.94-2.6 3.11v4.81h-1.77z" fill="#662d91"/><path d="m88.94 6.7c1.0255049-.89954167 2.3459175-1.39069244 3.71-1.38 2.76 0 3.9 1.5 3.9 3.11v4.77c-.0072021.567754.0195121 1.1354314.08 1.7h-1.58c0-.48-.06-.95-.06-1.42-.6986519 1.1149703-1.9580615 1.7504523-3.27 1.65-1.73 0-3.23-1-3.23-2.79 0-2.41 2.31-3.23 5.14-3.23h1.31v-.4c.0038018-.57279809-.2381789-1.11973407-.6646107-1.50218411s-.9963804-.56370174-1.5653893-.49781589c-.9891898.00227419-1.9403588.38131146-2.66 1.06zm5 3.71c-1.68 0-3.73.29-3.73 1.79 0 1.06.79 1.52 2 1.52.7284583.0429438 1.4397644-.2319914 1.9499702-.7537056s.769209-1.238975.7100298-1.9662944v-.59z" fill="#662d91"/><path d="m99.27 0h1.78v14.9h-1.78z" fill="#662d91"/><g fill="#0078ae"><path d="m26.8 38.41c-.1388032-.1280512-.3020784-.2266966-.48-.29l-.28 5.6 1.38-3.89c.0857931-.5613969-.1594686-1.121995-.63-1.44"/><path d="m24.49 38.07.82 5.59.8-5.59c-.5232366-.1902862-1.0967634-.1902862-1.62 0"/><path d="m23.8 38.4c-.4683367.3244616-.7124213.8862435-.63 1.45l1.39 3.87-.28-5.6c-.1755609.0636559-.3381737.1585134-.48.28"/><path d="m21.01 38.94c.93 1.62 1.88 3.37 2.81 4.94-.33-1.37-.66-3.64-1.14-4.28-.421065-.4715806-1.0403072-.7163111-1.67-.66"/><path d="m19.37 39.75 3.8 4.41-2.37-5.2c-.5791705.0162268-1.1151208.310255-1.44.79"/><path d="m27.33 40.94-.64 3c.82-1.41 1.62-2.81 2.4-4.22-.7840921-.0320144-1.4976102.4504212-1.76 1.19"/><g transform="translate(18 39)"><path d="m11.32.75-2 4.48 3.48-3.85c-.39988-.40801208-.9487315-.63549661-1.52-.63"/><path d="m.87 2.75c1.24 1 2.47 1.94 3.72 2.89l-3.35-4.74c-.29909578.56810424-.42758678 1.21055924-.37 1.85"/></g><path d="m31.27 40.93c-.0700089-.1533928-.1723454-.2898415-.3-.4l-3 4.16c1.21-.9 2.37-1.82 3.53-2.74.0186322-.3448586-.0501631-.6888352-.2-1"/><path d="m18.88 43.67 3.24 1.5c-1.07-1.07-2.15-2.12-3.24-3.17z"/><path d="m31.48 43.83v-1.52l-3.06 3c1-.47 2-.94 3.06-1.44"/><path d="m18.87 45.16c1 .21 2 .49 2.92.68l-2.92-1.93z"/><path d="m31.48 45.25v-1.18c-.92.59-1.87 1.19-2.72 1.79z"/><path d="m18.88 46.62h2.85l-2.85-1.22z"/><path d="m31.48 46.62v-1.11l-2.68 1.11h2.64"/><path d="m30.49 38.27c.0418108-.4603948-.1801917-.9048737-.5733867-1.1479975s-.8900316-.2431238-1.2832266 0-.6151975.6876027-.5733867 1.1479975c0 1.58 2.49 1.67 2.43 0"/><path d="m22.35 37.38c0-.6848331-.5551669-1.24-1.24-1.24s-1.24.5551669-1.24 1.24c-.09 1.7 2.64 1.72 2.48 0"/><path d="m25.31 37.71c.5935339.0240722 1.1409404-.3187858 1.3783486-.8633033s.116092-1.1789368-.3054695-1.5974435-1.0568463-.5352058-1.5996228-.2938438c-.5427766.241362-.8816444.7912475-.8532563 1.3845906-.0207535.3710885.1183185.7333141.3820817.9951659.2637631.2618519.6269905.3982859.9979183.3748341"/><path d="m46.28 46.55h1.16v-6.71h-1.16z"/><path d="m41.9 43.69.9-2.78.93 2.78zm.27-3.84-2 5.69-1.92-2.42 2.55-3.29h-1.29l-2.37 3.18v-3.18h-1.16v6.7h1.16v-3.3l2.45 3.31h1.39l.62-1.94h2.46l.65 1.93h1.21l-2.32-6.7h-1.43z"/><path d="m85.03 44.7-1.16-4.87h-2v6.71h1.14v-5.71l1.47 5.72h1.17s1.46-5.71 1.46-5.71v5.71h1.13v-6.72h-2l-1.2 4.86"/><path d="m90.85 43.68.9-2.78.93 2.78zm.27-3.84-2.32 6.71h1.13l.62-1.93h2.47l.65 1.93h1.21l-2.33-6.72h-1.43z"/><path d="m99.58 45.02-2.67-5.19h-1.53v6.71h1.09v-5.06l2.63 5.06h1.59v-6.71h-1.12v5.18"/><path d="m121.53 45.58h-2.73v-1.9h2v-1h-2v-1.85h2.53v-1h-3.67v6.71h3.9v-1"/><path d="m110.97 39.83h-.17v5.23l-2.71-5.23h-1.52v5.74h-3.52v-1.9h2v-1h-2v-1.84h2.52v-1h-3.67v6.71h5.77v-5.11l2.62 5.11h1.59v-5.71h2v5.7h1.17v-5.7h2v-1z"/><path d="m77.45 42.71v-1.88h1c.88 0 1.23.35 1.23.94s-.35.95-1.23.95zm2.72.46c.4096867-.3577374.6433227-.8761175.64-1.42.0112944-.5434036-.2195458-1.0637102-.63-1.42-.5621947-.4011454-1.2547462-.5760682-1.94-.49h-2v2.84 2.9h-3.5v-1.9h2v-1h-2v-1.85h2.53v-1h-3.67v6.71h5.85v-2.85h.58c.53.84 1.66 2.86 1.66 2.86h1.39l-1.81-3c.3329409-.0606245.6436479-.2090734.9-.43z"/><path d="m59.16 42.71v-1.88h1c.88 0 1.24.35 1.24.94s-.35.95-1.24.95zm2.72.46c.4070745-.3587792.6371808-.8774314.63-1.42.0138-.5417893-.2132588-1.0618273-.62-1.42-.562612-.4002432-1.2548073-.575076-1.94-.49h-2v2.84 2.9h-3.5v-1.9h2v-1h-2v-1.85h2.53v-1h-3.67v6.71h5.85v-2.85h.58c.53.84 1.66 2.86 1.66 2.86h1.4l-1.8-3c.3337105-.0582307.6450266-.2069706.9-.43z"/><path d="m68.5 42.83h-1v-2h1c.88 0 1.24.4 1.24 1s-.4 1-1.24 1zm1.75-2.46c-.5589557-.4091059-1.2521157-.5913284-1.94-.51h-2v6.71h1.17v-2.74h.78c.6857837.0748804 1.3746625-.1107243 1.93-.52.4148311-.3709242.6483253-.9035826.64-1.46.0135389-.5553652-.2166578-1.0888369-.63-1.46z"/><path d="m50.8 42.64c-.91-.34-1.34-.59-1.34-1.12s.4-.86 1.21-.86c.5031981.008558.9983062.1280669 1.45.35v-1c-.4477652-.197483-.930671-.3029061-1.42-.31-1.44 0-2.43.81-2.43 1.9s.74 1.56 1.87 1.95c.87.3 1.24.61 1.24 1.13s-.48 1-1.28 1c-.6423094-.0008296-1.2732156-.1697608-1.83-.49v1c.546308.260744 1.1446711.3940935 1.75.39 1.73 0 2.55-.93 2.55-2s-.6-1.55-1.77-2"/><path d="m123.41 45.27v-.44h.33c.16 0 .34 0 .34.23s-.18.25-.38.25zm0 .2h.27l.42.69h.26l-.44-.7c.111495.0003141.218061-.0459213.294001-.1275568s.114362-.1912618.105999-.3024432c0-.31-.18-.44-.55-.44h-.6v1.57h.24zm.29 1.26c.748405-.0110071 1.347246-.6246874 1.339935-1.3731375-.007311-.7484502-.618027-1.3503148-1.366504-1.3466996s-1.35335.6113512-1.353431 1.3598371c-.002794.3650325.142358.7156371.402359.9718706.260002.2562336.612688.3962522.977641.3881294zm-1.11-1.36c.010998-.6103115.512727-1.0972201 1.123093-1.0899206.610367.0072994 1.100308.5060675 1.096707 1.1164675-.0036.6104-.499389 1.103354-1.1098 1.1034531-.298742.0028275-.585784-.1159792-.795141-.3291088-.209358-.2131296-.32302-.5022473-.314859-.8008912z"/></g><path d="m96.65 23.92h-3.51v5.85c0 1.44 0 3 1.85 3 .6027502.0219311 1.2012712-.1087804 1.74-.38v2.23c-.6972542.2888293-1.4453078.4350397-2.2.43-3.78 0-3.84-2.31-3.84-4.38v-6.72h-2.83v-2.12h2.83v-5.91c.4156306.1652618.8651989.2270346 1.31.18.92 0 1.14-.18 1.14-.18v5.91h3.51z" fill="#662d91"/><path d="m45.33 15.89s.09.21 1.17.21c.430852.0196794.8615856-.0413694 1.27-.18v7.83c.8527641-1.5200326 2.5004292-2.4176992 4.24-2.31 2.51 0 4.68 1.5 4.68 4.92v8.3h-2.38v-7.62c0-2.42-1.39-3.32-2.94-3.32-2 0-3.59 1.31-3.49 4.3v6.64h-2.55z" fill="#662d91"/><path d="m62.35 29.15c0 2.25 2.09 3.75 4.35 3.75 1.4204765-.0411934 2.7358543-.7583345 3.54-1.93l1.85 1.41c-1.3539039 1.7703536-3.4944177 2.758283-5.72 2.64-1.8039562.0710858-3.5538032-.6242369-4.8169765-1.9140836-1.2631733-1.2898466-1.9217843-3.0538392-1.8130235-4.8559164-.0663059-1.7967428.6100167-3.5415358 1.8699689-4.8241899 1.2599522-1.282654 2.9923908-1.9900233 4.7900311-1.9558101 4.55 0 6.29 3.49 6.29 6.81v.87zm7.73-2c-.06-2.15-1.26-3.76-3.73-3.76-2.118709-.0038169-3.8728807 1.6451045-4 3.76z" fill="#662d91"/><path d="m75.68 23.38c1.4082621-1.247121 3.2289894-1.9276669 5.11-1.91 3.81 0 5.39 2.07 5.39 4.3v6.59c-.0086529.7814716.0280756 1.5627863.11 2.34h-2.18c0-.66-.08-1.31-.08-2h-.06c-.9621112 1.5398334-2.6995727 2.4181953-4.51 2.28-2.4 0-4.46-1.36-4.46-3.86 0-3.32 3.18-4.46 7.1-4.46h1.79v-.55c-.0230688-.7767786-.370218-1.5084414-.9572918-2.0176187-.5870739-.5091773-1.3604723-.7493812-2.1327082-.6623813-1.3667427.000385-2.6809099.526768-3.67 1.47zm6.91 5.11c-2.31 0-5.14.41-5.14 2.48 0 1.47 1.08 2.09 2.77 2.09 1.0042382.058085 1.9844839-.3212166 2.6880645-1.0401342.7035807-.7189176 1.0616592-1.7071134.9819355-2.7098658v-.82z" fill="#662d91"/><path d="m42.04 23.92h-3.51v5.85c0 1.44 0 3 1.85 3 .6028673.0232459 1.201713-.1075365 1.74-.38v2.23c-.6972542.2888293-1.4453078.4350397-2.2.43-3.78 0-3.83-2.31-3.83-4.38v-6.72h-2.83v-2.12h2.83v-3.62h2.44v3.62h3.51z" fill="#662d91"/><path d="m99.8 21.83h2.45v2c.756757-1.4294254 2.242616-2.3224806 3.86-2.32.370023-.0011415.737899.0562336 1.09.17l-.11 2.64c-.390045-.1152057-.793443-.1790771-1.2-.19-2.39 0-3.69 1.3-3.69 4.13v6.48h-2.4z" fill="#662d91"/><path d="m111.24 29.15c0 2.25 2.09 3.75 4.35 3.75 1.420476-.0411934 2.735854-.7583345 3.54-1.93l1.84 1.41c-1.348489 1.7715511-3.486857 2.7602186-5.71 2.64-1.803956.0710858-3.553803-.6242369-4.816977-1.9140836-1.263173-1.2898466-1.921784-3.0538392-1.813023-4.8559164-.066306-1.7967428.610017-3.5415358 1.869969-4.8241899 1.259952-1.282654 2.992391-1.9900233 4.790031-1.9558101 4.54 0 6.28 3.49 6.28 6.81v.87zm7.72-2c.081032-1.0128006-.283325-2.0106315-.997919-2.7329099-.714595-.7222783-1.708472-1.097286-2.722081-1.0270901-2.118709-.0038169-3.872881 1.6451045-4 3.76z" fill="#662d91"/><g fill="#000" transform="translate(129 39)"><path d="m0 .30520693h.65014286l3.87742857 4.90583333v-4.90583333h.67357143v6.125h-.55057143l-3.97114286-5.0225v5.0225h-.67942857z"/><path d="m6.54828571 4.19020693c0-1.30155106 1.0594222-2.35666667 2.36628572-2.35666667 1.30686347 0 2.36628567 1.05511561 2.36628567 2.35666667.0079796.62999219-.2401877 1.23642344-.6880645 1.68138096s-1.05739347.6906198-1.68993546.68111904c-.62850023.00317877-1.23192762-.24527404-1.67469494-.6895323s-.68774094-1.04706328-.67987649-1.6729677zm4.04142859 0c.0109898-.45531707-.1609435-.89617133-.4776436-1.22472618-.3167-.32855484-.75197034-.51763319-1.20921356-.52527382-.45681794.0026358-.89273922.19096475-1.20679588.52136616-.31405665.33040141-.47900245.77421104-.45663269 1.22863384-.01418317.45521036.15589321.89700403.4720063 1.22609261.31611308.32908858.75174556.5178663 1.2089937.52390739.45783721-.00104763.89529293-.18868197 1.21062893-.51926525.3153359-.33058327.4810697-.77530416.4586568-1.23073475z"/><path d="m12.505 1.90354026h.6735714v1.16666667c.2894607-.76849455 1.0326781-1.27285538 1.8567143-1.26v.72333333h-.0527143c-.9957143 0-1.804.71166667-1.804 2.07666667v1.8025h-.6735714z"/><path d="m16.2945714 5.22854026v-2.73h-.6325714v-.58333333h.6325714v-1.37666667h.6735715v1.365h1.4408571v.58333333h-1.4408571v2.6425c-.0281109.20903225.0441169.41906146.1950009.56703789s.3628566.21667107.5722848.18546211c.228429.00276903.4539301-.05137184.656-.1575v.58333334c-.2508401.1312484-.5308355.1974519-.8141429.1925-.3486784.0347316-.6946579-.08782101-.9430072-.33403138s-.3729843-.59021893-.3397071-.93763529z"/><path d="m19.6097143.07187359h.6794286v2.64833334c.3110624-.55979962.9100057-.89969692 1.5521428-.88083334.48547-.03141415.9602869.15116079 1.298605.49933498.338318.3481742.5059761.82679137.4585379 1.30899836v2.81166666h-.6735715v-2.6425c.0472806-.35482304-.065936-.71225131-.3090951-.97582308s-.5911986-.406121-.9501906-.38917692c-.3739902-.00734772-.7339304.14185897-.9922383.4113144-.2583079.26945542-.391301.63445511-.3666188 1.0061856v2.59h-.6794286z"/><path d="m24.7405714 4.15520693c-.0269336-.59854531.1886504-1.18278312.5983418-1.62152081.4096915-.4387377.9791549-.69520544 1.5805154-.71181253 1.3471428 0 2.1202857 1.0675 2.1202857 2.38583334.0059827.07376877.0059827.14789789 0 .22166666h-3.6021429c.0285677.85704768.7380072 1.53513402 1.599 1.52833334.5485688.00671568 1.0727194-.22552992 1.435-.63583334l.4217143.37333334c-.459193.55690526-1.1509934.87125613-1.8742857.85166666-.6278316.00607161-1.2299239-.24814891-1.662071-.70177368-.432147-.45362478-.6554252-1.06579573-.6163576-1.68989298zm3.6138572-.2625c.0142047-.39653679-.1312546-.7822907-.4040352-1.07148964-.2727806-.28919895-.6502709-.45787039-1.0485363-.46851036-.8211694.04884194-1.465185.72078233-1.476 1.54z"/><path d="m30.2228571 1.90354026h.6794286v1.16666667c.289739-.76411011 1.0308927-1.26399033 1.8508572-1.24833334v.72333334h-.0585715c-.9898571 0-1.7981428.71166666-1.7981428 2.07666666v1.8025h-.6794286z"/><path d="m33.784 1.90354026h.6677143v.7875c.3130235-.56073103.9141193-.90056753 1.558-.88083333.4854699-.03141416.9602869.15116078 1.2986049.49933498.3383181.34817419.5059761.82679137.4585379 1.30899835v2.81166667h-.6794285v-2.6425c.0470604-.35376889-.0654116-.71015124-.3072278-.97349225s-.5882075-.40666671-.9462008-.39150775c-.3749974-.00900912-.7365097.13946941-.9961205.40912169s-.3933809.63561315-.3685938 1.00837831v2.59h-.6735714z"/><path d="m41.6735714 3.38520693c-.0221901-.83449849.2960446-1.64234742.8820815-2.23919197s1.3898702-.93175672 2.2280614-.92830803c.8997769-.02739966 1.7694809.32415043 2.3955714.96833333l-.4744286.5075c-.5009113-.5327704-1.2000088-.83659106-1.9328571-.84-.6536409.00878581-1.2757375.28129927-1.7239673.75519516s-.6842386 1.10862377-.6540327 1.75897151c-.031816.65188313.2032892 1.28872923.6515239 1.76482943.4482348.47610019 1.0712409.75071164 1.7264761.7610039.7574711.00076315 1.479481-.31953272 1.9855714-.88083333l.4568572.44333333c-.6210211.70214483-1.5206418 1.09679553-2.46 1.07916667-.832518.00355151-1.6307671-.32987864-2.2116702-.92381881-.5809032-.59394017-.8946152-1.39742665-.869187-2.22618119z"/><path d="m47.97 5.11770693c0-.95666667.7907143-1.46416667 1.9445714-1.46416667.4715443-.00293759.9410475.06189696 1.394.1925v-.1575c0-.81083333-.4978571-1.23083333-1.353-1.23083333-.4781479.00578216-.9487555.11946554-1.3764285.3325l-.205-.55416667c.5150369-.24753447 1.0798453-.37519689 1.6517142-.37333333.5371271-.03887883 1.067257.13991745 1.4701429.49583333.3267637.36145492.4935542.8387653.4627143 1.32416667v2.765h-.6501429v-.6825c-.3902315.50542732-1.0000805.79392802-1.64.77583333-.8434285-.0175-1.6985714-.49583333-1.6985714-1.42333333zm3.3502857-.35v-.4375c-.4333792-.12848312-.8832563-.19333222-1.3354286-.1925-.8551428 0-1.3295714.3675-1.3295714.93333333 0 .58333333.5271429.90416667 1.1421429.90416667.7553272.08537045 1.4371314-.45524395 1.5228571-1.2075z"/><path d="m53.464.07187359h.6735714v6.41666667h-.6735714z"/><path d="m55.7307143.17104026h1v.74666667h-1zm.0530303 1.75h.8787879v4.52666667h-.8787879z"/><path d="m58.2785714 2.49854026h-.6267143v-.58333333h.6267143v-.39666667c-.030746-.42546116.1105449-.84551073.3924286-1.16666667.2655651-.24285152.6181149-.36900121.9781429-.35.2526331-.00800858.5046387.02953979.7438571.11083334v.58333333c-.211637-.07111377-.4327298-.11043413-.656-.11666667-.5271429 0-.7907143.315-.7907143.9625v.3675h1.4408572v.58333334h-1.435v3.93166666h-.6735715z"/><path d="m60.8791429 4.19020693c0-1.30155106 1.0594222-2.35666667 2.3662857-2.35666667s2.3662857 1.05511561 2.3662857 2.35666667c.0079796.62999219-.2401878 1.23642344-.6880646 1.68138096s-1.0573934.6906198-1.6899354.68111904c-.6285003.00317877-1.2319276-.24527404-1.674695-.6895323-.4427673-.44425826-.6877409-1.04706328-.6798764-1.6729677zm4.0414285 0c.0109898-.45531707-.1609435-.89617133-.4776435-1.22472618-.3167001-.32855484-.7519704-.51763319-1.2092136-.52527382-.456818.0026358-.8927392.19096475-1.2067959.52136616-.3140566.33040141-.4790024.77421104-.4566327 1.22863384-.0141832.45521036.1558932.89700403.4720063 1.22609261s.7517456.5178663 1.2089937.52390739c.455797-.00421668.8901872-.1932366 1.2029669-.52345734s.4769369-.77312406.4546045-1.22654266z"/><path d="m66.8358571 1.90354026h.6735715v1.16666667c.2894606-.76849455 1.0326781-1.27285538 1.8567143-1.26v.72333333h-.0527143c-.9957143 0-1.804.71166667-1.804 2.07666667v1.8025h-.6735715z"/><path d="m70.3911429 1.90354026h.6794285v.7875c.3110625-.55979962.9100057-.89969692 1.5521429-.88083333.4854699-.03141416.9602869.15116078 1.2986049.49933498.3383181.34817419.5059761.82679137.4585379 1.30899835v2.81166667h-.6852857v-2.6425c.0472805-.35482304-.065936-.71225131-.3090951-.97582308s-.5911986-.40612101-.9501906-.38917692c-.3739902-.00734772-.7339304.14185897-.9922383.41131439-.2583079.26945543-.391301.63445511-.3666188 1.00618561v2.59h-.6794286z"/><path d="m75.8207143.17104026h1v.74666667h-.9635037zm.0583941 1.75h.8394161v4.52666667h-.8394161z"/><path d="m77.7945714 5.11770693c0-.95666667.7907143-1.46416667 1.9445715-1.46416667.4715442-.00293759.9410474.06189696 1.394.1925v-.1575c0-.81083333-.4978572-1.23083333-1.353-1.23083333-.4781479.00578216-.9487556.11946554-1.3764286.3325l-.205-.55416667c.5150369-.24753447 1.0798454-.37519689 1.6517143-.37333333.537127-.03887883 1.0672569.13991745 1.4701428.49583333.3267638.36145492.4935542.8387653.4627143 1.32416667v2.765h-.6501428v-.6825c-.3902316.50542732-1.0000805.79392802-1.64.77583333-.8668572-.0175-1.6985715-.49583333-1.6985715-1.42333333zm3.3502857-.35v-.4375c-.4333792-.12848312-.8832562-.19333222-1.3354285-.1925-.8551429 0-1.3295715.3675-1.3295715.93333333 0 .58333333.5271429.90416667 1.1421429.90416667.746689.07167871 1.4135096-.46531646 1.4994286-1.2075z"/></g></g></svg>