<svg id="Layer_1" data-name="Layer 1" xmlns="http://www.w3.org/2000/svg" viewBox="0 0 64 64"><defs><style>.cls-1{fill:#282c19;}.cls-2{fill:#ffd939;}</style></defs><title>Artboard 13 copy 28</title><path id="path38" class="cls-1" d="M25,48l-4-2V40l4,2v6"/><g id="path40"><path class="cls-2" d="M29,41.62v3.76l-2,1V42.62l2-1M30,40l-4,2v6l4-2V40Z"/></g><path id="path42" class="cls-1" d="M29.3,39.28l-3.91-1.6-3.91,1.53,4,1.79,3.78-1.72"/><path id="path38-2" data-name="path38" class="cls-1" d="M30,38.5l-4-2v-6l4,2v6"/><g id="path40-2" data-name="path40"><path class="cls-2" d="M34,32.12v3.76l-2,1V33.12l2-1m1-1.62-4,2v6l4-2v-6Z"/></g><path id="path42-2" data-name="path42" class="cls-1" d="M34.3,29.78l-3.91-1.6-3.91,1.53,4,1.79,3.78-1.72"/><path id="path38-3" data-name="path38" class="cls-1" d="M35,29.06l-4-2v-6l4,2v6"/><g id="path40-3" data-name="path40"><path class="cls-2" d="M39,22.68v3.76l-2,1V23.68l2-1m1-1.62-4,2v6l4-2v-6Z"/></g><path id="path42-3" data-name="path42" class="cls-1" d="M39.3,20.35l-3.91-1.6-3.91,1.53,4,1.79,3.78-1.72"/><path id="path38-4" data-name="path38" class="cls-1" d="M45,29.06l-4-2v-6l4,2v6"/><g id="path40-4" data-name="path40"><path class="cls-2" d="M49,22.68v3.76l-2,1V23.68l2-1m1-1.62-4,2v6l4-2v-6Z"/></g><path id="path42-4" data-name="path42" class="cls-1" d="M49.3,20.35l-3.91-1.6-3.91,1.53,4,1.79,3.78-1.72"/><path id="path38-5" data-name="path38" class="cls-1" d="M19.5,38.83l-4-2v-6l4,2v6"/><g id="path40-5" data-name="path40"><path class="cls-2" d="M23.5,32.45v3.76l-2,1V33.45l2-1m1-1.62-4,2v6l4-2v-6Z"/></g><path id="path42-5" data-name="path42" class="cls-1" d="M23.8,30.12l-3.91-1.6L16,30l4,1.79,3.78-1.72"/></svg>