<svg id="Layer_1" data-name="Layer 1" xmlns="http://www.w3.org/2000/svg" viewBox="0 0 64 64"><defs><style>.cls-1,.cls-3{fill:none;stroke:#282c19;stroke-width:2px;}.cls-1{stroke-miterlimit:10;}.cls-2{fill:#ffd939;}.cls-3{stroke-linecap:round;stroke-linejoin:round;stroke-dasharray:2 4;}</style></defs><title>Artboard 13 copy 32</title><polygon class="cls-1" points="32 16 32 16 32 16 17.02 22 19 40.98 32 48 32 48 32 48 44.98 41 47.98 21.02 32 16"/><path class="cls-2" d="M32,19.73l0,6.54,3.1,6.48H32v2.71h4.31l2,4.66,3.27.06Zm0,0"/><path class="cls-2" d="M22.41,40.19l3.27-.06,2-4.66H32V32.75H28.88L32,26.27l0-6.54ZM32,19.73"/><line class="cls-3" x1="32" y1="48" x2="32" y2="39.5"/><line class="cls-3" x1="32" y1="17.5" x2="32" y2="16"/></svg>