<svg id="Layer_1" data-name="Layer 1" xmlns="http://www.w3.org/2000/svg" viewBox="0 0 64 64"><defs><style>.cls-1,.cls-2{fill:none;stroke-linejoin:round;stroke-width:2px;}.cls-1{stroke:#282c19;}.cls-2{stroke:#ffd939;stroke-linecap:round;}</style></defs><title>Artboard 13 copy 35</title><g id="BackBone.JS"><path id="Path" class="cls-1" d="M23,28V23L27,26"/><path id="Path-2" data-name="Path" class="cls-1" d="M32,36l-7.2-3.59"/><path id="Path-3" data-name="Path" class="cls-1" d="M22.49,36.38,27.08,39"/><path id="Path-4" data-name="Path" class="cls-1" d="M32,23,18,15V32"/><path id="path2996" class="cls-2" d="M40.78,28.62V23L36,25.78"/><path id="path2996-2" data-name="path2996" class="cls-2" d="M32,36l7-4"/><path id="path2996-3" data-name="path2996" class="cls-2" d="M40.93,36.36,36.3,39"/><path id="path2996-4" data-name="path2996" class="cls-2" d="M32,23l13-7V31"/><path id="path2998" class="cls-2" d="M18.11,31.12,32,23v6l-9,5.1L23,42l9-6"/><path id="path2998-2" data-name="path2998" class="cls-2" d="M32,36v6L18,50V31.15"/><path id="path2998-3" data-name="path2998" class="cls-2" d="M26,40l5.71-3.63"/><path id="path3000" class="cls-1" d="M38.41,32.48,41,34.06,41,42l-9-6v6l13,8,0-19L32,23v6l6.41,3.48"/></g></svg>