<?xml version="1.0" encoding="UTF-8"?>
<svg width="64px" height="64px" viewBox="0 0 64 64" version="1.1" xmlns="http://www.w3.org/2000/svg" xmlns:xlink="http://www.w3.org/1999/xlink">
    <!-- Generator: Sketch 46.2 (44496) - http://www.bohemiancoding.com/sketch -->
    <title>blog</title>
    <desc>Created with Sketch.</desc>
    <defs></defs>
    <g id="Page-1" stroke="none" stroke-width="1" fill="none" fill-rule="evenodd">
        <g id="blog">
            <g id="noun_1087148_cc" transform="translate(15.000000, 16.000000)" fill-rule="nonzero" fill="#000000">
                <path d="M2.59195402,0 C1.16419383,0 0,1.1509645 0,2.5625 L0,30.4375 C0,31.8490355 1.16419383,33 2.59195402,33 L30.7873563,33 C32.2151164,33 33.3793103,31.8490355 33.3793103,30.4375 L33.3793103,21.234375 L43.3520115,11.390625 C43.4504995,11.2964177 43.5061064,11.1667332 43.5061064,11.03125 C43.5061064,10.8957668 43.4504995,10.7660823 43.3520115,10.671875 L38.7686782,6.140625 C38.656505,6.03035974 38.4986122,5.97832689 38.341954,6 C38.2286962,6.0121058 38.1228883,6.0616558 38.0416667,6.140625 L33.3793103,10.765625 L33.3793103,2.5625 C33.3793103,1.1509645 32.2151164,0 30.7873563,0 L2.59195402,0 Z M2.59195402,1 L30.7873563,1 C31.6735006,1 32.3678161,1.6864255 32.3678161,2.5625 L32.3678161,11.765625 L23.4066092,20.640625 C23.3124666,20.7367747 23.2612328,20.8662176 23.2643678,21 L23.2643678,25.5 C23.2643957,25.7761309 23.4908101,25.9999724 23.7701149,26 L28.3218391,26 C28.4571592,26.0030994 28.5880899,25.9524478 28.6853448,25.859375 L32.3678161,22.234375 L32.3678161,30.4375 C32.3678161,31.3135745 31.6735006,32 30.7873563,32 L2.59195402,32 C1.7058097,32 1.01149425,31.3135745 1.01149425,30.4375 L1.01149425,2.5625 C1.01149425,1.6864255 1.7058097,1 2.59195402,1 Z M38.4051724,7.21875 L42.2614943,11.03125 L39.716954,13.546875 L35.8606322,9.734375 L38.4051724,7.21875 Z M35.1336207,10.453125 L38.9899425,14.265625 L28.1005747,25 L24.2758621,25 L24.2758621,21.21875 L35.1336207,10.453125 Z" id="Shape"></path>
            </g>
            <path d="M20,22 C20.3022296,22.034498 20.1316873,22.2554392 20,23 C19.968248,22.9059477 19.9877662,23.286101 20,24 C20.2145737,23.8698057 20.4046341,24.0290177 21,24 L42,24 C42.6430278,24.0007022 42.8262339,23.8117458 43,24 C43.0248237,23.1904577 43.0248237,22.8062542 43,22 C42.8262339,22.1849662 42.6430278,21.9960098 42,22 L21,22 C20.5826994,21.9996346 20.5656132,21.9996346 21,22 C20.5314971,21.9996361 20.514411,21.9996361 20,22 Z" id="Path" fill="#FFD939"></path>
            <path d="M20,29 C20.3022296,29.034498 20.1316873,29.2554392 20,30 C19.968248,29.9059477 19.9877662,30.286101 20,31 C20.2145737,30.8698057 20.4046341,31.0290177 21,31 L42,31 C42.6430278,31.0007022 42.8262339,30.8117458 43,31 C43.0248237,30.1904577 43.0248237,29.8062542 43,29 C42.8262339,29.1849662 42.6430278,28.9960098 42,29 L21,29 C20.5826994,28.9996346 20.5656132,28.9996346 21,29 C20.5314971,28.9996361 20.514411,28.9996361 20,29 Z" id="Path" fill="#FFD939"></path>
            <path d="M21,35 C20.2028635,35.0527295 19.9732147,35.5410625 20,36 C20.0318256,36.6425743 20.3089879,37.047193 21,37 L35,37 C35.6300606,37.0006459 35.8199217,36.8116948 36,37 C36.0257255,36.1904242 36.0257255,35.8062315 36,35 C35.8199217,35.184961 35.6300606,34.9960099 35,35 L21,35 C20.6039018,34.9996346 20.586195,34.9996346 21,35 C20.5508396,34.9996361 20.5331328,34.9996361 21,35 Z" id="Path" fill="#FFD939"></path>
            <path d="M21,42 C20.203991,42.0527295 19.9730659,42.5410625 20,43 C20.0320025,43.6425743 20.3107053,44.047193 21,44 L35,44 C35.6280044,44.0006459 35.8189208,43.8116948 36,44 C36.0258685,43.1904242 36.0258685,42.8062315 36,42 C35.8189208,42.184961 35.6280044,41.9960099 35,42 L21,42 C20.6072583,41.9996346 20.5894531,41.9996346 21,42 C20.5539012,41.9996361 20.5360959,41.9996361 21,42 Z" id="Path" fill="#FFD939"></path>
        </g>
    </g>
</svg>