<?xml version="1.0" encoding="UTF-8"?>
<svg width="64px" height="64px" viewBox="0 0 64 64" version="1.1" xmlns="http://www.w3.org/2000/svg" xmlns:xlink="http://www.w3.org/1999/xlink">
    <!-- Generator: Sketch 46.2 (44496) - http://www.bohemiancoding.com/sketch -->
    <title>casestudy</title>
    <desc>Created with Sketch.</desc>
    <defs></defs>
    <g id="Page-1" stroke="none" stroke-width="1" fill="none" fill-rule="evenodd">
        <g id="casestudy">
            <g id="noun_511222_cc" transform="translate(16.000000, 16.000000)" fill-rule="nonzero" fill="#000000">
                <g id="Group" transform="translate(0.123596, 0.000000)">
                    <path d="M12.0284944,20.9213483 L6.44377528,20.9213483 C6.08853933,20.9213483 5.79991011,21.2082697 5.79991011,21.5617978 C5.79991011,21.9153258 6.08853933,22.2022472 6.44377528,22.2022472 L12.0284944,22.2022472 C12.3845843,22.2022472 12.6732135,21.9153258 12.6732135,21.5617978 C12.6732135,21.2082697 12.3845843,20.9213483 12.0284944,20.9213483 Z" id="Shape"></path>
                    <path d="M32.6744494,23.4571011 L27.601236,18.4146292 C28.7745393,17.0094831 29.4815955,15.2046966 29.4815955,13.2355281 C29.4815955,10.6997753 28.3091461,8.43770787 26.4761798,6.94973034 L26.4761798,1.70786517 C26.4761798,0.768539326 25.7029438,0 24.7576404,0 L1.71853933,0 C0.773235955,0 0,0.768539326 0,1.70786517 L0,29.8876404 C0,30.8269663 0.773235955,31.5955056 1.71853933,31.5955056 L24.7580674,31.5955056 C25.7037978,31.5955056 26.4766067,30.8269663 26.4766067,29.8876404 L26.4761798,19.5217528 C26.5530337,19.4598427 26.6230562,19.392382 26.6973483,19.3279101 L31.7633034,24.3631236 C32.0152135,24.6133258 32.4229663,24.6133258 32.6748764,24.3631236 C32.9267865,24.1129213 32.9263596,23.7073034 32.6744494,23.4571011 Z M19.760427,16.6516854 L15.3754831,16.6516854 C14.8558652,15.7618876 14.5347865,14.7469888 14.4673258,13.6629213 L19.76,13.6629213 C20.1160899,13.6629213 20.4047191,13.376 20.4047191,13.0224719 C20.4047191,12.6689438 20.1160899,12.3820225 19.76,12.3820225 L14.5053258,12.3820225 C14.6436629,11.2847191 15.0407416,10.2659775 15.6402022,9.39325843 L19.760427,9.39325843 C20.1165169,9.39325843 20.4051461,9.10633708 20.4051461,8.75280899 C20.4051461,8.3992809 20.1165169,8.11235955 19.760427,8.11235955 L16.7874607,8.11235955 C17.999191,7.05305618 19.582809,6.40449438 21.3188539,6.40449438 C22.7521798,6.40449438 24.0843146,6.84426966 25.1867416,7.59316854 L25.1875955,18.8783146 C24.0843146,19.6276404 22.7526067,20.0674157 21.3192809,20.0674157 C19.3603596,20.0674157 17.594,19.2442247 16.3408539,17.9325843 L19.7608539,17.9325843 C20.1169438,17.9325843 20.405573,17.6456629 20.405573,17.2921348 C20.405573,16.9386067 20.1165169,16.6516854 19.760427,16.6516854 Z M28.1921573,13.2355281 C28.1921573,14.9604719 27.5410337,16.5334157 26.4757528,17.7370337 L26.4757528,8.73444944 C27.5410337,9.93764045 28.1921573,11.5105843 28.1921573,13.2355281 Z M25.1875955,29.8876404 C25.1875955,30.1190562 24.990764,30.3146067 24.7580674,30.3146067 L1.71853933,30.3146067 C1.4858427,30.3146067 1.28901124,30.1190562 1.28901124,29.8876404 L1.28901124,1.70786517 C1.28901124,1.47644944 1.4858427,1.28089888 1.71853933,1.28089888 L24.7572135,1.28089888 C24.9899101,1.28089888 25.1867416,1.47644944 25.1867416,1.70786517 L25.1867416,6.09195506 C24.0360674,5.4745618 22.7193034,5.12359551 21.3192809,5.12359551 C18.7664494,5.12359551 16.4890112,6.28878652 14.9933483,8.11235955 L6.44377528,8.11235955 C6.08853933,8.11235955 5.79991011,8.3992809 5.79991011,8.75280899 C5.79991011,9.10633708 6.08853933,9.39325843 6.44377528,9.39325843 L14.1300225,9.39325843 C13.6390112,10.2997079 13.3153708,11.3094831 13.2026517,12.3820225 L6.44377528,12.3820225 C6.08853933,12.3820225 5.79991011,12.6689438 5.79991011,13.0224719 C5.79991011,13.376 6.08853933,13.6629213 6.44377528,13.6629213 L13.1783146,13.6629213 C13.2342472,14.7269213 13.4934157,15.7354157 13.9229438,16.6516854 L6.44377528,16.6516854 C6.08853933,16.6516854 5.79991011,16.9386067 5.79991011,17.2921348 C5.79991011,17.6456629 6.08853933,17.9325843 6.44377528,17.9325843 L14.6718427,17.9325843 C16.1512809,19.9973933 18.5738876,21.3483146 21.3188539,21.3483146 C22.7188764,21.3483146 24.0356404,20.9973483 25.1875955,20.3795281 L25.1875955,29.8876404 L25.1875955,29.8876404 Z" id="Shape"></path>
                </g>
            </g>
            <path d="M37,37 C32.581722,37 29,33.418278 29,29 C29,24.581722 32.581722,21 37,21 C41.418278,21 45,24.581722 45,29 C45,33.418278 41.418278,37 37,37 Z M37,36 C40.8659932,36 44,32.8659932 44,29 C44,25.1340068 40.8659932,22 37,22 C33.1340068,22 30,25.1340068 30,29 C30,32.8659932 33.1340068,36 37,36 Z" id="Combined-Shape" fill="#FFD939"></path>
        </g>
    </g>
</svg>