<svg id="Layer_1" data-name="Layer 1" xmlns="http://www.w3.org/2000/svg" viewBox="0 0 64 64"><defs><style>.cls-1,.cls-2,.cls-3{fill:none;stroke-width:2px;}.cls-1,.cls-3{stroke:#282c19;stroke-linecap:round;}.cls-1,.cls-2{stroke-miterlimit:10;}.cls-2{stroke:#ffd939;}.cls-3{stroke-linejoin:round;stroke-dasharray:2 4;}</style></defs><title>Artboard 7</title><path class="cls-1" d="M38,25V20.64A2.64,2.64,0,0,0,35.36,18H17.64A2.64,2.64,0,0,0,15,20.64V38.9a.87.87,0,0,0,1.51.58L18.76,37H25"/><path class="cls-2" d="M47.36,27H30.64A2.64,2.64,0,0,0,28,29.64V41.36A2.64,2.64,0,0,0,30.64,44H45.93l2.55,2.89A.87.87,0,0,0,50,46.31V29.64A2.64,2.64,0,0,0,47.36,27Z"/><path class="cls-3" d="M30,37h5.36A2.64,2.64,0,0,0,38,34.36V28"/></svg>