<svg id="Layer_1" data-name="Layer 1" xmlns="http://www.w3.org/2000/svg" viewBox="0 0 64 64"><defs><style>.cls-1{fill:none;stroke:#292929;stroke-linecap:round;stroke-linejoin:round;stroke-width:2px;}.cls-2{fill:#ffd939;}</style></defs><title>Artboard 13 copy 4</title><g id="_1Qdihx" data-name="1Qdihx"><path class="cls-1" d="M31.25,43c.56-.45,1.11-.86,1.63-1.3a12.14,12.14,0,0,0,2.64-3.25.52.52,0,0,1,.53-.3c.92,0,1.84,0,2.76,0a1.92,1.92,0,1,0,0-3.83H37.37c-.22,0-.3-.07-.26-.29a13.27,13.27,0,0,0,0-4.26c0-.23.05-.29.26-.28h1.45a1.91,1.91,0,1,0,0-3.81c-.94,0-1.89,0-2.83,0a.57.57,0,0,1-.41-.23A13.21,13.21,0,0,0,31.39,21l-.2-.16.17,0c2.58,0,5.17,0,7.75,0a6.74,6.74,0,0,1,6.57,7,6.57,6.57,0,0,1-1.35,3.77.4.4,0,0,0,0,.58,6.76,6.76,0,0,1-4.45,10.73A6.48,6.48,0,0,1,39,43Z"/><path class="cls-1" d="M20.29,40.56c0-.66,0-1.32,0-2,0-.37.12-.45.46-.45A15.93,15.93,0,0,0,23.46,38,6.22,6.22,0,0,0,23,25.72a19.53,19.53,0,0,0-2.33-.07c-.3,0-.38-.1-.38-.39q0-2.05,0-4.11c0-.29.08-.39.38-.39a13.64,13.64,0,0,1,5.13.64,10.79,10.79,0,0,1,7.39,9.47,11,11,0,0,1-8.77,11.88,18.52,18.52,0,0,1-3.84.25c-.23,0-.27-.12-.27-.31C20.3,42,20.29,41.27,20.29,40.56Z"/></g><rect class="cls-2" x="29" y="46.11" width="16" height="2"/><rect class="cls-2" x="19.27" y="15.65" width="13.71" height="2"/></svg>