<svg id="Layer_1" data-name="Layer 1" xmlns="http://www.w3.org/2000/svg" viewBox="0 0 64 64"><defs><style>.cls-1,.cls-2{fill:none;}.cls-1{stroke:#282c19;stroke-linecap:round;stroke-linejoin:round;stroke-width:2px;}.cls-3{fill:#ffd939;}</style></defs><title>Artboard 13 copy 2</title><path class="cls-1" d="M32,42a10,10,0,0,1-2-19.8V15.71A16.42,16.42,0,1,0,48.21,34.5H41.67A10,10,0,0,1,32,42Z"/><path class="cls-2" d="M36.73,17.35,35,19.08v2.34l.19.07,3.4-3.4A15.27,15.27,0,0,0,36.73,17.35Z"/><path class="cls-2" d="M40.4,19.09l-3.23,3.23a11,11,0,0,1,1.58,1l3.13-3.13A15.56,15.56,0,0,0,40.4,19.09Z"/><path class="cls-2" d="M45.58,24.75l-3.32,3.32a10.92,10.92,0,0,1,.44,1.43h.72l3-3A15.34,15.34,0,0,0,45.58,24.75Z"/><path class="cls-2" d="M47.21,29.5c0-.27-.11-.54-.16-.8l-.8.8Z"/><path class="cls-2" d="M43.33,21.59,40.2,24.71a11,11,0,0,1,1.1,1.48L44.5,23A15.59,15.59,0,0,0,43.33,21.59Z"/><path class="cls-3" d="M44.5,23l1.42-1.42a17.63,17.63,0,0,0-1.18-1.41l-1.41,1.41A15.59,15.59,0,0,1,44.5,23Z"/><path class="cls-3" d="M35,21.42V19.08l-2,2V22.2a1,1,0,0,0,.58.89l1.61-1.61Z"/><path class="cls-3" d="M40.2,24.71l-1.42,1.42a9,9,0,0,1,1.06,1.52L41.3,26.2A11,11,0,0,0,40.2,24.71Z"/><path class="cls-3" d="M38.59,18.08l1.49-1.49a17.28,17.28,0,0,0-1.77-.82l-1.57,1.57A15.27,15.27,0,0,1,38.59,18.08Z"/><path class="cls-3" d="M47,28.7c.06.27.12.53.16.8h-1l-2,2h4.1a1,1,0,0,0,1-1.09,17.12,17.12,0,0,0-.66-3.35Z"/><path class="cls-3" d="M34.12,14.72a1,1,0,0,0-.78.24,1,1,0,0,0-.34.75v2.54l3.15-3.15A17.1,17.1,0,0,0,34.12,14.72Z"/><path class="cls-3" d="M46.4,26.52,47.93,25a17.39,17.39,0,0,0-.87-1.72l-1.47,1.47A15.34,15.34,0,0,1,46.4,26.52Z"/><path class="cls-3" d="M42.7,29.5a10.92,10.92,0,0,0-.44-1.43l-1.6,1.6a8.87,8.87,0,0,1,.23,1,1,1,0,0,0,.61.77l1.92-1.92Z"/><path class="cls-3" d="M37.18,22.32l-1.49,1.49a8.94,8.94,0,0,1,1.64.95l1.43-1.43A11,11,0,0,0,37.18,22.32Z"/><path class="cls-3" d="M41.88,20.2l1.42-1.42a17.59,17.59,0,0,0-1.47-1.12L40.4,19.09A15.56,15.56,0,0,1,41.88,20.2Z"/><path class="cls-3" d="M43.42,29.5h2.83l.8-.8a15.2,15.2,0,0,0-.65-2.17Z"/><path class="cls-3" d="M43.42,29.5,41.5,31.42a1,1,0,0,0,.38.08h2.37l2-2Z"/><path class="cls-3" d="M47,28.7l1.64-1.64A17.25,17.25,0,0,0,47.93,25L46.4,26.52A15.2,15.2,0,0,1,47,28.7Z"/><path class="cls-3" d="M44.5,23,41.3,26.2a11,11,0,0,1,1,1.87l3.32-3.32A15.5,15.5,0,0,0,44.5,23Z"/><path class="cls-3" d="M45.58,24.75l1.47-1.47a17.52,17.52,0,0,0-1.14-1.69L44.5,23A15.5,15.5,0,0,1,45.58,24.75Z"/><path class="cls-3" d="M41.3,26.2l-1.46,1.46a8.94,8.94,0,0,1,.81,2l1.6-1.6A11,11,0,0,0,41.3,26.2Z"/><path class="cls-3" d="M41.88,20.2l-3.13,3.13a11,11,0,0,1,1.45,1.38l3.13-3.13A15.61,15.61,0,0,0,41.88,20.2Z"/><path class="cls-3" d="M38.75,23.34l-1.43,1.43a9,9,0,0,1,1.46,1.37l1.42-1.42A11,11,0,0,0,38.75,23.34Z"/><path class="cls-3" d="M43.33,21.59l1.41-1.41a17.65,17.65,0,0,0-1.44-1.39L41.88,20.2A15.61,15.61,0,0,1,43.33,21.59Z"/><path class="cls-3" d="M38.59,18.08l-3.4,3.4a10.84,10.84,0,0,1,2,.84l3.23-3.23A15.44,15.44,0,0,0,38.59,18.08Z"/><path class="cls-3" d="M35.19,21.48l-1.61,1.61a1,1,0,0,0,.23.09,8.81,8.81,0,0,1,1.88.63l1.49-1.49A10.84,10.84,0,0,0,35.19,21.48Z"/><path class="cls-3" d="M40.4,19.09l1.43-1.43a17.46,17.46,0,0,0-1.76-1.07l-1.49,1.49A15.44,15.44,0,0,1,40.4,19.09Z"/><path class="cls-3" d="M35,16.88v2.2l1.73-1.73A15.14,15.14,0,0,0,35,16.88Z"/><path class="cls-3" d="M35,16.88a15.14,15.14,0,0,1,1.73.46l1.57-1.57a17.2,17.2,0,0,0-2.15-.67L33,18.25v2.83l2-2Z"/></svg>