<svg id="Layer_1" data-name="Layer 1" xmlns="http://www.w3.org/2000/svg" viewBox="0 0 64 64"><defs><style>.cls-1,.cls-2{fill:#282c19;}.cls-2{font-size:2.72px;font-family:MyriadPro-Regular, Myriad Pro;}.cls-3{fill:#ffd939;}</style></defs><title>Artboard 13 copy 31</title><path class="cls-1" d="M53,33.27a.47.47,0,0,0-.68-.43,3.21,3.21,0,0,1-1.85.68c-.87-.09-.6-2-.6-2s.19-1.78-.32-1.93-1.14.46-1.14.46a6.4,6.4,0,0,0-1.16,2l-.1,0a14,14,0,0,0,0-2.38c-.1-.22-1-.2-1.19.19a23.75,23.75,0,0,0-1,4.25,7.12,7.12,0,0,1-2.74,1.45c-1.28.2-1.58-.6-1.58-.6s3.47-1,3.35-3.74-2.8-1.75-3.1-1.52a5.4,5.4,0,0,0-2.32,3.78c0,.09,0,.48,0,.48a12,12,0,0,1-2.09,1.14S38.53,31.57,36,30c-1.16-.7-2.08.77-2.08.77s3.45-3.84,2.69-7.09c-.36-1.55-1.14-1.71-1.85-1.46a3.22,3.22,0,0,0-1.49,1.05,11.88,11.88,0,0,0-1.72,5c-.32,3-.8,6.65-.8,6.65a2.53,2.53,0,0,1-1.28.68c-.61,0-.34-1.82-.34-1.82s.48-2.82.44-3.3-.07-.73-.63-.9-1.17.54-1.17.54S26.14,32.57,26,32.94l-.09.15-.09-.1s1.14-3.33.05-3.39-1.8,1.19-1.8,1.19-1.24,2.08-1.29,2.31l-.09-.1a16.68,16.68,0,0,0,.41-3,.55.55,0,0,0-.66-.48s-.71-.09-.9.37a33.67,33.67,0,0,0-1,4.47,7.27,7.27,0,0,1-3,1.29c-1.17,0-1.05-.74-1.05-.74s4.3-1.47,3.13-4.38a2.13,2.13,0,0,0-2-1,3,3,0,0,0-2.62,2.11,6.79,6.79,0,0,0-.5,2h0a1.68,1.68,0,0,1-1.19-.19c-.41-.34-.63,0-.63,0s-.71.88,0,1.15a8.54,8.54,0,0,0,1.78.39h0A3.28,3.28,0,0,0,15.78,37c1.28,1,3.73-.08,3.73-.08l1-.56s0,.92.77,1.06,1,0,2.31-3.1c.75-1.58.8-1.5.8-1.5l.09,0a16.46,16.46,0,0,0-.36,3.84c.22.82,1.19.73,1.19.73s.53.09,1-1.41a22.4,22.4,0,0,1,1.24-3.16h.1s-.36,3.11.19,4.1,2,.34,2,.34a9.83,9.83,0,0,0,1.14-.65,4,4,0,0,0,2.82.82c3.69-.73,5-1.71,5-1.71a3,3,0,0,0,2.6,1.76,4.32,4.32,0,0,0,3.47-1.24,1.37,1.37,0,0,0,.77,1.24c.78.32,1.31-1.51,1.31-1.51l1.31-3.62h.12s.07,2.36,1.36,2.73,3-.87,3-.87A.87.87,0,0,0,53,33.27Zm-36.59.34c.05-2,1.38-2.91,1.84-2.47s.29,1.39-.58,2S16.38,33.61,16.38,33.61Zm17.27-7.84s1.21-3.15,1.5-1.62-2.53,6.09-2.53,6.09A34.69,34.69,0,0,1,33.64,25.77Zm1.45,8.76a2,2,0,0,1-2.74,1.24,5.87,5.87,0,0,1,.41-2.84c.63-2.09,2.11-1.28,2.11-1.28S35.89,32.43,35.09,34.53Zm5.36-.92A2.88,2.88,0,0,1,41,31.67c.7-1.28,1.24-.58,1.24-.58a1.26,1.26,0,0,1-.09,1.62A2,2,0,0,1,40.45,33.61Z"/><text class="cls-2" transform="translate(46.85 38.32)">®</text><rect class="cls-3" x="31" y="40" width="16" height="2"/><rect class="cls-3" x="15" y="25" width="14" height="2"/></svg>