<?xml-stylesheet type="text/css" href="style.css" ?>
<svg id="Layer_1" data-name="Layer 1" xmlns="http://www.w3.org/2000/svg" viewBox="0 0 64 64"><defs><style>.cls-1,.cls-2,.cls-3{fill:none;}.cls-1{stroke:#282c19;stroke-linejoin:round;fill-rule:evenodd;}.cls-1,.cls-2{stroke-linecap:round;stroke-width:2px;}.cls-2{stroke:#ffd939;}.cls-2,.cls-5{stroke-miterlimit:10;}.cls-4,.cls-5{fill:#282c19;}.cls-5{stroke:#fff;}.cls-6{fill:#fff;}</style></defs><title>Artboard 1</title><path class="cls-1" d="M37.15,25.29c1.71.86,2.57.93,2.57,1.71l.86,24L19.38,37.71,15.72,20.14c-.19-1.34.86-1.71,1.71-1.71l6,1.71c.86,0,.86-.86,1.71-.86L32,21.86c.86,0,0,1.71.67,1.78l1.56.78Z"/><line class="cls-2" x1="37.15" y1="44.14" x2="21.72" y2="34.71"/><line class="cls-2" x1="36.29" y1="38.14" x2="20.86" y2="29.57"/><path class="cls-3" d="M20.28,37.2,40.67,49.29,41.44,46,38.93,26,41.44,46l5.31-22.56-22.8-6.84-.85,4.6.19.06-.19-.06L20.17,37A1.21,1.21,0,0,0,20.28,37.2Z"/><path class="cls-4" d="M47.53,22.07,24.07,15a6.36,6.36,0,0,0-.64,0,.91.91,0,0,0-.92.81l-.64,3.44,1.42.47-1.42-.47-.27,1.47,1.5.5.33-4.51,23.14,6.86-6,24L41.43,51h0l6.88-27.37A1.47,1.47,0,0,0,47.53,22.07Z"/><line class="cls-2" x1="36.29" y1="32.14" x2="20.86" y2="24.43"/><circle class="cls-5" cx="40.69" cy="48.31" r="6.31"/><path class="cls-6" d="M39.21,49.38a.23.23,0,0,1-.08.19.26.26,0,0,1-.17.07l-.1,0-2.15-1a.39.39,0,0,1-.16-.15.4.4,0,0,1-.06-.22.36.36,0,0,1,.06-.2.39.39,0,0,1,.16-.14l2.15-1,.1,0a.25.25,0,0,1,.17.07.24.24,0,0,1,.08.19.27.27,0,0,1,0,.14.23.23,0,0,1-.11.1l-2,.85,2,.85a.23.23,0,0,1,.11.09A.26.26,0,0,1,39.21,49.38Z"/><path class="cls-6" d="M41.58,46.42a.35.35,0,0,1,0,.08l-1.26,3.78a.25.25,0,0,1-.1.13.27.27,0,0,1-.15,0,.25.25,0,0,1-.19-.07.24.24,0,0,1-.07-.18.25.25,0,0,1,0-.08l1.26-3.78a.26.26,0,0,1,.1-.13.27.27,0,0,1,.16,0,.24.24,0,0,1,.18.08A.26.26,0,0,1,41.58,46.42Z"/><path class="cls-6" d="M44.9,48.29a.4.4,0,0,1-.06.22.39.39,0,0,1-.16.15l-2.15,1-.1,0a.26.26,0,0,1-.17-.07.23.23,0,0,1-.08-.18.26.26,0,0,1,0-.14.23.23,0,0,1,.11-.09l2-.85-2-.85a.22.22,0,0,1-.12-.1.27.27,0,0,1,0-.14.22.22,0,0,1,.07-.19.27.27,0,0,1,.18-.07l.1,0,2.15,1a.4.4,0,0,1,.16.14A.36.36,0,0,1,44.9,48.29Z"/></svg>
