<svg id="Layer_1" data-name="Layer 1" xmlns="http://www.w3.org/2000/svg" viewBox="0 0 64 64"><defs><style>.cls-1,.cls-2,.cls-3{fill:none;}.cls-1{stroke:#282c19;stroke-linejoin:round;fill-rule:evenodd;}.cls-1,.cls-2{stroke-linecap:round;stroke-width:2px;}.cls-2{stroke:#ffd939;stroke-miterlimit:10;}.cls-4{fill:#282c19;}</style></defs><title>Artboard 13</title><path class="cls-1" d="M37.15,25.29c1.71.86,2.57.93,2.57,1.71l.86,24L19.38,37.71,15.72,20.14c-.19-1.34.86-1.71,1.71-1.71l6,1.71c.86,0,.86-.86,1.71-.86L32,21.86c.86,0,0,1.71.67,1.78l1.56.78Z"/><line class="cls-2" x1="37.15" y1="44.14" x2="21.72" y2="34.71"/><line class="cls-2" x1="36.29" y1="38.14" x2="20.86" y2="29.57"/><path class="cls-3" d="M20.28,37.2,40.67,49.29,41.44,46,38.93,26,41.44,46l5.31-22.56-22.8-6.84-.85,4.6.19.06-.19-.06L20.17,37A1.21,1.21,0,0,0,20.28,37.2Z"/><path class="cls-4" d="M47.53,22.07,24.07,15a6.36,6.36,0,0,0-.64,0,.91.91,0,0,0-.92.81l-.64,3.44,1.42.47-1.42-.47-.27,1.47,1.5.5.33-4.51,23.14,6.86-6,24L41.43,51h0l6.88-27.37A1.47,1.47,0,0,0,47.53,22.07Z"/><line class="cls-2" x1="36.29" y1="32.14" x2="20.86" y2="24.43"/></svg>