<?xml version="1.0" encoding="UTF-8"?>
<svg width="38px" height="38px" viewBox="0 0 38 38" version="1.1" xmlns="http://www.w3.org/2000/svg" xmlns:xlink="http://www.w3.org/1999/xlink">
    <!-- Generator: Sketch 46.2 (44496) - http://www.bohemiancoding.com/sketch -->
    <title>Artboard</title>
    <desc>Created with Sketch.</desc>
    <defs></defs>
    <g id="Page-1" stroke="none" stroke-width="1" fill="none" fill-rule="evenodd">
        <g id="Artboard">
            <g id="FMwebintegration" transform="translate(1.000000, 0.000000)">
                <path d="M5.28,23.2 L25.67,35.29 L26.44,32 L23.93,12 L26.44,32 L31.75,9.44 L8.95,2.6 L8.1,7.2 L8.29,7.26 L8.1,7.2 L5.17,23 C5.20028271,23.0699839 5.2371132,23.1369484 5.28,23.2 Z" id="Shape"></path>
                <path d="M29.29,18.7 L25.57,33.57 L26.43,37 L31.18,18.11 C30.5715809,18.3700959 29.9383366,18.5677753 29.29,18.7 Z" id="Shape" fill="#9B9B9B" fill-rule="nonzero"></path>
                <polygon id="Shape" fill="#282C19" fill-rule="nonzero" points="6.6 6.72 8.1 7.22 8.21 5.7 6.87 5.25"></polygon>
                <path d="M9.07,1 C8.85680101,0.989293157 8.64319899,0.989293157 8.43,1 C7.96020753,0.991998628 7.5615649,1.34297747 7.51,1.81 L6.87,5.25 L8.21,5.7 L8.43,2.7 L18.1,5.56 C18.3131184,5.01785107 18.5741519,4.49578405 18.88,4 L9.07,1 Z" id="Shape" fill="#9B9B9B" fill-rule="nonzero"></path>
                <path d="M28.31,0.36 C25.6814435,0.35714099 23.1931828,1.54556859 21.5433269,3.5918562 C19.8934711,5.63814381 19.2597643,8.32183856 19.82,10.89 L21.14,11.29 C22.85,12.15 23.71,12.22 23.71,13 L23.83,16.49 C26.9742039,18.3698404 30.9601055,18.0733471 33.791579,15.7490029 C36.6230525,13.4246588 37.6904617,9.5729115 36.4592517,6.12270279 C35.2280418,2.67249408 31.9633009,0.366678301 28.3,0.36 L28.31,0.36 Z" id="Shape" fill="#9B9B9B" fill-rule="nonzero"></path>
                <circle id="Oval" stroke="#4A4A4A" stroke-width="0.75" cx="28.31" cy="9.05" r="5.36"></circle>
                <path d="M24.33,12.63 C25.3469814,11.4898405 26.8021863,10.8378565 28.33,10.8378565 C29.8578137,10.8378565 31.3130186,11.4898405 32.33,12.63" id="Shape" stroke="#4A4A4A" stroke-width="0.75"></path>
                <path d="M32.29,5.46 C31.2730186,6.60015949 29.8178137,7.2521435 28.29,7.2521435 C26.7621863,7.2521435 25.3069814,6.60015949 24.29,5.46" id="Shape" stroke="#4A4A4A" stroke-width="0.75"></path>
                <ellipse id="Oval" stroke="#4A4A4A" stroke-width="0.75" cx="28.31" cy="9.05" rx="3.2" ry="5.36"></ellipse>
                <path d="M22.95,9.05 L33.67,9.05" id="Shape" stroke="#4A4A4A" stroke-width="0.75"></path>
                <path d="M28.31,3.69 L28.31,14.41" id="Shape" stroke="#4A4A4A" stroke-width="0.75"></path>
                <path d="M22.15,11.29 C23.86,12.15 24.72,12.22 24.72,13 L25.58,37 L4.38,23.71 L0.72,6.14 C0.53,4.8 1.58,4.43 2.43,4.43 L8.43,6.14 C9.29,6.14 9.29,5.28 10.14,5.28 L17,7.86 C17.86,7.86 17,9.57 17.67,9.64 L19.23,10.42 L22.15,11.29 Z" id="Shape" stroke="#9B9B9B" stroke-width="2" stroke-linecap="round" stroke-linejoin="round"></path>
            </g>
        </g>
    </g>
</svg>