<svg id="Layer_1" data-name="Layer 1" xmlns="http://www.w3.org/2000/svg" viewBox="0 0 64 64"><defs><style>.cls-1,.cls-4,.cls-5{fill:none;}.cls-2{fill:#282c19;}.cls-3{fill:#ffd939;}.cls-4{stroke:#fff;stroke-miterlimit:10;stroke-width:0.75px;}.cls-5{stroke:#282c19;stroke-linecap:round;stroke-linejoin:round;stroke-width:2px;fill-rule:evenodd;}</style></defs><title>Artboard 13 copy 11</title><path class="cls-1" d="M20.28,37.2,40.67,49.29,41.44,46,38.93,26,41.44,46l5.31-22.56-22.8-6.84-.85,4.6.19.06-.19-.06L20.17,37A1.21,1.21,0,0,0,20.28,37.2Z"/><path class="cls-2" d="M44.29,32.7,40.57,47.57,41.43,51l4.75-18.89A9.78,9.78,0,0,1,44.29,32.7Z"/><polygon class="cls-2" points="21.6 20.72 23.1 21.22 23.21 19.7 21.87 19.25 21.6 20.72"/><path class="cls-2" d="M24.07,15a6.38,6.38,0,0,0-.64,0,.91.91,0,0,0-.92.81l-.64,3.44,1.34.45.22-3,9.67,2.86A9.8,9.8,0,0,1,33.88,18Z"/><path class="cls-3" d="M43.31,14.36a8.68,8.68,0,0,0-8.49,10.53l1.32.4c1.71.86,2.57.93,2.57,1.71l.12,3.49a8.68,8.68,0,1,0,4.47-16.13Z"/><circle class="cls-4" cx="43.31" cy="23.05" r="5.36"/><path class="cls-4" d="M39.33,26.63a5.36,5.36,0,0,1,8,0"/><path class="cls-4" d="M47.29,19.46a5.36,5.36,0,0,1-8,0"/><ellipse class="cls-4" cx="43.31" cy="23.05" rx="3.2" ry="5.36"/><line class="cls-4" x1="37.95" y1="23.05" x2="48.67" y2="23.05"/><line class="cls-4" x1="43.31" y1="17.69" x2="43.31" y2="28.41"/><path class="cls-5" d="M37.15,25.29c1.71.86,2.57.93,2.57,1.71l.86,24L19.38,37.71,15.72,20.14c-.19-1.34.86-1.71,1.71-1.71l6,1.71c.86,0,.86-.86,1.71-.86L32,21.86c.86,0,0,1.71.67,1.78l1.56.78Z"/></svg>