<?xml version="1.0" encoding="utf-8"?>
<!-- Generator: Adobe Illustrator 22.0.1, SVG Export Plug-In . SVG Version: 6.00 Build 0)  -->
<svg version="1.1" id="Layer_1" xmlns="http://www.w3.org/2000/svg" xmlns:xlink="http://www.w3.org/1999/xlink" x="0px" y="0px"
	 viewBox="0 0 64 64" style="enable-background:new 0 0 64 64;" xml:space="preserve">
<style type="text/css">
	.st0{fill:#FFD939;stroke:#000000;stroke-width:2;stroke-linecap:round;stroke-linejoin:round;stroke-miterlimit:10;}
	.st1{fill:#FFFFFF;stroke:#000000;stroke-miterlimit:10;}
	.st2{fill:#FFD939;stroke:#000000;stroke-linecap:round;stroke-linejoin:round;stroke-miterlimit:10;}
	.st3{fill:none;stroke:#000000;stroke-width:2;stroke-linecap:round;stroke-linejoin:round;stroke-miterlimit:10;}
	.st4{fill:none;stroke:#FFD939;stroke-width:2;stroke-linecap:round;stroke-linejoin:round;stroke-miterlimit:10;}
</style>
<title>Artboard 13 copy 2</title>
<path class="st0" d="M82.5,29.9c0,2.8-5,10.5-5,10.5s-5-7.7-5-10.5s2.2-5.1,5-5.1S82.5,27.1,82.5,29.9z"/>
<circle class="st1" cx="77.5" cy="29.4" r="1.8"/>
<g>
	<path class="st2" d="M38.2,31c-3.4,0-6.3,2.8-6.3,6.2c0,2.7,4,9.6,6.3,13.1c2.2-3.5,6.3-10.4,6.3-13.1C44.4,33.7,41.6,31,38.2,31z"
		/>
	<circle class="st1" cx="38.2" cy="36.7" r="2.5"/>
</g>
<polyline class="st3" points="47.3,41.7 50.6,42.3 50.6,17.7 40.7,16.1 31.1,20.5 23.1,16.7 13.5,20.3 13.5,44.9 23.1,41.3 
	30.8,44.7 "/>
<line class="st4" x1="23.1" y1="21.4" x2="23.1" y2="37"/>
<line class="st4" x1="31.1" y1="24.5" x2="31.1" y2="30.5"/>
<line class="st4" x1="40.9" y1="20.3" x2="40.9" y2="28.2"/>
</svg>
