<svg id="Layer_1" data-name="Layer 1" xmlns="http://www.w3.org/2000/svg" viewBox="0 0 64 64"><defs><style>.cls-1,.cls-2{fill:none;stroke-linecap:round;stroke-width:2px;}.cls-1,.cls-4{stroke:#282c19;}.cls-1{stroke-linejoin:round;stroke-dasharray:2 4;}.cls-2,.cls-3{stroke:#ffd939;}.cls-2,.cls-3,.cls-4{stroke-miterlimit:10;}.cls-3{fill:#ffd939;}.cls-3,.cls-4{stroke-width:1.3px;}.cls-4{fill:#282c19;}</style></defs><title>Artboard 3</title><path class="cls-1" d="M44.34,21.38c-7.06,0-14,5-14,12.1S23.31,44.9,16.25,44.9"/><path class="cls-2" d="M45.17,43.23c-7.06,0-14.8-5-14.8-12.1S23.31,19.7,16.25,19.7"/><path class="cls-3" d="M46.65,45.61a.28.28,0,0,1,.05-.17l1.67-2.25L46.63,41a.28.28,0,0,1,.43-.35L49,43.08v.19l-.06.08-1.79,2.42a.28.28,0,0,1-.5-.16Z"/><path class="cls-4" d="M46.65,19.3a.28.28,0,0,0,.05.17l1.67,2.25-1.75,2.19a.28.28,0,0,0,.43.35L49,21.83v-.19l-.06-.08-1.79-2.42a.28.28,0,0,0-.5.16Z"/></svg>