<svg id="Layer_1" data-name="Layer 1" xmlns="http://www.w3.org/2000/svg" viewBox="0 0 64 64"><defs><style>.cls-1,.cls-2,.cls-5{fill:none;stroke-width:2px;}.cls-1,.cls-2{stroke:#282c19;}.cls-1,.cls-5{stroke-miterlimit:10;}.cls-2{stroke-linecap:round;stroke-linejoin:round;stroke-dasharray:2 4;}.cls-3{fill:#ffd939;}.cls-4{fill:#282c19;}.cls-5{stroke:#ffd939;}</style></defs><title>Artboard 9</title><path class="cls-1" d="M27,19H41.76A6.24,6.24,0,0,1,48,25.24v.53A6.24,6.24,0,0,1,41.76,32H33"/><path class="cls-2" d="M34,45H22.24A6.24,6.24,0,0,1,16,38.76v-.53A6.24,6.24,0,0,1,22.24,32H27"/><path class="cls-3" d="M43,45.34v-.62h3.19V43.55a.41.41,0,0,0-.41-.41H43v3.77h2.78a.41.41,0,0,0,.41-.41V45.33Z"/><path class="cls-4" d="M38.38,44.73H35.81V45.9a.41.41,0,0,0,.41.41h2.16V43.77H36.22a.41.41,0,0,0-.41.41v.55Z"/><path class="cls-4" d="M43,42.07H39.37a2.31,2.31,0,0,0-2.31,2.32v1.3A2.31,2.31,0,0,0,39.39,48H43ZM41.4,46.73a.43.43,0,0,1-.38-.23.42.42,0,0,1-.05-.2V43.77a.43.43,0,1,1,.86,0V46.3A.43.43,0,0,1,41.4,46.73Z"/><path class="cls-3" d="M19.5,18.72v.62H16.3v1.16a.41.41,0,0,0,.41.41H19.5V17.14H16.71a.41.41,0,0,0-.41.41v1.16Z"/><path class="cls-4" d="M24.11,19.33h2.57V18.16a.41.41,0,0,0-.41-.41H24.1v2.54h2.16a.41.41,0,0,0,.41-.41v-.55Z"/><path class="cls-4" d="M25.42,18.37a2.31,2.31,0,0,0-2.32-2.31H19.49V22h3.61a2.31,2.31,0,0,0,2.31-2.32ZM21.1,20.72a.43.43,0,0,1-.43-.43V17.76a.43.43,0,0,1,.81-.2.42.42,0,0,1,.05.2v2.54A.43.43,0,0,1,21.1,20.72Z"/><circle class="cls-5" cx="29.74" cy="32.04" r="1.47"/></svg>