<svg id="Layer_1" data-name="Layer 1" xmlns="http://www.w3.org/2000/svg" viewBox="0 0 64 64"><defs><style>.cls-1,.cls-2{fill:none;stroke-width:2px;}.cls-1{stroke:#292929;stroke-linecap:round;stroke-linejoin:round;}.cls-2{stroke:#ffd939;stroke-miterlimit:10;}</style></defs><title>Artboard 11</title><path class="cls-1" d="M30,38.68l.11.23a8.15,8.15,0,0,0,4.47,3.84,11.11,11.11,0,0,0,5.84.45,7.37,7.37,0,0,0,3.32-1.42,5.58,5.58,0,0,0,2.18-3.93,7,7,0,0,0-.6-3.94,6.9,6.9,0,0,0-2.68-2.74,27.43,27.43,0,0,0-3.76-1.82,9,9,0,0,1-2.22-1.19A2,2,0,0,1,36,26a1.8,1.8,0,0,1,1.52-1.39,2.9,2.9,0,0,1,3.1,1.2c.16.22.3.45.46.69l3.57-2.29a6.76,6.76,0,0,0-3.38-3.14,8.64,8.64,0,0,0-4.14-.49,6.68,6.68,0,0,0-3.51,1.35,5.61,5.61,0,0,0-2.22,4.35A6.24,6.24,0,0,0,33,31.07,8.9,8.9,0,0,0,35.75,33c1.16.55,2.35,1,3.51,1.59a7.09,7.09,0,0,1,1.38.85,2,2,0,0,1,.62,2.33A2.21,2.21,0,0,1,39.93,39a4.85,4.85,0,0,1-2.84.16,4.7,4.7,0,0,1-2.8-1.9c-.18-.24-.35-.49-.53-.75Z"/><path class="cls-1" d="M23,21c0,.16,0,.29,0,.42q0,7.53,0,15.05a8.6,8.6,0,0,1-.09,1.16,1.89,1.89,0,0,1-1.53,1.77,2.73,2.73,0,0,1-3.15-1.23c-.23-.33-.43-.68-.66-1l-3.73,2.26A6.9,6.9,0,0,0,17.42,43a8.54,8.54,0,0,0,5,.5,6.12,6.12,0,0,0,4.7-3.78,9.35,9.35,0,0,0,.47-3.25q0-7.7,0-15.41H23Z"/><line class="cls-2" x1="21.8" y1="17.34" x2="27.51" y2="17.34"/><line class="cls-2" x1="35.65" y1="46.66" x2="41.35" y2="46.66"/></svg>