<svg xmlns="http://www.w3.org/2000/svg" width="64" height="64" viewBox="0 0 64 64">
  <g fill="none" fill-rule="evenodd">
    <path fill="#FFF" fill-opacity=".96" stroke="#FFD939" stroke-width=".748" d="M17.0012104,7.9966457 L3.64830364,15.1172896 C2.73797068,15.6027387 2,16.8341702 2,17.8634249 L2,32 L2,46.1299907 C2,47.16071 2.74391236,48.3929758 3.64830364,48.8752564 L17.0012104,55.9959003 L30.3541172,63.1205252 C31.2644502,63.6062457 32.7461731,63.6030755 33.6503698,63.1205252 L47.0004035,55.9959003 L60.3518737,48.8752564 C61.2621087,48.3898073 62,47.1587661 62,46.1299907 L62,32 L62,17.8634249 C62,16.8322254 61.2561677,15.5995702 60.3518737,15.1172896 L47.0004035,7.9966457 L33.6503698,0.878655778 C32.7402327,0.393387592 31.2585085,0.396554904 30.3541172,0.878655778 L17.0012104,7.9966457 Z"/>
    <g fill="#FFD939" transform="translate(10.954 8.185)">
      <path d="M22.1073077,47.1192661 C25.7625,43.9045872 26.9955769,40.5137615 26.9955769,40.5137615 C27.5680769,38.7963303 28.2286538,37.387156 28.2286538,30.693578 C28.2286538,20.6091743 24.4853846,17.306422 20.4338462,14.2678899 C17.7034615,12.1981651 10.7013462,9.46788991 6.56173077,7.9266055 L0.748653846,11.2293578 C0.396346154,11.493578 0.176153846,11.7137615 0,11.9779817 C10.4811538,14.3119266 18.0117308,21.3137615 18.0117308,29.5926606 C18.0117308,34.612844 15.1932692,39.1926606 10.7013462,42.4954128 L19.4209615,47.5155963 C19.5971154,47.6036697 19.9934615,47.7798165 20.5659615,47.7798165 C20.8301923,47.7798165 21.3146154,47.6917431 21.8871154,47.2073394 L22.1073077,47.1192661 Z"/>
      <path d="M10.1288462 5.86782159L19.4209615 8.9944271C28.4928846 12.209106 32.2801923 16.6568124 32.2801923 16.6568124 37.2565385 21.6329592 36.6840385 27.1375464 36.6840385 33.8311243 36.6840385 35.5045188 36.4198077 37.3980968 36.0234615 39.2036014L40.9998077 36.3852528C42.1448077 35.7247023 42.1448077 34.315528 42.1448077 34.315528L42.1448077 12.9136932C42.1448077 11.5045188 40.9998077 10.8439684 40.9998077 10.8439684L31.9719231 5.82378489 22.3275.275161041C21.2265385-.297316023 20.0815385.187087646 19.9934615.275161041L10.2169231 5.86782159 10.1288462 5.86782159zM.0440384615 14.0917431L.0440384615 34.6568807C.0440384615 35.8018349.968846154 36.4623853 1.18903846 36.6385321L6.51769231 39.6770642 7.83884615 40.4256881C10.7453846 37.5192661 12.5069231 33.8201835 12.5509615 29.7688073 12.5509615 22.8990826 7.39846154 16.9541284 0 14.0917431L.0440384615 14.0917431z"/>
    </g>
  </g>
</svg>
