<svg id="Layer_1" data-name="Layer 1" xmlns="http://www.w3.org/2000/svg" viewBox="0 0 64 64"><defs><style>.cls-1,.cls-2,.cls-3,.cls-4{fill:none;stroke-width:2px;}.cls-1,.cls-2{stroke:#282c19;}.cls-1,.cls-3{stroke-linecap:round;stroke-linejoin:round;}.cls-1{stroke-dasharray:2 4;}.cls-2,.cls-4{stroke-miterlimit:10;}.cls-3,.cls-4{stroke:#ffd939;}</style></defs><title>Artboard 2</title><path class="cls-1" d="M28.11,45l-5.36,1.53c-.82.17-1.65-.89-1.82-1.71L15.7,19.38c-.17-.82,0-1.63.83-1.79l13.16-3.07c.82-.17,1.65.89,1.82,1.71l1.16,8.4"/><rect class="cls-2" x="30.54" y="19.81" width="15.88" height="29.53" rx="2.06" ry="2.06" transform="translate(8.12 -7.31) rotate(12.12)"/><line class="cls-2" x1="44.4" y1="43.53" x2="29.13" y2="40.27"/><line class="cls-2" x1="48.64" y1="25.06" x2="33.12" y2="21.73"/><line class="cls-3" x1="41.55" y1="33.89" x2="33.45" y2="32.15"/><circle class="cls-2" cx="36.2" cy="45.2" r="1.45" transform="translate(-15.6 71.1) rotate(-77.88)"/><rect class="cls-4" x="34.13" y="26.73" width="10.98" height="3.96" transform="translate(6.91 -7.68) rotate(12.12)"/><line class="cls-3" x1="42.88" y1="37.28" x2="32.81" y2="35.11"/><line class="cls-3" x1="37.93" y1="38.9" x2="32.15" y2="37.65"/></svg>