<svg id="Layer_1" data-name="Layer 1" xmlns="http://www.w3.org/2000/svg" viewBox="0 0 64 64"><defs><style>.cls-1,.cls-2{fill:none;stroke-linejoin:round;stroke-width:2px;}.cls-1{stroke:#282c19;}.cls-2{stroke:#ffd939;stroke-linecap:round;}</style></defs><title>Artboard 13 copy 33</title><polygon class="cls-1" points="47.08 22.95 32 14.25 42.31 32.11 47.08 22.96 47.08 22.95"/><polygon class="cls-1" points="47 22.96 42.23 32.11 47 40.37 47 22.96"/><polygon class="cls-1" points="17 22.96 17 40.25 22.45 32.41 17 22.96"/><polygon class="cls-1" points="32.08 49.08 22.45 32.41 17 40.25 17 40.37 32.08 49.08"/><polygon class="cls-1" points="47.08 40.37 32 14.25 32 14.25 16.92 22.95 16.92 22.96 32 49.08 47.08 40.37 47.08 40.37"/><line class="cls-2" x1="22.42" y1="23.57" x2="29.8" y2="36.35"/><line class="cls-2" x1="39.54" y1="35.64" x2="41.23" y2="38.56"/><line class="cls-2" x1="36.93" y1="31.12" x2="36.51" y2="30.39"/></svg>