<svg id="Layer_1" data-name="Layer 1" xmlns="http://www.w3.org/2000/svg" viewBox="0 0 64 64"><defs><style>.cls-1{fill:#ffd939;}.cls-2{fill:#282c19;}</style></defs><title>Artboard 13 copy 13</title><rect class="cls-1" x="15" y="40" width="33" height="2"/><path class="cls-2" d="M39,24a17.9,17.9,0,0,1,3.64-.76,5.59,5.59,0,0,1,3.81,1.13,3.65,3.65,0,0,1,1.19,2.85,4,4,0,0,1-1,2.9,5.63,5.63,0,0,1-4.16,1.49A6.1,6.1,0,0,1,41,31.5L41,37H39Zm2,6.06a5.88,5.88,0,0,0,1.45.14c2.12,0,3.41-1,3.41-2.91s-1.27-2.66-3.21-2.66a7.39,7.39,0,0,0-1.66.14Z"/><path class="cls-2" d="M15,24a17.9,17.9,0,0,1,3.64-.76,5.59,5.59,0,0,1,3.81,1.13,3.65,3.65,0,0,1,1.19,2.85,4,4,0,0,1-1,2.9,5.63,5.63,0,0,1-4.16,1.49A6.1,6.1,0,0,1,17,31.5L17,37H15Zm2,6.06a5.88,5.88,0,0,0,1.45.14c2.12,0,3.41-1,3.41-2.91s-1.27-2.66-3.21-2.66a7.39,7.39,0,0,0-1.66.14Z"/><path class="cls-2" d="M28,23v6h6V23h2V37H34V31H28v6H26V23Z"/></svg>