<svg id="Layer_1" data-name="Layer 1" xmlns="http://www.w3.org/2000/svg" viewBox="0 0 64 64"><defs><style>.cls-1,.cls-3{fill:none;stroke-miterlimit:10;stroke-width:2px;}.cls-1{stroke:#ffd939;stroke-linecap:round;}.cls-2{fill:#282c19;}.cls-3{stroke:#282c19;}.cls-4{fill:#ffd939;}</style></defs><title>Artboard 13 copy 22</title><path class="cls-1" d="M44,26H42v8H26V47c0,3.13,2.32,4,5.45,4h3.45A6.33,6.33,0,0,0,41,45V43H34V40H44c3.13,0,6-1.87,6-5V31C50,27.87,47.13,26,44,26Z"/><circle class="cls-2" cx="36.45" cy="46.59" r="0.83"/><path class="cls-3" d="M21,39h2V31H39V18c0-3.13-2.32-4-5.45-4H30.09A6.33,6.33,0,0,0,24,20v2h7v3H21c-3.13,0-6,1.87-6,5v4C15,37.13,17.87,39,21,39Z"/><circle class="cls-4" cx="28.55" cy="18.41" r="0.83"/></svg>