<svg id="Layer_1" data-name="Layer 1" xmlns="http://www.w3.org/2000/svg" viewBox="0 0 64 64"><defs><style>.cls-1,.cls-2,.cls-3,.cls-4,.cls-5{fill:#ffd939;stroke:#ffd939;}.cls-1,.cls-3,.cls-4,.cls-6{stroke-miterlimit:10;}.cls-1,.cls-2{stroke-width:0.5px;}.cls-2,.cls-5{stroke-linejoin:round;}.cls-3{stroke-width:0.75px;}.cls-6{fill:#282c19;stroke:#282c19;stroke-width:0.1px;}</style></defs><title>Artboard 10</title><path class="cls-1" d="M37.22,15.89l-.28-.7a.24.24,0,0,0-.23-.16,8.79,8.79,0,0,0-1.23.13l.26.67A.25.25,0,0,0,36,16C36.41,15.95,36.81,15.92,37.22,15.89Z"/><path class="cls-1" d="M40.32,22.41l.29.64a.24.24,0,0,0,.32.12,8.38,8.38,0,0,1,1.18-.43l-.29-.65a.25.25,0,0,0-.29-.13A10.72,10.72,0,0,0,40.32,22.41Z"/><path class="cls-2" d="M44.93,21.95l-.22.57a5.36,5.36,0,0,1,.87.39l.21-.56A6.8,6.8,0,0,0,44.93,21.95Z"/><path class="cls-2" d="M45.75,16.61l-.29.53a5.36,5.36,0,0,1,.82.5l.28-.53A6.8,6.8,0,0,0,45.75,16.61Z"/><path class="cls-1" d="M28.78,18.82,29,18.7,28.1,18a.4.4,0,0,0-.48,0A18.28,18.28,0,0,0,26.09,19l.82.71a.39.39,0,0,0,.49,0C27.85,19.41,28.31,19.11,28.78,18.82Z"/><path class="cls-1" d="M36.57,26.11l.74.4a.19.19,0,0,0,.27-.1,10.79,10.79,0,0,1,.5-1.08.19.19,0,0,0-.08-.26l-.71-.38a.2.2,0,0,0-.27.08c-.22.39-.4.76-.55,1.09A.19.19,0,0,0,36.57,26.11Z"/><path class="cls-3" d="M22.86,24.85l-.66-.5a.29.29,0,0,0-.39,0l-.63.71a.29.29,0,0,0,0,.42l.68.51a.29.29,0,0,0,.4-.05c.2-.24.39-.48.6-.71A.28.28,0,0,0,22.86,24.85Z"/><path class="cls-3" d="M35.39,31.33l1.06.42a.15.15,0,0,0,.21-.14,9.79,9.79,0,0,1,.12-1.23.16.16,0,0,0-.09-.17l-1-.4a.16.16,0,0,0-.22.11,9.5,9.5,0,0,0-.17,1.25A.16.16,0,0,0,35.39,31.33Z"/><path class="cls-4" d="M35.17,37.28l1.28.53a.15.15,0,0,0,.21-.17A13.69,13.69,0,0,1,36.51,36a.15.15,0,0,0-.09-.14l-1.15-.48a.16.16,0,0,0-.22.14c0,.55,0,1.09,0,1.62A.16.16,0,0,0,35.17,37.28Z"/><path class="cls-4" d="M19.38,31.48,18.48,31a.32.32,0,0,0-.41.12c-.21.34-.41.68-.6,1a.31.31,0,0,0,.14.43l1,.48a.31.31,0,0,0,.42-.15c.16-.34.33-.69.51-1A.31.31,0,0,0,19.38,31.48Z"/><path class="cls-4" d="M16.42,40.81l-1.47-.29a.3.3,0,0,0-.35.22c-.15.56-.29,1.16-.39,1.59a.3.3,0,0,0,.23.35l1.47.29a.3.3,0,0,0,.35-.23c.11-.48.25-1.06.39-1.57A.3.3,0,0,0,16.42,40.81Z"/><path class="cls-5" d="M36,42.2a17.36,17.36,0,0,0,.55,2.09l2.14.39a22.59,22.59,0,0,1-.77-2.12Z"/><path class="cls-6" d="M46.59,21.92l.2-.46-.09-.06-.39-.22q-.4-.21-.82-.38a8.87,8.87,0,0,0-1.74-.5,8.34,8.34,0,0,0-3.61.15,9.91,9.91,0,0,0-3.23,1.66c-3.13,2.47-5.1,8.46-5.1,13.87a72.62,72.62,0,0,0,.83,9A12.18,12.18,0,0,0,33,46.86a.21.21,0,0,0,.19.14h1.9a.2.2,0,0,0,.19-.26l-.37-1.23c-.15-.49-.24-.91-.36-1.37l-.35-1.35-.28-1.36a37.76,37.76,0,0,1-.71-5.5,26.23,26.23,0,0,1,.28-5.51,17.92,17.92,0,0,1,.64-2.67c.15-.43.3-.86.49-1.27.09-.2.19-.41.3-.61l.16-.29.09-.14,0-.07s0,0,0,0l.07-.09a10,10,0,0,1,2.15-2.56,8.27,8.27,0,0,1,2.92-1.6,7.71,7.71,0,0,1,3.33-.22,8.31,8.31,0,0,1,1.64.42q.4.15.78.33Z"/><path class="cls-6" d="M47.45,19.93a12.26,12.26,0,0,0-5.13-2.86,12.61,12.61,0,0,0-6.31,0c-5.36,1.22-8.61,5.09-10.24,7C24,26.2,22.1,29,20.17,35.33a43.48,43.48,0,0,0-1.92,11.46.21.21,0,0,0,.21.21h1.92a.2.2,0,0,0,.18-.11.2.2,0,0,0,0-.09c0-.07-.06-13.9,6-22.13.89-1.2,4.16-5.52,9.59-6.89a12,12,0,0,1,6-.13,11.66,11.66,0,0,1,5.06,2.75Z"/></svg>