<?xml version="1.0" encoding="UTF-8"?>
<svg width="24px" height="24px" viewBox="0 0 24 24" version="1.1" xmlns="http://www.w3.org/2000/svg" xmlns:xlink="http://www.w3.org/1999/xlink">
    <!-- Generator: Sketch 47.1 (45422) - http://www.bohemiancoding.com/sketch -->
    <title>round-facebook-green</title>
    <desc>Created with Sketch.</desc>
    <defs>
        <path d="M12,24 C5.372583,24 0,18.627417 0,12 C0,5.372583 5.372583,0 12,0 C18.627417,0 24,5.372583 24,12 C24,18.627417 18.627417,24 12,24 Z M15.2321515,5.09698283 C15.0061465,5.0646549 14.227686,5 13.323667,5 C11.4319235,5 10.134489,6.11530276 10.134489,8.16002497 L10.134489,9.92188055 L8,9.92188055 L8,12.3141248 L10.134489,12.3141248 L10.134489,18.4482919 L12.695876,18.4482919 L12.695876,12.3141248 L14.8219945,12.3141248 L15.148446,9.92188055 L12.695876,9.92188055 L12.695876,8.39440041 C12.695876,7.70743828 12.8883985,7.230606 13.9179755,7.230606 L15.2321515,7.230606 L15.2321515,5.09698283 Z" id="path-1"></path>
        <filter x="-0.5%" y="-0.5%" width="101.0%" height="101.0%" filterUnits="objectBoundingBox" id="filter-2">
            <feGaussianBlur stdDeviation="0.125" in="SourceAlpha" result="shadowBlurInner1"></feGaussianBlur>
            <feOffset dx="0" dy="0" in="shadowBlurInner1" result="shadowOffsetInner1"></feOffset>
            <feComposite in="shadowOffsetInner1" in2="SourceAlpha" operator="arithmetic" k2="-1" k3="1" result="shadowInnerInner1"></feComposite>
            <feColorMatrix values="0 0 0 0 0   0 0 0 0 0   0 0 0 0 0  0 0 0 0.5 0" type="matrix" in="shadowInnerInner1"></feColorMatrix>
        </filter>
    </defs>
    <g id="Page-1" stroke="none" stroke-width="1" fill="none" fill-rule="evenodd">
        <g id="round-facebook-green">
            <g id="Combined-Shape">
                <use fill="#8BB018" fill-rule="evenodd" xlink:href="#path-1"></use>
                <use fill="black" fill-opacity="1" filter="url(#filter-2)" xlink:href="#path-1"></use>
            </g>
        </g>
    </g>
</svg>