<?xml version="1.0" encoding="UTF-8"?>
<svg width="24px" height="24px" viewBox="0 0 24 24" version="1.1" xmlns="http://www.w3.org/2000/svg" xmlns:xlink="http://www.w3.org/1999/xlink">
    <!-- Generator: Sketch 47.1 (45422) - http://www.bohemiancoding.com/sketch -->
    <title>round-linkedin-green</title>
    <desc>Created with Sketch.</desc>
    <defs>
        <path d="M12,24 C5.372583,24 0,18.627417 0,12 C0,5.372583 5.372583,0 12,0 C18.627417,0 24,5.372583 24,12 C24,18.627417 18.627417,24 12,24 Z M8.18098958,9.54904632 L5.17317708,9.54904632 L5.17317708,19 L8.18098958,19 L8.18098958,9.54904632 Z M8.37239583,6.63079019 C8.36631944,6.16030881 8.21137152,5.7708901 7.90755208,5.46253406 C7.60373264,5.15417802 7.19965277,5 6.6953125,5 C6.19097223,5 5.78233507,5.15417802 5.46940104,5.46253406 C5.15646702,5.7708901 5,6.16030881 5,6.63079019 C5,7.09491372 5.15190973,7.48274296 5.45572917,7.79427793 C5.75954861,8.1058129 6.16059027,8.26158038 6.65885417,8.26158038 L6.67708333,8.26158038 C7.1875,8.26158038 7.59917535,8.1058129 7.91210938,7.79427793 C8.2250434,7.48274296 8.37847223,7.09491372 8.37239583,6.63079019 Z M19,13.5831063 C19,12.1907357 18.6840278,11.1337421 18.0520833,10.4121253 C17.4201389,9.69050863 16.5846354,9.32970027 15.5455729,9.32970027 C15.1627604,9.32970027 14.8148871,9.37897366 14.5019531,9.47752044 C14.1890191,9.57606721 13.9246962,9.71435059 13.7089844,9.89237057 C13.4932726,10.0703906 13.3216146,10.2356948 13.1940104,10.3882834 C13.0664062,10.5408719 12.9418403,10.7188919 12.8203125,10.9223433 L12.8385417,10.9223433 L12.8385417,9.54904632 L9.83984375,9.54904632 L9.84895833,10.006812 C9.85503473,10.3119891 9.85807292,11.2529519 9.85807292,12.8297003 C9.85807292,14.4064487 9.85199652,16.4632153 9.83984375,19 L12.8385417,19 L12.8385417,13.726158 C12.8385417,13.4019074 12.8719618,13.1444142 12.9388021,12.9536785 C13.0664062,12.6294278 13.2593316,12.3576294 13.5175781,12.1382834 C13.7758246,11.9189373 14.0963542,11.8092643 14.4791667,11.8092643 C15.0017361,11.8092643 15.3860677,11.9984105 15.6321615,12.376703 C15.8782552,12.7549955 16.0013021,13.2779292 16.0013021,13.9455041 L16.0013021,19 L19,19 L19,13.5831063 Z" id="path-1"></path>
        <filter x="-0.5%" y="-0.5%" width="101.0%" height="101.0%" filterUnits="objectBoundingBox" id="filter-2">
            <feGaussianBlur stdDeviation="0.125" in="SourceAlpha" result="shadowBlurInner1"></feGaussianBlur>
            <feOffset dx="0" dy="0" in="shadowBlurInner1" result="shadowOffsetInner1"></feOffset>
            <feComposite in="shadowOffsetInner1" in2="SourceAlpha" operator="arithmetic" k2="-1" k3="1" result="shadowInnerInner1"></feComposite>
            <feColorMatrix values="0 0 0 0 0   0 0 0 0 0   0 0 0 0 0  0 0 0 0.5 0" type="matrix" in="shadowInnerInner1"></feColorMatrix>
        </filter>
    </defs>
    <g id="Page-1" stroke="none" stroke-width="1" fill="none" fill-rule="evenodd">
        <g id="round-linkedin-green">
            <g id="Combined-Shape">
                <use fill="#8BB018" fill-rule="evenodd" xlink:href="#path-1"></use>
                <use fill="black" fill-opacity="1" filter="url(#filter-2)" xlink:href="#path-1"></use>
            </g>
        </g>
    </g>
</svg>