<svg id="Layer_1" data-name="Layer 1" xmlns="http://www.w3.org/2000/svg" viewBox="0 0 64 64"><defs><style>.cls-1,.cls-2{fill:none;stroke-linecap:round;stroke-width:2px;}.cls-1{stroke:#292929;stroke-linejoin:round;}.cls-2{stroke:#ffd939;stroke-miterlimit:10;}</style></defs><title>Artboard 12</title><path class="cls-1" d="M24,32l4.28,0c3,0,5.39,0,8.37,0,1.3,0,3,0,4.35,0,0,0,.09-.07.12-.06s-.08.2-.13.29c-2.84,5.71-5.22,11.69-8.06,17.4l-.75.35L32,50h0l-.06-.07h0c0-.09-.8-.21-.84-.3Z"/><path class="cls-1" d="M23.63,32c-.4.08,0,0,0,0L29,24h7l5.3,8Z"/><path class="cls-1" d="M41,32c1.39,0,3.56-.05,5,0,1.2,0,1.85,0,3,0L32.93,49.63Z"/><path class="cls-1" d="M24,32c0,.08,7.05,17.54,7.07,17.63L15,32c1,0,2.06-.06,3,0,1.6,0,4,0,5.58,0H22.7"/><path class="cls-1" d="M23.63,32,15,32l7-8c2.36,0,4.64,0,7,0Z"/><path class="cls-1" d="M36,24c1.22,0,2.78,0,4,0,.88,0,1.12,0,2,0a5.51,5.51,0,0,1,1,1c2,3,4,4.49,6,7,0,0-.26,0-.26,0H46c-1.39,0-3.26,0-4.65,0"/><line class="cls-2" x1="28.02" y1="19.92" x2="23.24" y2="15.14"/><line class="cls-2" x1="35.99" y1="19.92" x2="40.77" y2="15.14"/><line class="cls-2" x1="32" y1="18.33" x2="32" y2="12.75"/></svg>