<svg id="Layer_1" data-name="Layer 1" xmlns="http://www.w3.org/2000/svg" viewBox="0 0 64 64"><defs><style>.cls-1{fill:#282c19;}.cls-2{fill:none;stroke:#ffd939;stroke-linecap:round;stroke-miterlimit:10;stroke-width:2px;}</style></defs><title>Artboard 15</title><path class="cls-1" d="M43.85,47.64c-2.95,1.7-7,1.88-11.07.13A17.32,17.32,0,0,1,25,41.11a13.13,13.13,0,0,0,2.88,1.75c4.21,2,8.42,1.84,11.38,0h0A60.42,60.42,0,0,1,28.78,32a12.87,12.87,0,0,1-1.55-1.86,79.88,79.88,0,0,0,10.33,7.69A49.84,49.84,0,0,1,31,29.16a70,70,0,0,0,11.15,9.35l.45.27a9.24,9.24,0,0,0,.32-1c1-3.58-.14-7.65-2.6-11,5.69,3.44,9.06,9.9,7.65,15.3q-.05.22-.12.43l0,.06c2.81,3.51,2,7.23,1.68,6.53-1.52-3-4.34-2.07-5.78-1.46Z"/><line class="cls-2" x1="35.81" y1="23.44" x2="28.18" y2="15.81"/><line class="cls-2" x1="26.27" y1="36.79" x2="13.87" y2="24.39"/><line class="cls-2" x1="24.37" y1="18.67" x2="22.46" y2="16.76"/><line class="cls-2" x1="24.37" y1="27.25" x2="20.47" y2="23.46"/><line class="cls-2" x1="17.65" y1="20.64" x2="13.87" y2="16.87"/></svg>