<svg id="Layer_1" data-name="Layer 1" xmlns="http://www.w3.org/2000/svg" viewBox="0 0 64 64"><defs><style>.cls-1{fill:#282c19;}.cls-2,.cls-3{fill:#ffd939;}.cls-3{fill-rule:evenodd;}</style></defs><title>Artboard 13 copy 5</title><polygon class="cls-1" points="38.66 31.63 33.18 31.63 33.18 25.67 31.03 25.67 31.03 31.63 25.55 31.63 25.55 33.74 31.03 33.74 31.03 39.69 33.18 39.69 33.18 33.74 38.66 33.74 38.66 31.63"/><polygon class="cls-1" points="27.65 41.34 22.75 41.34 22.75 36.01 20.89 36.01 20.89 41.34 15.98 41.34 15.98 42.97 20.89 42.97 20.89 48.3 22.75 48.3 22.75 42.97 27.65 42.97 27.65 41.34"/><polygon class="cls-2" points="48.23 22.28 43.33 22.28 43.33 16.93 41.47 16.93 41.47 22.28 36.56 22.28 36.56 23.91 41.47 23.91 41.47 29.21 43.33 29.21 43.33 23.91 48.23 23.91 48.23 22.28"/><polygon class="cls-2" points="36.26 47.26 32.93 47.26 32.93 43.54 31.35 43.54 31.35 47.26 28.02 47.26 28.02 48.69 31.35 48.69 31.35 52.41 32.93 52.41 32.93 48.69 36.26 48.69 36.26 47.26"/><polygon class="cls-1" points="27.65 22.28 22.69 22.28 22.69 16.93 20.95 16.93 20.95 22.28 15.98 22.28 15.98 23.86 20.95 23.86 20.95 29.21 22.69 29.21 22.69 23.86 27.65 23.86 27.65 22.28"/><polygon class="cls-2" points="52 31.97 48.67 31.97 48.67 28.25 47.09 28.25 47.09 31.97 43.76 31.97 43.76 33.4 47.09 33.4 47.09 37.12 48.67 37.12 48.67 33.4 52 33.4 52 31.97"/><polygon class="cls-3" points="48.23 41.34 43.33 41.34 43.33 36.01 41.47 36.01 41.47 41.34 36.56 41.34 36.56 42.97 41.47 42.97 41.47 48.3 43.33 48.3 43.33 42.97 48.23 42.97 48.23 41.34"/><polygon class="cls-2" points="31.55 13.13 31.55 16.77 28.25 16.77 28.25 17.88 31.55 17.88 31.55 21.52 32.73 21.52 32.73 17.88 36.02 17.88 36.02 16.77 32.73 16.77 32.73 13.13 31.55 13.13"/><polygon class="cls-2" points="19.95 32.11 16.64 32.11 16.64 28.53 15.48 28.53 15.48 32.11 12.18 32.11 12.18 33.26 15.48 33.24 15.48 36.83 16.64 36.83 16.64 33.23 19.95 33.21 19.95 32.11"/></svg>