<svg id="Layer_1" data-name="Layer 1" xmlns="http://www.w3.org/2000/svg" viewBox="0 0 64 64"><defs><style>.cls-1,.cls-3{fill:none;stroke:#282c19;stroke-width:2px;}.cls-1{stroke-miterlimit:10;}.cls-2{fill:#ffd939;}.cls-3{stroke-linecap:round;stroke-linejoin:round;stroke-dasharray:2 4;}</style></defs><title>Artboard 8</title><path class="cls-1" d="M38.42,36.59l-1.24-.32a1.17,1.17,0,0,1-.88-1,8.07,8.07,0,0,0-.55-1.91A1.18,1.18,0,0,1,36,32.12l.88-.93a.13.13,0,0,0,0-.17L35.6,29.45a.13.13,0,0,0-.16,0l-1.1.65A1.18,1.18,0,0,1,33,30a8.08,8.08,0,0,0-1.74-1A1.17,1.17,0,0,1,30.55,28c0-.43,0-.86,0-1.28a.13.13,0,0,0-.12-.12l-2-.22a.13.13,0,0,0-.14.09c-.11.41-.21.82-.32,1.24a1.17,1.17,0,0,1-1,.88,8.07,8.07,0,0,0-1.91.55,1.18,1.18,0,0,1-1.28-.24L22.87,28a.13.13,0,0,0-.17,0l-1.57,1.25a.13.13,0,0,0,0,.16l.65,1.1a1.18,1.18,0,0,1-.05,1.3,8.07,8.07,0,0,0-1,1.74,1.17,1.17,0,0,1-1.07.74l-1.28,0a.13.13,0,0,0-.12.12l-.22,2a.13.13,0,0,0,.09.14l1.24.32a1.17,1.17,0,0,1,.88,1,8.07,8.07,0,0,0,.55,1.91,1.18,1.18,0,0,1-.24,1.28L19.7,42a.13.13,0,0,0,0,.17l1.25,1.57a.13.13,0,0,0,.16,0l1.1-.65a1.17,1.17,0,0,1,1.3.05,8.07,8.07,0,0,0,1.74,1A1.17,1.17,0,0,1,26,45.21c0,.43,0,.86,0,1.28a.13.13,0,0,0,.12.12l2,.22a.13.13,0,0,0,.14-.09c.11-.41.21-.82.32-1.24a1.17,1.17,0,0,1,1-.88,8.08,8.08,0,0,0,1.91-.55,1.18,1.18,0,0,1,1.28.24l.93.88a.13.13,0,0,0,.17,0l1.57-1.25a.13.13,0,0,0,0-.16l-.65-1.1a1.18,1.18,0,0,1,.05-1.3,8.07,8.07,0,0,0,1-1.74,1.17,1.17,0,0,1,1.07-.74l1.28,0a.13.13,0,0,0,.12-.12h0l.22-2A.13.13,0,0,0,38.42,36.59ZM28.28,40.73a4.13,4.13,0,1,1,4.13-4.13A4.14,4.14,0,0,1,28.28,40.73Z"/><path class="cls-2" d="M46,16.41a.07.07,0,0,0-.07-.06l-.67,0A.62.62,0,0,1,44.7,16a4.23,4.23,0,0,0-.56-.88.62.62,0,0,1-.07-.68l.3-.6a.07.07,0,0,0,0-.08l-.86-.6a.07.07,0,0,0-.09,0l-.46.49a.62.62,0,0,1-.66.17,4.23,4.23,0,0,0-1-.22.62.62,0,0,1-.53-.43l-.21-.64a.07.07,0,0,0-.08,0l-1,.19a.07.07,0,0,0-.06.07c0,.22,0,.45,0,.67A.62.62,0,0,1,39,14a4.23,4.23,0,0,0-.88.56.62.62,0,0,1-.68.07l-.6-.3a.07.07,0,0,0-.08,0l-.6.86a.07.07,0,0,0,0,.09l.49.46a.62.62,0,0,1,.17.66,4.23,4.23,0,0,0-.22,1,.62.62,0,0,1-.43.53l-.64.21a.07.07,0,0,0,0,.08l.19,1a.07.07,0,0,0,.07.06l.67,0a.62.62,0,0,1,.59.35,4.23,4.23,0,0,0,.56.88.62.62,0,0,1,.07.68l-.3.6a.07.07,0,0,0,0,.08l.86.6a.07.07,0,0,0,.09,0l.46-.49a.62.62,0,0,1,.66-.17,4.23,4.23,0,0,0,1,.22.62.62,0,0,1,.53.43l.21.64a.07.07,0,0,0,.08,0l1-.19a.07.07,0,0,0,.06-.07c0-.22,0-.45,0-.67a.62.62,0,0,1,.35-.59,4.23,4.23,0,0,0,.88-.56.62.62,0,0,1,.68-.07l.6.3a.07.07,0,0,0,.08,0l.6-.86a.07.07,0,0,0,0-.09L45,19.94a.62.62,0,0,1-.17-.66,4.23,4.23,0,0,0,.22-1,.62.62,0,0,1,.43-.53l.64-.21a.07.07,0,0,0,0-.08h0ZM41.25,20A2.17,2.17,0,1,1,43,17.49,2.17,2.17,0,0,1,41.25,20Z"/><path class="cls-3" d="M34.29,23.39c-1.36-.87-3.41-1.2-6.39-1.2a14.1,14.1,0,0,0-14,14.4,14.4,14.4,0,0,0,25.47,9.2"/><path class="cls-3" d="M36.32,24.66a8.16,8.16,0,0,0,10.3-12.55"/></svg>