<svg xmlns="http://www.w3.org/2000/svg" width="64" height="64" viewBox="0 0 64 64">
  <g fill="none" fill-rule="evenodd">
    <path fill="#FFF" fill-opacity=".96" stroke="#9B9B9B" stroke-width=".748" d="M17.0012104,7.9966457 L3.64830364,15.1172896 C2.73797068,15.6027387 2,16.8341702 2,17.8634249 L2,32 L2,46.1299907 C2,47.16071 2.74391236,48.3929758 3.64830364,48.8752564 L17.0012104,55.9959003 L30.3541172,63.1205252 C31.2644502,63.6062457 32.7461731,63.6030755 33.6503698,63.1205252 L47.0004035,55.9959003 L60.3518737,48.8752564 C61.2621087,48.3898073 62,47.1587661 62,46.1299907 L62,32 L62,17.8634249 C62,16.8322254 61.2561677,15.5995702 60.3518737,15.1172896 L47.0004035,7.9966457 L33.6503698,0.878655778 C32.7402327,0.393387592 31.2585085,0.396554904 30.3541172,0.878655778 L17.0012104,7.9966457 Z"/>
    <g transform="translate(15 15)">
      <path stroke="#282C19" stroke-linecap="round" stroke-linejoin="round" stroke-width="2" d="M22.15,11.29 C23.86,12.15 24.72,12.22 24.72,13 L25.58,37 L4.38,23.71 L0.72,6.14 C0.53,4.8 1.58,4.43 2.43,4.43 L8.43,6.14 C9.29,6.14 9.29,5.28 10.14,5.28 L17,7.86 C17.86,7.86 17,9.57 17.67,9.64 L19.23,10.42 L22.15,11.29 Z"/>
      <path stroke="#FFD939" stroke-linecap="round" stroke-width="2" d="M22.15 30.14L6.72 20.71M21.29 24.14L5.86 15.57"/>
      <path d="M5.28,23.2 L25.67,35.29 L26.44,32 L23.93,12 L26.44,32 L31.75,9.44 L8.95,2.6 L8.1,7.2 L8.29,7.26 L8.1,7.2 L5.17,23 C5.20028271,23.0699839 5.2371132,23.1369484 5.28,23.2 Z"/>
      <path fill="#282C19" fill-rule="nonzero" d="M32.53,8.07 L9.07,1 C8.85680185,0.989259446 8.64319815,0.989259446 8.43,1 C7.96020753,0.991998628 7.5615649,1.34297747 7.51,1.81 L6.87,5.25 L8.29,5.72 L6.87,5.25 L6.6,6.72 L8.1,7.22 L8.43,2.71 L31.57,9.57 L25.57,33.57 L26.43,37 L33.31,9.63 C33.4198932,8.99526551 33.1037235,8.36292613 32.53,8.07 Z"/>
      <path stroke="#FFD939" stroke-linecap="round" stroke-width="2" d="M21.29,18.14 L5.86,10.43"/>
      <circle cx="25.69" cy="34.31" r="6.31" fill="#282C19" fill-rule="nonzero" stroke="#FFF"/>
      <path fill="#FFF" fill-rule="nonzero" d="M24.21 35.38C24.2147995 35.4524073 24.1851465 35.5228331 24.13 35.57 24.0837492 35.6132579 24.0233005 35.6381486 23.96 35.64L23.86 35.64 21.71 34.64C21.6434164 34.6063341 21.5878871 34.5542754 21.55 34.49 21.5090777 34.4240417 21.4882304 34.3476016 21.49 34.27 21.4898023 34.1988698 21.5106807 34.1292751 21.55 34.07 21.5893389 34.0094164 21.6447306 33.9609487 21.71 33.93L23.86 32.93 23.96 32.93C24.0235007 32.930894 24.0842812 32.9559212 24.13 33 24.1838949 33.0480712 24.213278 33.117856 24.21 33.19 24.2223092 33.235855 24.2223092 33.284145 24.21 33.33 24.1854138 33.3745908 24.1467253 33.4097621 24.1 33.43L22.1 34.28 24.1 35.13C24.1452487 35.1476346 24.1837544 35.1791393 24.21 35.22 24.2268182 35.2720075 24.2268182 35.3279925 24.21 35.38zM26.58 32.42C26.5830576 32.446579 26.5830576 32.473421 26.58 32.5L25.32 36.28C25.3022339 36.3333456 25.2670037 36.3791449 25.22 36.41 25.1710036 36.4241677 25.1189964 36.4241677 25.07 36.41 24.9996288 36.4145067 24.9306269 36.389085 24.88 36.34 24.8324895 36.29245 24.8070971 36.2271552 24.81 36.16 24.8057057 36.1335062 24.8057057 36.1064938 24.81 36.08L26.07 32.3C26.0884347 32.2470126 26.123514 32.2014095 26.17 32.17 26.2221084 32.1538346 26.2778916 32.1538346 26.33 32.17 26.3986832 32.1696817 26.4642115 32.1988054 26.51 32.25 26.5532579 32.2962508 26.5781486 32.3566995 26.58 32.42zM29.9 34.29C29.9017696 34.3676016 29.8809223 34.4440417 29.84 34.51 29.8021129 34.5742754 29.7465836 34.6263341 29.68 34.66L27.53 35.66 27.43 35.66C27.3666995 35.6581486 27.3062508 35.6332579 27.26 35.59 27.2076899 35.5450326 27.1783247 35.4789609 27.18 35.41 27.1671996 35.3642111 27.1671996 35.3157889 27.18 35.27 27.2062456 35.2291393 27.2447513 35.1976346 27.29 35.18L29.29 34.33 27.29 33.48C27.2391145 33.4624674 27.1964213 33.4268897 27.17 33.38 27.1576908 33.334145 27.1576908 33.285855 27.17 33.24 27.1610694 33.1690543 27.1871758 33.098194 27.24 33.05 27.2893171 33.0052717 27.3534216 32.9803421 27.42 32.98L27.52 32.98 29.67 33.98C29.7349858 34.0113792 29.790272 34.0597547 29.83 34.12 29.8676534 34.1696531 29.8917733 34.22823 29.9 34.29z"/>
    </g>
  </g>
</svg>
