<svg id="Layer_1" data-name="Layer 1" xmlns="http://www.w3.org/2000/svg" viewBox="0 0 64 64"><defs><style>.cls-1,.cls-2,.cls-3{fill:none;stroke-width:2px;}.cls-1{stroke:#282c19;}.cls-1,.cls-3{stroke-linecap:round;}.cls-1,.cls-2,.cls-5{stroke-miterlimit:10;}.cls-2,.cls-3{stroke:#ffd939;}.cls-3{stroke-linejoin:round;}.cls-4,.cls-5{fill:#282c19;}.cls-5{stroke:#fff;}.cls-6{fill:#fff;}</style></defs><title>Artboard 16</title><rect class="cls-1" x="15" y="17.35" width="33" height="27.65" rx="2.68" ry="2.68"/><line class="cls-1" x1="15.89" y1="22.7" x2="48" y2="22.7"/><rect class="cls-2" x="18.54" y="26.24" width="6.29" height="6.29"/><line class="cls-3" x1="18.57" y1="35.19" x2="23.03" y2="35.19"/><line class="cls-3" x1="18.57" y1="37.86" x2="24.81" y2="37.86"/><line class="cls-3" x1="18.57" y1="40.54" x2="23.92" y2="40.54"/><rect class="cls-2" x="28.36" y="26.24" width="6.29" height="6.29"/><line class="cls-3" x1="28.38" y1="35.19" x2="32.84" y2="35.19"/><line class="cls-3" x1="28.38" y1="37.86" x2="34.62" y2="37.86"/><line class="cls-3" x1="28.38" y1="40.54" x2="33.73" y2="40.54"/><rect class="cls-2" x="38.17" y="26.24" width="6.29" height="6.29"/><line class="cls-3" x1="38.19" y1="35.19" x2="42.65" y2="35.19"/><line class="cls-3" x1="38.19" y1="37.86" x2="44.43" y2="37.86"/><line class="cls-3" x1="38.19" y1="40.54" x2="43.54" y2="40.54"/><path class="cls-4" d="M19.46,20a.89.89,0,1,1-.89-.89A1,1,0,0,1,19.46,20Z"/><path class="cls-4" d="M22.14,20a.89.89,0,1,1-.89-.89A1,1,0,0,1,22.14,20Z"/><path class="cls-4" d="M24.81,20a.89.89,0,1,1-.89-.89A1,1,0,0,1,24.81,20Z"/><circle class="cls-5" cx="47.43" cy="43.05" r="6.57"/><path class="cls-6" d="M45.88,44.17a.23.23,0,0,1-.08.19.28.28,0,0,1-.18.07l-.1,0-2.24-1a.4.4,0,0,1-.17-.15A.41.41,0,0,1,43,43a.38.38,0,0,1,.06-.21.41.41,0,0,1,.17-.15l2.24-1,.1,0a.26.26,0,0,1,.18.07.25.25,0,0,1,.08.2.28.28,0,0,1,0,.14.24.24,0,0,1-.12.1L43.65,43l2.08.88a.24.24,0,0,1,.12.1A.27.27,0,0,1,45.88,44.17Z"/><path class="cls-6" d="M48.36,41.08a.37.37,0,0,1,0,.08L47,45.09a.26.26,0,0,1-.11.14.28.28,0,0,1-.16,0,.26.26,0,0,1-.2-.08.25.25,0,0,1-.08-.18.26.26,0,0,1,0-.09L47.82,41a.27.27,0,0,1,.1-.14.28.28,0,0,1,.16,0,.25.25,0,0,1,.19.08A.27.27,0,0,1,48.36,41.08Z"/><path class="cls-6" d="M51.81,43a.41.41,0,0,1-.06.23.41.41,0,0,1-.17.15l-2.24,1-.1,0a.27.27,0,0,1-.18-.07.24.24,0,0,1-.08-.19A.27.27,0,0,1,49,44a.24.24,0,0,1,.12-.1L51.21,43l-2.08-.89a.23.23,0,0,1-.12-.1.28.28,0,0,1,0-.14.23.23,0,0,1,.08-.2.28.28,0,0,1,.19-.07l.1,0,2.24,1a.41.41,0,0,1,.17.15A.38.38,0,0,1,51.81,43Z"/></svg>