<svg id="Layer_1" data-name="Layer 1" xmlns="http://www.w3.org/2000/svg" viewBox="0 0 64 64"><defs><style>.cls-1{fill:#fff;}.cls-2,.cls-5{fill:#282c19;}.cls-3,.cls-4{fill:none;}.cls-4{stroke:#ffd939;stroke-linecap:round;stroke-width:2px;}.cls-4,.cls-5{stroke-miterlimit:10;}.cls-5{stroke:#fff;}</style></defs><title>Artboard 5</title><polygon class="cls-1" points="43.02 47.29 42.84 47.81 38.34 50.02 27.77 19.33 34.3 19.33 43.28 46.52 43.02 47.29"/><path class="cls-2" d="M42.92,46.66,34.3,19.33H27.77l10.9,29c.18.5.36,1,.85.85L42,48.05a1.17,1.17,0,0,0,.61-.56Zm-3,1.3-.43-1.3s0,0,0,0L29.33,20.34h4.24l8.07,25.92Z"/><path class="cls-2" d="M18,19.33H14.72v-.82l-2.15,3.58a1.2,1.2,0,0,0-.09,1L22.54,49.21h2.55c.85,0,.69-.45.85-.85l1-2.1Zm6.44,29.33-1-1.15a4.36,4.36,0,0,1-.85-.85L14,22.86a1.62,1.62,0,0,1,.05-.82v-.85a3.85,3.85,0,0,1,.85-.85h2.55l8.49,26.32-.85,1.7A2.26,2.26,0,0,1,24.42,48.66Z"/><path class="cls-3" d="M45.44,17.14a1.81,1.81,0,0,0-1.36.47c-.81.83-.53,2.85,1,4.83L47.76,27l.18-.53a12.41,12.41,0,0,0,1-4.59,12.67,12.67,0,0,0-3.49-4.74Z"/><path class="cls-2" d="M20.55,20.34c.85,0,.85-1.7,0-1.7H14.6a17.79,17.79,0,0,0-1,1.7h7Z"/><path class="cls-3" d="M45.44,17.14a1.81,1.81,0,0,0-1.36.47c-.81.83-.53,2.85,1,4.83L47.76,27l.18-.53a12.41,12.41,0,0,0,1-4.59,12.67,12.67,0,0,0-3.49-4.74Z"/><polygon class="cls-3" points="42.49 42.87 38.38 31.57 42.46 42.99 42.49 42.87"/><polygon class="cls-2" points="30.22 32.38 25.32 46.26 26.07 48.49 31.04 34.83 32.67 29.94 31.85 27.49 30.22 32.38"/><path class="cls-2" d="M36.13,20.34H37c.85,0,.85-1.7,0-1.7H25.09c-.85,0-.85,1.7,0,1.7h11Z"/><path class="cls-2" d="M49.81,24.22c.08-.82.4-2.54,0-3.26-1.23-2.25-3.53-5.71-4.9-5.71-.82,0-3.26,1.61-3.26,3.26a7.13,7.13,0,0,0,2.45,4.9,8.91,8.91,0,0,1,2.45,6.53,18.1,18.1,0,0,1-1.63,6.53l-2.84,7.65.85,2.55,5.26-16.72A25.74,25.74,0,0,0,49.81,24.22Zm-1.63-4.44A4.48,4.48,0,0,1,49,22.24a19.06,19.06,0,0,1-.82,4.9h-.82l-1.63-4.08c-.19-.36-1.4-1.3-1.63-1.63-1.24-1.8-1.63-3.26-.82-4.08l.82-.82c1-.56,1.74.15,2.45.82Z"/><line class="cls-4" x1="42.92" y1="51.75" x2="38.67" y2="51.75"/><line class="cls-4" x1="26.78" y1="51.75" x2="22.54" y2="51.75"/><line class="cls-4" x1="32.73" y1="16.1" x2="28.48" y2="16.1"/><circle class="cls-5" cx="41.69" cy="47.31" r="6.31"/><path class="cls-1" d="M40.21,48.38a.23.23,0,0,1-.08.19.26.26,0,0,1-.17.07l-.1,0-2.15-1a.39.39,0,0,1-.16-.15.4.4,0,0,1-.06-.22.36.36,0,0,1,.06-.2.39.39,0,0,1,.16-.14l2.15-1,.1,0a.25.25,0,0,1,.17.07.24.24,0,0,1,.08.19.27.27,0,0,1,0,.14.23.23,0,0,1-.11.1l-2,.85,2,.85a.23.23,0,0,1,.11.09A.26.26,0,0,1,40.21,48.38Z"/><path class="cls-1" d="M42.58,45.42a.35.35,0,0,1,0,.08l-1.26,3.78a.25.25,0,0,1-.1.13.27.27,0,0,1-.15,0,.25.25,0,0,1-.19-.07.24.24,0,0,1-.07-.18.25.25,0,0,1,0-.08l1.26-3.78a.26.26,0,0,1,.1-.13.27.27,0,0,1,.16,0,.24.24,0,0,1,.18.08A.26.26,0,0,1,42.58,45.42Z"/><path class="cls-1" d="M45.9,47.29a.4.4,0,0,1-.06.22.39.39,0,0,1-.16.15l-2.15,1-.1,0a.26.26,0,0,1-.17-.07.23.23,0,0,1-.08-.18.26.26,0,0,1,0-.14.23.23,0,0,1,.11-.09l2-.85-2-.85a.22.22,0,0,1-.12-.1.27.27,0,0,1,0-.14.22.22,0,0,1,.07-.19.27.27,0,0,1,.18-.07l.1,0,2.15,1a.4.4,0,0,1,.16.14A.36.36,0,0,1,45.9,47.29Z"/></svg>