<svg id="Layer_1" data-name="Layer 1" xmlns="http://www.w3.org/2000/svg" viewBox="0 0 64 64"><defs><style>.cls-1{fill:#fff;}.cls-2{fill:#282c19;}.cls-3,.cls-4{fill:none;}.cls-4{stroke:#ffd939;stroke-linecap:round;stroke-miterlimit:10;stroke-width:2px;}</style></defs><title>Artboard 14</title><polygon class="cls-1" points="42.53 45.72 42.36 46.22 38.05 48.34 27.91 18.91 34.17 18.91 42.78 44.98 42.53 45.72"/><path class="cls-2" d="M42.43,45.12l-8.26-26.2H27.91L38.36,46.74c.17.48.34,1,.81.81l2.42-1.1a1.12,1.12,0,0,0,.59-.54Zm-2.85,1.24-.41-1.24s0,0,0,0L29.41,19.88h4.07l7.74,24.85Z"/><path class="cls-2" d="M18.52,18.91H15.4v-.78l-2.06,3.44a1.15,1.15,0,0,0-.09,1l9.65,25h2.44c.81,0,.66-.43.81-.81l1-2ZM24.7,47l-1-1.1a4.18,4.18,0,0,1-.81-.81L14.71,22.3a1.56,1.56,0,0,1,.05-.79V20.7a3.69,3.69,0,0,1,.81-.81H18l8.14,25.23-.81,1.63A2.17,2.17,0,0,1,24.7,47Z"/><path class="cls-3" d="M44.86,16.82a1.74,1.74,0,0,0-1.31.45c-.77.8-.5,2.73,1,4.63l2.53,4.37.18-.51a11.9,11.9,0,0,0,1-4.4,12.14,12.14,0,0,0-3.35-4.55Z"/><path class="cls-2" d="M21,19.88c.81,0,.81-1.63,0-1.63h-5.7a17.06,17.06,0,0,0-1,1.63H21Z"/><path class="cls-3" d="M44.86,16.82a1.74,1.74,0,0,0-1.31.45c-.77.8-.5,2.73,1,4.63l2.53,4.37.18-.51a11.9,11.9,0,0,0,1-4.4,12.14,12.14,0,0,0-3.35-4.55Z"/><polygon class="cls-3" points="42.02 41.48 38.08 30.65 42 41.6 42.02 41.48"/><polygon class="cls-2" points="30.26 31.43 25.57 44.73 26.28 46.87 31.04 33.78 32.61 29.08 31.82 26.74 30.26 31.43"/><path class="cls-2" d="M35.93,19.88h.81c.81,0,.81-1.63,0-1.63H25.35c-.81,0-.81,1.63,0,1.63H35.93Z"/><path class="cls-2" d="M49,23.61c.08-.78.38-2.44,0-3.13C47.85,18.32,45.66,15,44.34,15c-.78,0-3.13,1.54-3.13,3.13a6.83,6.83,0,0,0,2.35,4.69,8.54,8.54,0,0,1,2.35,6.26,17.35,17.35,0,0,1-1.56,6.26l-2.73,7.33.81,2.44,5-16A24.68,24.68,0,0,0,49,23.61Zm-1.56-4.25a4.29,4.29,0,0,1,.78,2.35,18.27,18.27,0,0,1-.78,4.69h-.78l-1.56-3.91c-.18-.35-1.34-1.24-1.56-1.56C42.37,19.19,42,17.79,42.78,17l.78-.78c1-.54,1.67.14,2.35.78Z"/><line class="cls-4" x1="42.43" y1="50" x2="38.36" y2="50"/><line class="cls-4" x1="26.97" y1="50" x2="22.9" y2="50"/><line class="cls-4" x1="32.66" y1="15.81" x2="28.59" y2="15.81"/></svg>