<?xml version="1.0" encoding="UTF-8"?>
<svg width="446px" height="109px" viewBox="0 0 446 109" version="1.1" xmlns="http://www.w3.org/2000/svg" xmlns:xlink="http://www.w3.org/1999/xlink">
    <!-- Generator: Sketch 44.1 (41455) - http://www.bohemiancoding.com/sketch -->
    <title>Beezwax-Pride-Logo-Black_Text</title>
    <desc>Created with Sketch.</desc>
    <defs>
        <path d="M51.4,106.7 L50.9,106.9 C49.6,108 48.5,108.2 47.9,108.2 C46.6,108.2 45.7,107.8 45.3,107.6 L25.5,96.2 C35.7,88.7 42.1,78.3 42.1,66.9 C42.1,48.1 25,32.2 1.2,26.9 C1.6,26.3 2.1,25.8 2.9,25.2 L16.1,17.7 C25.5,21.2 41.4,27.4 47.6,32.1 C56.8,39 65.3,46.5 65.3,69.4 C65.3,84.6 63.8,87.8 62.5,91.7 C62.5,91.7 59.7,99.4 51.4,106.7 Z M23.5,13.4 L23.7,13.4 L45.9,0.7 C46.1,0.5 48.7,-0.6 51.2,0.7 L73.1,13.3 L93.6,24.7 C93.6,24.7 96.2,26.2 96.2,29.4 L96.2,78 C96.2,78 96.2,81.2 93.6,82.7 L82.3,89.1 C83.2,85 83.8,80.7 83.8,76.9 C83.8,61.7 85.1,49.2 73.8,37.9 C73.8,37.9 65.2,27.8 44.6,20.5 L23.5,13.4 Z M0.7,31.6 L0.6,31.6 C17.4,38.1 29.1,51.6 29.1,67.2 C29,76.4 25,84.8 18.4,91.4 L15.4,89.7 L3.3,82.8 C2.8,82.4 0.7,80.9 0.7,78.3 L0.7,31.6 Z" id="path-1"></path>
    </defs>
    <g id="Page-1" stroke="none" stroke-width="1" fill="none" fill-rule="evenodd">
        <g id="Beezwax-Pride-Logo-Black_Text">
            <g id="Group"></g>
            <g id="Group-2" transform="translate(119.000000, 29.000000)" fill="#333333">
                <path d="M20.5,52.5 C16.9,52.5 7.5,51.7 7.5,51.7 L0,51.7 L0,0.5 L10.2,0.5 L10.2,15.9 C12.7,15.3 18.3,14 21.1,14 C28.6,14 34.5,16.8 34.5,28.3 L34.5,37.9 C34.5,49.3 28.1,52.5 20.5,52.5 L20.5,52.5 Z M24.3,27.9 C24.3,24 22.6,23.2 20.5,23.2 C18,23.2 10.3,24.7 10.3,24.7 L10.3,42.7 C10.3,42.7 19.2,43.3 20.7,43.3 C22.8,43.3 24.3,42.4 24.3,38.6 L24.3,27.9 L24.3,27.9 Z" id="Shape"></path>
                <path d="M68.9,38.1 L57.4,38.1 L57.4,39 C57.4,42.4 59.1,43.5 61.2,43.5 C63.8,43.5 78.4,42 78.4,42 L78.4,50.8 C78.4,50.8 65.4,52.7 60.7,52.7 C53.2,52.7 47.1,49.9 47.1,38.4 L47.1,28.6 C47.1,17.9 52.4,14.3 59.2,14.3 C60.5,14.3 70.3,15.1 70.3,15.1 C76.1,15.5 80.5,19 80.5,25.6 L80.5,28.8 C80.5,36.3 75,38.4 69,38.4 L68.9,38.1 Z M70.8,26.3 C70.8,24.4 69.9,23.7 68,23.5 C68,23.5 61.8,23.1 60.8,23.1 C58.3,23.1 57.4,24.6 57.4,26.7 L57.4,30.3 L67,30.3 C69.1,30.3 70.8,29.7 70.8,27.9 L70.8,26.4 L70.8,26.3 Z" id="Shape"></path>
                <path d="M114.8,38.1 L103.3,38.1 L103.3,39 C103.3,42.4 105,43.5 107.1,43.5 C109.7,43.5 124.3,42 124.3,42 L124.3,50.8 C124.3,50.8 111.3,52.7 106.6,52.7 C99.1,52.7 93,49.9 93,38.4 L93,28.6 C93,17.9 98.3,14.3 105.1,14.3 C106.4,14.3 116.2,15.1 116.2,15.1 C122,15.5 126.4,19 126.4,25.6 L126.4,28.8 C126.4,36.3 120.9,38.4 114.9,38.4 L114.8,38.1 Z M116.7,26.3 C116.7,24.4 115.8,23.7 113.9,23.5 C113.9,23.5 107.7,23.1 106.7,23.1 C104.2,23.1 103.3,24.6 103.3,26.7 L103.3,30.3 L112.9,30.3 C115,30.3 116.7,29.7 116.7,27.9 L116.7,26.4 L116.7,26.3 Z" id="Shape"></path>
                <polygon id="Shape" points="138.3 51.8 138.3 44.9 156 23.7 138.8 23.7 138.8 14.9 170.5 14.9 170.5 21.5 152.4 43.1 171.1 43.1 171.1 51.9 138.3 51.9"></polygon>
                <path d="M227.5,28.5 L221.5,51.8 L213.6,51.8 L205.9,33.4 L198.2,51.8 L190.3,51.8 L184.3,28.5 C182.5,22 182.7,14.8 182.7,14.8 L192.5,14.8 C192.5,14.8 192.9,23.6 194,28.3 L195.9,36 L203.4,18.4 L208.7,18.4 L216.2,35.5 L218.1,28.4 C219.2,23.7 219.6,14.9 219.6,14.9 L229.4,14.9 C229.4,14.9 229.6,21.8 227.9,28.6 L227.5,28.5 Z" id="Shape"></path>
                <path d="M266.8,52 L266,49.9 C266,49.9 257.5,52.7 253.9,52.7 C246.4,52.7 239.8,49.9 239.8,38.4 L239.8,28.8 C239.8,17.4 247,14.2 254.5,14.2 C258.1,14.2 267.3,15 267.3,15 L274.8,15 L274.8,52 L266.5,52 L266.8,52 Z M264.9,23.9 C264.9,23.9 256,23.3 254.5,23.3 C252.4,23.3 250.9,24.2 250.9,28 L250.9,38.7 C250.9,42.6 252.6,43.4 254.7,43.4 C257.2,43.4 264.9,41.1 264.9,41.1 L264.9,23.8 L264.9,23.9 Z" id="Shape"></path>
                <path d="M315.2,52 C315.2,52 313.7,48.4 311.8,46 L306.7,40 L301.6,46 C299.5,48.4 298,52 298,52 L286.7,52 C286.7,52 288.8,46.7 291.2,43.7 L300.3,32.6 L292,22.5 C289.5,19.5 287.9,14.8 287.9,14.8 L299.4,14.8 C299.4,14.8 300.7,18.2 303.2,21.2 L306.6,25.1 L310,21.2 C312.6,18.2 314,14.8 314,14.8 L325.5,14.8 C325.5,14.8 323.6,19.5 321.2,22.5 L312.9,32.4 L322,43.5 C324.5,46.5 326.5,51.8 326.5,51.8 L315.4,52 L315.2,52 Z" id="Shape"></path>
            </g>
            <g id="gaypride">
                <mask id="mask-2" fill="white">
                    <use xlink:href="#path-1"></use>
                </mask>
                <use id="Mask" fill="#FFD939" xlink:href="#path-1"></use>
                <g id="PrideColors" mask="url(#mask-2)">
                    <g id="gaypride">
                        <path d="M99,18.1666667 L0,18.1666667 L0,0 L99,0 L99,18.1666667" id="Fill-1" fill="#D9262A"></path>
                        <path d="M99,18.1666667 L99,36.3333333 L0,36.3333333 L0,18.1666667 L99,18.1666667 Z" id="Fill-2" fill="#EC912D"></path>
                        <path d="M0,36.3333333 L99,36.3333333 L99,54.5 L0,54.5 L0,36.3333333" id="Fill-3" fill="#F4EA2B"></path>
                        <path d="M99,54.5 L99,72.6666667 L0,72.6666667 L0,54.5 L99,54.5 Z" id="Fill-4" fill="#179045"></path>
                        <path d="M0,72.6666667 L99,72.6666667 L99,90.8333333 L0,90.8333333 L0,72.6666667" id="Fill-5" fill="#334A8D"></path>
                        <path d="M0,90.8333333 L99,90.8333333 L99,109 L0,109 L0,90.8333333" id="Fill-6" fill="#B3297E"></path>
                    </g>
                </g>
            </g>
        </g>
    </g>
</svg>