<svg xmlns="http://www.w3.org/2000/svg" width="96" height="109" viewBox="0 0 96 109">
  <g fill-rule="evenodd">
    <path d="M50.2,107 C58.5,99.7 61.3,92 61.3,92 C62.6,88.1 64.1,84.9 64.1,69.7 C64.1,46.8 55.6,39.3 46.4,32.4 C40.2,27.7 24.3,21.5 14.9,18 L1.7,25.5 C0.9,26.1 0.4,26.6 0,27.2 C23.8,32.5 40.9,48.4 40.9,67.2 C40.9,78.6 34.5,89 24.3,96.5 L44.1,107.9 C44.5,108.1 45.4,108.5 46.7,108.5 C47.3,108.5 48.4,108.3 49.7,107.2 L50.2,107 Z"/>
    <path d="M23 13.3248449L44.1 20.4248449C64.7 27.7248449 73.3 37.8248449 73.3 37.8248449 84.6 49.1248449 83.3 61.6248449 83.3 76.8248449 83.3 80.6248449 82.7 84.9248449 81.8 89.0248449L93.1 82.6248449C95.7 81.1248449 95.7 77.9248449 95.7 77.9248449L95.7 29.3248449C95.7 26.1248449 93.1 24.6248449 93.1 24.6248449L72.6 13.2248449 50.7.624844863C48.2-.675155137 45.6.424844863 45.4.624844863L23.2 13.3248449 23 13.3248449zM.1 32L.1 78.7C.1 81.3 2.2 82.8 2.7 83.2L14.8 90.1 17.8 91.8C24.4 85.2 28.4 76.8 28.5 67.6 28.5 52 16.8 38.5 0 32L.1 32z"/>
  </g>
</svg>
