<svg xmlns="http://www.w3.org/2000/svg" width="446" height="109" viewBox="0 0 446 109">
  <g fill-rule="evenodd">
    <path d="M51.4,106.7 C59.7,99.4 62.5,91.7 62.5,91.7 C63.8,87.8 65.3,84.6 65.3,69.4 C65.3,46.5 56.8,39 47.6,32.1 C41.4,27.4 25.5,21.2 16.1,17.7 L2.9,25.2 C2.1,25.8 1.6,26.3 1.2,26.9 C25,32.2 42.1,48.1 42.1,66.9 C42.1,78.3 35.7,88.7 25.5,96.2 L45.3,107.6 C45.7,107.8 46.6,108.2 47.9,108.2 C48.5,108.2 49.6,108 50.9,106.9 L51.4,106.7 Z"/>
    <path d="M23.5 13.4L44.6 20.5C65.2 27.8 73.8 37.9 73.8 37.9 85.1 49.2 83.8 61.7 83.8 76.9 83.8 80.7 83.2 85 82.3 89.1L93.6 82.7C96.2 81.2 96.2 78 96.2 78L96.2 29.4C96.2 26.2 93.6 24.7 93.6 24.7L73.1 13.3 51.2.7C48.7-.6 46.1.5 45.9.7L23.7 13.4 23.5 13.4zM.7 31.6L.7 78.3C.7 80.9 2.8 82.4 3.3 82.8L15.4 89.7 18.4 91.4C25 84.8 29 76.4 29.1 67.2 29.1 51.6 17.4 38.1.6 31.6L.7 31.6zM139.5 81.5C135.9 81.5 126.5 80.7 126.5 80.7L119 80.7 119 29.5 129.2 29.5 129.2 44.9C131.7 44.3 137.3 43 140.1 43 147.6 43 153.5 45.8 153.5 57.3L153.5 66.9C153.5 78.3 147.1 81.5 139.5 81.5L139.5 81.5zM143.3 56.9C143.3 53 141.6 52.2 139.5 52.2 137 52.2 129.3 53.7 129.3 53.7L129.3 71.7C129.3 71.7 138.2 72.3 139.7 72.3 141.8 72.3 143.3 71.4 143.3 67.6L143.3 56.9 143.3 56.9zM187.9 67.1L176.4 67.1 176.4 68C176.4 71.4 178.1 72.5 180.2 72.5 182.8 72.5 197.4 71 197.4 71L197.4 79.8C197.4 79.8 184.4 81.7 179.7 81.7 172.2 81.7 166.1 78.9 166.1 67.4L166.1 57.6C166.1 46.9 171.4 43.3 178.2 43.3 179.5 43.3 189.3 44.1 189.3 44.1 195.1 44.5 199.5 48 199.5 54.6L199.5 57.8C199.5 65.3 194 67.4 188 67.4L187.9 67.1zM189.8 55.3C189.8 53.4 188.9 52.7 187 52.5 187 52.5 180.8 52.1 179.8 52.1 177.3 52.1 176.4 53.6 176.4 55.7L176.4 59.3 186 59.3C188.1 59.3 189.8 58.7 189.8 56.9L189.8 55.4 189.8 55.3zM233.8 67.1L222.3 67.1 222.3 68C222.3 71.4 224 72.5 226.1 72.5 228.7 72.5 243.3 71 243.3 71L243.3 79.8C243.3 79.8 230.3 81.7 225.6 81.7 218.1 81.7 212 78.9 212 67.4L212 57.6C212 46.9 217.3 43.3 224.1 43.3 225.4 43.3 235.2 44.1 235.2 44.1 241 44.5 245.4 48 245.4 54.6L245.4 57.8C245.4 65.3 239.9 67.4 233.9 67.4L233.8 67.1zM235.7 55.3C235.7 53.4 234.8 52.7 232.9 52.5 232.9 52.5 226.7 52.1 225.7 52.1 223.2 52.1 222.3 53.6 222.3 55.7L222.3 59.3 231.9 59.3C234 59.3 235.7 58.7 235.7 56.9L235.7 55.4 235.7 55.3z"/>
    <polygon points="257.3 80.8 257.3 73.9 275 52.7 257.8 52.7 257.8 43.9 289.5 43.9 289.5 50.5 271.4 72.1 290.1 72.1 290.1 80.9 257.3 80.9"/>
    <path d="M346.5 57.5L340.5 80.8 332.6 80.8 324.9 62.4 317.2 80.8 309.3 80.8 303.3 57.5C301.5 51 301.7 43.8 301.7 43.8L311.5 43.8C311.5 43.8 311.9 52.6 313 57.3L314.9 65 322.4 47.4 327.7 47.4 335.2 64.5 337.1 57.4C338.2 52.7 338.6 43.9 338.6 43.9L348.4 43.9C348.4 43.9 348.6 50.8 346.9 57.6L346.5 57.5zM385.8 81L385 78.9C385 78.9 376.5 81.7 372.9 81.7 365.4 81.7 358.8 78.9 358.8 67.4L358.8 57.8C358.8 46.4 366 43.2 373.5 43.2 377.1 43.2 386.3 44 386.3 44L393.8 44 393.8 81 385.5 81 385.8 81zM383.9 52.9C383.9 52.9 375 52.3 373.5 52.3 371.4 52.3 369.9 53.2 369.9 57L369.9 67.7C369.9 71.6 371.6 72.4 373.7 72.4 376.2 72.4 383.9 70.1 383.9 70.1L383.9 52.8 383.9 52.9zM434.2 81C434.2 81 432.7 77.4 430.8 75L425.7 69 420.6 75C418.5 77.4 417 81 417 81L405.7 81C405.7 81 407.8 75.7 410.2 72.7L419.3 61.6 411 51.5C408.5 48.5 406.9 43.8 406.9 43.8L418.4 43.8C418.4 43.8 419.7 47.2 422.2 50.2L425.6 54.1 429 50.2C431.6 47.2 433 43.8 433 43.8L444.5 43.8C444.5 43.8 442.6 48.5 440.2 51.5L431.9 61.4 441 72.5C443.5 75.5 445.5 80.8 445.5 80.8L434.4 81 434.2 81z"/>
  </g>
</svg>
