<?xml version="1.0" encoding="UTF-8"?>
<svg width="446px" height="109px" viewBox="0 0 446 109" version="1.1" xmlns="http://www.w3.org/2000/svg" xmlns:xlink="http://www.w3.org/1999/xlink">
    <!-- Generator: Sketch 42 (36781) - http://www.bohemiancoding.com/sketch -->
    <title>beezwax-main-logo</title>
    <desc>Created with Sketch.</desc>
    <defs></defs>
    <g id="Page-1" stroke="none" stroke-width="1" fill="none" fill-rule="evenodd">
        <g id="beezwax-main-logo">
            <g id="beezwax-logo">
                <path d="M51.4,106.7 C59.7,99.4 62.5,91.7 62.5,91.7 C63.8,87.8 65.3,84.6 65.3,69.4 C65.3,46.5 56.8,39 47.6,32.1 C41.4,27.4 25.5,21.2 16.1,17.7 L2.9,25.2 C2.1,25.8 1.6,26.3 1.2,26.9 C25,32.2 42.1,48.1 42.1,66.9 C42.1,78.3 35.7,88.7 25.5,96.2 L45.3,107.6 C45.7,107.8 46.6,108.2 47.9,108.2 C48.5,108.2 49.6,108 50.9,106.9 L51.4,106.7 Z" id="Shape" fill="#FFD939"></path>
                <path d="M23.5,13.4 L44.6,20.5 C65.2,27.8 73.8,37.9 73.8,37.9 C85.1,49.2 83.8,61.7 83.8,76.9 C83.8,80.7 83.2,85 82.3,89.1 L93.6,82.7 C96.2,81.2 96.2,78 96.2,78 L96.2,29.4 C96.2,26.2 93.6,24.7 93.6,24.7 L73.1,13.3 L51.2,0.7 C48.7,-0.6 46.1,0.5 45.9,0.7 L23.7,13.4 L23.5,13.4 Z" id="Shape" fill="#FFD939"></path>
                <path d="M0.7,31.6 L0.7,78.3 C0.7,80.9 2.8,82.4 3.3,82.8 L15.4,89.7 L18.4,91.4 C25,84.8 29,76.4 29.1,67.2 C29.1,51.6 17.4,38.1 0.6,31.6 L0.7,31.6 Z" id="Shape" fill="#FFD939"></path>
                <path d="M139.5,81.5 C135.9,81.5 126.5,80.7 126.5,80.7 L119,80.7 L119,29.5 L129.2,29.5 L129.2,44.9 C131.7,44.3 137.3,43 140.1,43 C147.6,43 153.5,45.8 153.5,57.3 L153.5,66.9 C153.5,78.3 147.1,81.5 139.5,81.5 L139.5,81.5 Z M143.3,56.9 C143.3,53 141.6,52.2 139.5,52.2 C137,52.2 129.3,53.7 129.3,53.7 L129.3,71.7 C129.3,71.7 138.2,72.3 139.7,72.3 C141.8,72.3 143.3,71.4 143.3,67.6 L143.3,56.9 L143.3,56.9 Z" id="Shape" fill="#333333"></path>
                <path d="M187.9,67.1 L176.4,67.1 L176.4,68 C176.4,71.4 178.1,72.5 180.2,72.5 C182.8,72.5 197.4,71 197.4,71 L197.4,79.8 C197.4,79.8 184.4,81.7 179.7,81.7 C172.2,81.7 166.1,78.9 166.1,67.4 L166.1,57.6 C166.1,46.9 171.4,43.3 178.2,43.3 C179.5,43.3 189.3,44.1 189.3,44.1 C195.1,44.5 199.5,48 199.5,54.6 L199.5,57.8 C199.5,65.3 194,67.4 188,67.4 L187.9,67.1 Z M189.8,55.3 C189.8,53.4 188.9,52.7 187,52.5 C187,52.5 180.8,52.1 179.8,52.1 C177.3,52.1 176.4,53.6 176.4,55.7 L176.4,59.3 L186,59.3 C188.1,59.3 189.8,58.7 189.8,56.9 L189.8,55.4 L189.8,55.3 Z" id="Shape" fill="#333333"></path>
                <path d="M233.8,67.1 L222.3,67.1 L222.3,68 C222.3,71.4 224,72.5 226.1,72.5 C228.7,72.5 243.3,71 243.3,71 L243.3,79.8 C243.3,79.8 230.3,81.7 225.6,81.7 C218.1,81.7 212,78.9 212,67.4 L212,57.6 C212,46.9 217.3,43.3 224.1,43.3 C225.4,43.3 235.2,44.1 235.2,44.1 C241,44.5 245.4,48 245.4,54.6 L245.4,57.8 C245.4,65.3 239.9,67.4 233.9,67.4 L233.8,67.1 Z M235.7,55.3 C235.7,53.4 234.8,52.7 232.9,52.5 C232.9,52.5 226.7,52.1 225.7,52.1 C223.2,52.1 222.3,53.6 222.3,55.7 L222.3,59.3 L231.9,59.3 C234,59.3 235.7,58.7 235.7,56.9 L235.7,55.4 L235.7,55.3 Z" id="Shape" fill="#333333"></path>
                <polygon id="Shape" fill="#333333" points="257.3 80.8 257.3 73.9 275 52.7 257.8 52.7 257.8 43.9 289.5 43.9 289.5 50.5 271.4 72.1 290.1 72.1 290.1 80.9 257.3 80.9"></polygon>
                <path d="M346.5,57.5 L340.5,80.8 L332.6,80.8 L324.9,62.4 L317.2,80.8 L309.3,80.8 L303.3,57.5 C301.5,51 301.7,43.8 301.7,43.8 L311.5,43.8 C311.5,43.8 311.9,52.6 313,57.3 L314.9,65 L322.4,47.4 L327.7,47.4 L335.2,64.5 L337.1,57.4 C338.2,52.7 338.6,43.9 338.6,43.9 L348.4,43.9 C348.4,43.9 348.6,50.8 346.9,57.6 L346.5,57.5 Z" id="Shape" fill="#333333"></path>
                <path d="M385.8,81 L385,78.9 C385,78.9 376.5,81.7 372.9,81.7 C365.4,81.7 358.8,78.9 358.8,67.4 L358.8,57.8 C358.8,46.4 366,43.2 373.5,43.2 C377.1,43.2 386.3,44 386.3,44 L393.8,44 L393.8,81 L385.5,81 L385.8,81 Z M383.9,52.9 C383.9,52.9 375,52.3 373.5,52.3 C371.4,52.3 369.9,53.2 369.9,57 L369.9,67.7 C369.9,71.6 371.6,72.4 373.7,72.4 C376.2,72.4 383.9,70.1 383.9,70.1 L383.9,52.8 L383.9,52.9 Z" id="Shape" fill="#333333"></path>
                <path d="M434.2,81 C434.2,81 432.7,77.4 430.8,75 L425.7,69 L420.6,75 C418.5,77.4 417,81 417,81 L405.7,81 C405.7,81 407.8,75.7 410.2,72.7 L419.3,61.6 L411,51.5 C408.5,48.5 406.9,43.8 406.9,43.8 L418.4,43.8 C418.4,43.8 419.7,47.2 422.2,50.2 L425.6,54.1 L429,50.2 C431.6,47.2 433,43.8 433,43.8 L444.5,43.8 C444.5,43.8 442.6,48.5 440.2,51.5 L431.9,61.4 L441,72.5 C443.5,75.5 445.5,80.8 445.5,80.8 L434.4,81 L434.2,81 Z" id="Shape" fill="#333333"></path>
            </g>
        </g>
    </g>
</svg>