<?xml version="1.0" encoding="UTF-8"?>
<svg width="97px" height="109px" viewBox="0 0 97 109" version="1.1" xmlns="http://www.w3.org/2000/svg" xmlns:xlink="http://www.w3.org/1999/xlink">
    <!-- Generator: Sketch 44.1 (41455) - http://www.bohemiancoding.com/sketch -->
    <title>Beezwax-Pride-Logo-Mark</title>
    <desc>Created with Sketch.</desc>
    <defs>
        <path d="M51.4,106.7 L50.9,106.9 C49.6,108 48.5,108.2 47.9,108.2 C46.6,108.2 45.7,107.8 45.3,107.6 L25.5,96.2 C35.7,88.7 42.1,78.3 42.1,66.9 C42.1,48.1 25,32.2 1.2,26.9 C1.6,26.3 2.1,25.8 2.9,25.2 L16.1,17.7 C25.5,21.2 41.4,27.4 47.6,32.1 C56.8,39 65.3,46.5 65.3,69.4 C65.3,84.6 63.8,87.8 62.5,91.7 C62.5,91.7 59.7,99.4 51.4,106.7 Z M23.5,13.4 L23.7,13.4 L45.9,0.7 C46.1,0.5 48.7,-0.6 51.2,0.7 L73.1,13.3 L93.6,24.7 C93.6,24.7 96.2,26.2 96.2,29.4 L96.2,78 C96.2,78 96.2,81.2 93.6,82.7 L82.3,89.1 C83.2,85 83.8,80.7 83.8,76.9 C83.8,61.7 85.1,49.2 73.8,37.9 C73.8,37.9 65.2,27.8 44.6,20.5 L23.5,13.4 Z M0.7,31.6 L0.6,31.6 C17.4,38.1 29.1,51.6 29.1,67.2 C29,76.4 25,84.8 18.4,91.4 L15.4,89.7 L3.3,82.8 C2.8,82.4 0.7,80.9 0.7,78.3 L0.7,31.6 Z" id="path-1"></path>
    </defs>
    <g id="Page-1" stroke="none" stroke-width="1" fill="none" fill-rule="evenodd">
        <g id="Beezwax-Pride-Logo-Mark">
            <g id="gaypride">
                <mask id="mask-2" fill="white">
                    <use xlink:href="#path-1"></use>
                </mask>
                <use id="Mask" fill="#FFD939" xlink:href="#path-1"></use>
                <g id="PrideColors" mask="url(#mask-2)">
                    <g id="gaypride">
                        <path d="M100,18.1666667 L0,18.1666667 L0,0 L100,0 L100,18.1666667" id="Fill-1" fill="#D9262A"></path>
                        <path d="M100,18.1666667 L100,36.3333333 L0,36.3333333 L0,18.1666667 L100,18.1666667 Z" id="Fill-2" fill="#EC912D"></path>
                        <path d="M0,36.3333333 L100,36.3333333 L100,54.5 L0,54.5 L0,36.3333333" id="Fill-3" fill="#F4EA2B"></path>
                        <path d="M100,54.5 L100,72.6666667 L0,72.6666667 L0,54.5 L100,54.5 Z" id="Fill-4" fill="#179045"></path>
                        <path d="M0,72.6666667 L100,72.6666667 L100,90.8333333 L0,90.8333333 L0,72.6666667" id="Fill-5" fill="#334A8D"></path>
                        <path d="M0,90.8333333 L100,90.8333333 L100,109 L0,109 L0,90.8333333" id="Fill-6" fill="#B3297E"></path>
                    </g>
                </g>
            </g>
        </g>
    </g>
</svg>