<svg xmlns="http://www.w3.org/2000/svg" xmlns:xlink="http://www.w3.org/1999/xlink" width="548" height="214" viewBox="0 0 548 214">
  <defs>
    <path id="beezwax-all-zipped-a" d="M0,0 L548,0 L548,214 L0,214 L0,0 Z"/>
    <mask id="beezwax-all-zipped-b" width="548" height="214" x="0" y="0" fill="#fff">
      <use xlink:href="#beezwax-all-zipped-a"/>
    </mask>
  </defs>
  <g fill="none" fill-rule="evenodd">
    <g transform="translate(177 24)">
      <path fill="#000" fill-rule="nonzero" d="M184.988839,13.9166667 L79.6540179,13.9166667 C78.4391853,13.9166667 77.7949888,13.6622526 77.0014955,12.8694375 L67.2075335,3.08384635 L67.1344085,3.01339323 C65.0137835,1.01461198 63.270971,0 59.6316964,0 L10.8816964,0 C4.88152902,0 0,4.48682031 0,10.0026042 L0,156.127604 C0,161.919112 5.08523437,167 10.8816964,167 L184.988839,167 C190.509342,167 195,162.122643 195,156.127604 L195,23.9192708 C195,18.1234141 190.789654,13.9166667 184.988839,13.9166667 Z M10.8816964,6.95833333 L59.6316964,6.95833333 C61.1538281,6.95833333 61.2582924,7.04052865 62.3194754,8.04035417 L72.076875,17.789849 C74.1835714,19.8947448 76.5914732,20.875 79.6540179,20.875 L184.988839,20.875 C186.924911,20.875 188.035714,21.9848542 188.035714,23.9192708 L188.035714,42.3484167 C186.945804,41.9622292 185.774498,41.75 184.553571,41.75 L10.4464286,41.75 C9.22550223,41.75 8.05419643,41.9622292 6.96428571,42.3484167 L6.96428571,10.0026042 C6.96428571,8.12254948 8.99785714,6.95833333 10.8816964,6.95833333 Z M188.035714,156.127604 C188.035714,158.009833 186.870502,160.041667 184.988839,160.041667 L10.8816964,160.041667 C8.94127232,160.041667 6.96428571,158.06637 6.96428571,156.127604 L6.96428571,52.1875 C6.96428571,50.2691745 8.52646205,48.7083333 10.4464286,48.7083333 L184.553571,48.7083333 C186.473538,48.7083333 188.035714,50.2691745 188.035714,52.1875 L188.035714,156.127604 Z"/>
      <g fill="#474A56" fill-rule="nonzero" transform="translate(150 92)">
        <path d="M28.4722787,7 L27,7 L27,11 L28.4722787,11 C28.9100145,11 29.2885341,10.9520128 29.6066763,10.8539056 C29.9259797,10.7568648 30.1872279,10.628899 30.3939042,10.470008 C30.5982583,10.3121834 30.7526851,10.129832 30.8502177,9.92082111 C30.9500726,9.71500933 31,9.50173287 31,9.28205812 L31,8.86083711 C31,8.33830978 30.8002903,7.89682751 30.403193,7.5363903 C30.0049347,7.17915223 29.3605225,7 28.4722787,7 Z"/>
        <path d="M36.2898242,0 L2.71265537,0 C1.21499189,0 0,1.19561408 0,2.67211809 L0,20.3278819 C0,21.8043859 1.21375211,23 2.71265537,23 L36.2898242,23 C37.7862479,23 39,21.8043859 39,20.3278819 L39,2.67089683 C39,1.19561408 37.7862479,0 36.2898242,0 Z M16.0254951,17.9024585 C15.8122516,18.0697711 15.5717328,18.1540381 15.3039387,18.1540381 L7.63585212,18.1540381 C7.35194074,18.1540381 7.105223,18.0697711 6.89321932,17.9024585 C6.67997584,17.7351458 6.57459389,17.4835661 6.57459389,17.1489407 C6.57459389,16.813094 6.6737769,16.5493018 6.87214293,16.3539001 L12.9880154,6.83539532 L7.89124837,6.83539532 C7.62221445,6.83539532 7.38169565,6.75112834 7.16845217,6.58381564 C6.95644849,6.41650295 6.84982675,6.16492327 6.84982675,5.83151914 C6.84982675,5.46880476 6.9552087,5.20012744 7.16845217,5.02548718 C7.38169565,4.85084692 7.62097466,4.76413742 7.89124837,4.76413742 L15.0906952,4.76413742 C15.3597292,4.76413742 15.6039673,4.85084692 15.8221699,5.02548718 C16.0428521,5.20012744 16.1531932,5.4675835 16.1531932,5.83151914 C16.1531932,6.15271067 16.0540102,6.39574152 15.856884,6.56427547 L15.8767206,6.56427547 L9.76084814,16.081559 L15.3051785,16.081559 C15.5729726,16.081559 15.8134914,16.1694897 16.0267349,16.3429087 C16.2399784,16.517549 16.3453603,16.785005 16.3453603,17.1489407 C16.3428808,17.4847873 16.2387386,17.7351458 16.0254951,17.9024585 Z M21.2697969,17.3589975 C21.2697969,17.6093559 21.1557364,17.8377316 20.9313348,18.0392396 C20.7032139,18.2419689 20.4131036,18.3433335 20.0597641,18.3433335 C19.6642719,18.3433335 19.3518454,18.2419689 19.1249642,18.0392396 C18.8993229,17.8377316 18.7865022,17.6105772 18.7865022,17.3589975 L18.7865022,5.53963787 C18.7865022,5.28927946 18.9005627,5.06212499 19.1249642,4.85939574 C19.3518454,4.65666649 19.6642719,4.55652312 20.0597641,4.55652312 C20.4131036,4.55652312 20.7032139,4.65788775 20.9313348,4.85939574 C21.1569762,5.06212499 21.2697969,5.2880582 21.2697969,5.53963787 L21.2697969,17.3589975 Z M33.6292399,9.36706844 C33.6292399,9.89831678 33.5374956,10.4063612 33.3527673,10.8936441 C33.1680389,11.3821484 32.8704899,11.8144746 32.46136,12.1906228 C32.0497505,12.5679924 31.5216009,12.870865 30.8682328,13.100462 C30.2173443,13.3300589 29.4176813,13.4460787 28.4680039,13.4460787 L26.8959532,13.4460787 L26.8959532,17.3785377 C26.8959532,17.6301173 26.7868519,17.8560505 26.5661697,18.0587798 C26.3479671,18.2615091 26.0528976,18.3616524 25.6846807,18.3616524 C25.3015863,18.3616524 24.994119,18.2431901 24.7622787,18.0062656 C24.5279588,17.7693411 24.4114188,17.5250889 24.4114188,17.2747305 L24.4114188,5.74725216 C24.4114188,5.49689375 24.5279588,5.26973929 24.7622787,5.06701004 C24.9953587,4.8667233 25.3028261,4.76413742 25.6846807,4.76413742 L28.4667642,4.76413742 C29.360651,4.76413742 30.1305592,4.87649339 30.7814477,5.09876281 C31.4323362,5.32225349 31.970404,5.63245367 32.396891,6.02936335 C32.8208984,6.42627303 33.1333249,6.89035204 33.3316909,7.42037912 C33.5275773,7.9504062 33.6267603,8.52195614 33.6267603,9.1362502 L33.6267603,9.36706844 L33.6292399,9.36706844 Z"/>
      </g>
      <g fill="#FFD939" transform="translate(53 59)">
        <path d="M43.925,93.2568807 C51.1875,86.8944954 53.6375,80.1834862 53.6375,80.1834862 C54.775,76.7844037 56.0875,73.9954128 56.0875,60.7477064 C56.0875,40.7889908 48.65,34.2522936 40.6,28.2385321 C35.175,24.1422018 21.2625,18.7385321 13.0375,15.6880734 L1.4875,22.2247706 C0.7875,22.7477064 0.35,23.1834862 0,23.706422 C20.825,28.3256881 35.7875,42.1834862 35.7875,58.5688073 C35.7875,68.5045872 30.1875,77.5688073 21.2625,84.1055046 L38.5875,94.0412844 C38.9375,94.2155963 39.725,94.5642202 40.8625,94.5642202 C41.3875,94.5642202 42.35,94.3899083 43.4875,93.4311927 L43.925,93.2568807 Z"/>
        <path d="M20.125 11.6133969L38.5875 17.8014703C56.6125 24.1638556 64.1375 32.9666079 64.1375 32.9666079 74.025 42.8152318 72.8875 53.7097272 72.8875 66.9574336 72.8875 70.2693602 72.3625 74.0170666 71.575 77.5904611L81.4625 72.0124795C83.7375 70.70514 83.7375 67.9161492 83.7375 67.9161492L83.7375 25.558351C83.7375 22.7693602 81.4625 21.4620208 81.4625 21.4620208L63.525 11.5262409 44.3625.54458956C42.175-.588437963 39.9.370277633 39.725.54458956L20.3 11.6133969 20.125 11.6133969zM.0875 27.8899083L.0875 68.5917431C.0875 70.8577982 1.925 72.1651376 2.3625 72.5137615L12.95 78.5275229 15.575 80.0091743C21.35 74.2568807 24.85 66.9357798 24.9375 58.9174312 24.9375 45.3211009 14.7 33.5550459 0 27.8899083L.0875 27.8899083z"/>
      </g>
    </g>
    <use stroke="#FFD939" stroke-dasharray="2" stroke-width="2" mask="url(#beezwax-all-zipped-b)" xlink:href="#beezwax-all-zipped-a"/>
  </g>
</svg>
